<svg width="1440" height="701" viewBox="0 0 1440 701" fill="none" xmlns="http://www.w3.org/2000/svg">
<g clip-path="url(#clip0_801_15656)">
<path fill-rule="evenodd" clip-rule="evenodd" d="M1439.79 17.3802C1439.79 17.3765 1439.79 17.3738 1439.02 16.9065C1438.24 16.4392 1438.24 16.4401 1438.24 16.4437L1438.23 16.4582L1438.19 16.5171C1438.16 16.5705 1438.11 16.6502 1438.05 16.7552C1437.92 16.9672 1437.73 17.2824 1437.47 17.6999C1436.95 18.5349 1436.17 19.7748 1435.14 21.3942C1433.08 24.6311 1430 29.3814 1425.91 35.4295C1417.74 47.525 1405.55 64.8091 1389.51 85.5529C1357.43 127.041 1309.94 182.357 1248.3 237.673C1125.02 348.311 945.228 458.881 719.019 458.881V460.692C945.843 460.692 1126.05 349.822 1249.51 239.02C1311.24 183.616 1358.81 128.213 1390.94 86.6605C1407.01 65.8841 1419.22 48.5683 1427.41 36.4439C1431.51 30.3813 1434.6 25.6174 1436.67 22.3669C1437.71 20.7421 1438.49 19.4949 1439.01 18.6536C1439.27 18.2333 1439.46 17.9145 1439.59 17.6999C1439.66 17.5921 1439.71 17.5115 1439.74 17.4572L1439.78 17.3956L1439.79 17.3802ZM1439.7 150.634C1439.7 150.631 1439.71 150.63 1439.02 150.042C1438.33 149.455 1438.33 149.456 1438.32 149.458L1438.32 149.468L1438.28 149.51L1438.22 149.583L1438.14 149.677C1438.08 149.742 1438.01 149.819 1437.94 149.909L1437.81 150.054C1437.73 150.142 1437.65 150.239 1437.56 150.345C1437.04 150.934 1436.26 151.811 1435.23 152.956C1433.17 155.244 1430.09 158.605 1426.01 162.882C1417.83 171.437 1405.65 183.664 1389.61 198.338C1357.54 227.687 1310.05 266.824 1248.42 305.961C1125.15 384.237 945.32 462.503 719.019 462.503V464.315C945.751 464.315 1125.92 385.898 1249.39 307.49C1311.13 268.287 1358.7 229.081 1390.84 199.674C1406.91 184.97 1419.12 172.715 1427.32 164.133C1431.41 159.842 1434.51 156.469 1436.58 154.168C1437.62 153.016 1438.4 152.133 1438.92 151.538C1439.18 151.24 1439.38 151.013 1439.51 150.861C1439.57 150.785 1439.62 150.728 1439.66 150.689L1439.69 150.645L1439.7 150.634ZM1439.02 242.422C1439.6 243.115 1439.6 243.117 1439.6 243.119L1439.59 243.127L1439.55 243.158L1439.45 243.24L1439.4 243.282C1439.27 243.391 1439.07 243.553 1438.81 243.767C1438.29 244.195 1437.51 244.828 1436.47 245.654C1434.4 247.304 1431.3 249.722 1427.2 252.798C1419.01 258.95 1406.79 267.735 1390.72 278.275C1358.58 299.354 1311.01 327.454 1249.28 355.551C1125.81 411.747 945.688 467.938 719.019 467.938V466.126C945.384 466.126 1125.26 410.012 1248.53 353.903C1310.17 325.848 1357.66 297.795 1389.73 276.76C1405.76 266.242 1417.95 257.48 1426.12 251.349C1430.2 248.284 1433.28 245.876 1435.34 244.236C1436.37 243.417 1437.15 242.788 1437.66 242.366C1437.77 242.275 1437.87 242.194 1437.96 242.122C1438.08 242.027 1438.17 241.949 1438.24 241.888C1438.31 241.835 1438.36 241.794 1438.39 241.768L1438.42 241.738L1438.43 241.731C1438.43 241.731 1438.43 241.73 1438.45 241.751C1438.46 241.761 1438.47 241.775 1438.49 241.797C1438.52 241.837 1438.58 241.9 1438.66 242.003L1439.02 242.422ZM1439.4 343.772C1439.4 343.772 1439.4 343.772 1439.4 343.77C1439.4 343.768 1439.4 343.765 1439.4 343.756C1439.39 343.741 1439.38 343.71 1439.35 343.647C1439.3 343.538 1439.2 343.334 1439.02 342.953C1438.84 342.584 1438.74 342.382 1438.69 342.271C1438.66 342.219 1438.65 342.188 1438.64 342.168C1438.63 342.149 1438.63 342.142 1438.62 342.139C1438.62 342.137 1438.62 342.137 1438.62 342.137L1438.61 342.142L1438.58 342.159L1438.43 342.227C1438.31 342.287 1438.11 342.378 1437.85 342.498C1437.34 342.738 1436.56 343.096 1435.53 343.563C1433.47 344.495 1430.39 345.864 1426.31 347.607C1418.13 351.094 1405.95 356.077 1389.91 362.058C1357.83 374.02 1310.33 389.973 1248.68 405.927C1125.37 437.835 945.451 469.749 719.019 469.749V471.56C945.621 471.56 1125.7 439.623 1249.13 407.681C1310.85 391.71 1358.41 375.737 1390.54 363.755C1406.61 357.764 1418.82 352.771 1427.02 349.274C1431.11 347.525 1434.21 346.15 1436.28 345.213C1437.32 344.744 1438.1 344.383 1438.62 344.14C1438.88 344.019 1439.08 343.927 1439.21 343.865L1439.36 343.794L1439.39 343.776L1439.4 343.772ZM1439.02 423.559C1439.14 424.207 1439.17 424.383 1439.18 424.431C1439.18 424.449 1439.18 424.449 1439.18 424.449L1439.17 424.451L1439.14 424.458L1438.99 424.486C1438.86 424.511 1438.66 424.547 1438.4 424.595L1438.16 424.64L1437.86 424.696C1437.69 424.726 1437.51 424.759 1437.31 424.794C1436.95 424.861 1436.54 424.936 1436.07 425.02C1434 425.392 1430.91 425.937 1426.81 426.631C1418.62 428.02 1406.42 430.001 1390.36 432.38C1358.24 437.136 1310.7 443.478 1249 449.819C1125.6 462.502 945.569 475.183 719.019 475.183V473.372C945.502 473.372 1125.47 460.694 1248.81 448.017C1310.48 441.679 1358 435.341 1390.09 430.588C1406.14 428.212 1418.33 426.232 1426.51 424.845C1430.6 424.152 1433.68 423.608 1435.75 423.238C1436.78 423.052 1437.55 422.91 1438.07 422.814C1438.33 422.767 1438.53 422.73 1438.65 422.706L1438.8 422.679L1438.84 422.671L1438.84 422.67C1438.84 422.67 1438.85 422.67 1438.85 422.687C1438.85 422.704 1438.86 422.737 1438.87 422.801L1438.9 422.944C1438.92 423.075 1438.96 423.271 1439.02 423.559ZM1439.01 472.466C1439.01 472.466 1439.01 472.466 1439.02 473.372C1439.02 474.277 1439.02 474.277 1439.02 474.277H1439.01H1439L1438.97 474.278H1438.95H1438.91H1438.87L1438.83 474.279H1438.78L1438.72 474.28H1438.65L1438.58 474.281H1438.51L1438.43 474.282L1438.34 474.283L1438.24 474.284H1438.14L1438.04 474.285L1437.92 474.286L1437.81 474.286L1437.68 474.287L1437.55 474.288L1437.41 474.29L1437.27 474.291L1437.12 474.292L1436.97 474.293L1436.81 474.295L1436.64 474.295L1436.47 474.296L1436.29 474.298L1436.11 474.299L1435.91 474.301L1435.72 474.303L1435.52 474.304L1435.31 474.305L1435.09 474.307L1434.87 474.309L1434.64 474.311L1434.41 474.313L1434.17 474.315L1433.93 474.316L1433.68 474.318L1433.42 474.32L1433.16 474.322L1432.89 474.324L1432.62 474.325L1432.34 474.328L1432.05 474.33L1431.76 474.333L1431.46 474.334L1431.16 474.337L1430.85 474.339L1430.53 474.342L1430.21 474.344L1429.88 474.346L1429.55 474.349L1429.21 474.352L1428.86 474.354L1428.51 474.357L1428.16 474.36L1427.79 474.363L1427.42 474.365L1427.05 474.368L1426.67 474.371L1426.28 474.373L1425.89 474.377L1425.49 474.38L1425.09 474.382L1424.68 474.386L1424.26 474.389L1423.84 474.392L1423.41 474.395L1422.98 474.399L1422.54 474.402L1422.09 474.405L1421.64 474.409L1421.18 474.412L1420.72 474.416L1420.25 474.42L1419.78 474.422L1419.3 474.426L1418.81 474.43L1418.32 474.434L1417.82 474.438L1417.32 474.441L1416.81 474.445L1416.3 474.449L1415.78 474.453L1415.25 474.457L1414.72 474.461L1414.18 474.465L1413.63 474.469L1413.08 474.473L1412.53 474.478L1411.97 474.482L1411.4 474.486L1410.83 474.49L1410.25 474.495L1409.66 474.499L1409.07 474.504L1408.48 474.508L1407.88 474.513L1407.27 474.517L1406.66 474.522L1406.04 474.526L1405.41 474.531L1404.78 474.535L1404.15 474.541L1403.51 474.545L1402.86 474.551L1402.21 474.555L1401.55 474.56L1400.88 474.565L1400.21 474.571L1399.54 474.575L1398.85 474.581L1398.17 474.586L1397.47 474.591L1396.77 474.596L1396.07 474.602L1395.36 474.607L1394.64 474.612L1393.92 474.618L1393.2 474.623L1392.46 474.629L1391.73 474.634L1390.98 474.64L1390.23 474.646L1389.48 474.651L1388.72 474.657L1387.95 474.663L1387.18 474.669L1386.4 474.675L1385.62 474.68L1384.83 474.687L1384.03 474.692L1383.23 474.699L1382.42 474.705L1381.61 474.711L1380.8 474.717L1379.97 474.723L1379.14 474.729L1378.31 474.736L1377.47 474.742L1376.63 474.748L1375.78 474.755L1374.92 474.761L1374.06 474.768L1373.19 474.775L1372.32 474.781L1371.44 474.787L1370.55 474.795L1369.66 474.801L1368.77 474.808L1367.87 474.814L1366.96 474.822L1366.05 474.828L1365.13 474.835L1364.21 474.843L1363.28 474.849L1362.35 474.856L1361.41 474.863L1360.46 474.871L1359.51 474.878L1358.55 474.885L1357.59 474.892L1356.63 474.9L1355.65 474.907L1354.67 474.914L1353.69 474.921L1352.7 474.929L1351.71 474.937L1350.71 474.944L1349.7 474.951L1348.69 474.959L1347.67 474.967L1346.65 474.975L1345.62 474.982L1344.59 474.99L1343.55 474.998L1342.51 475.006L1341.46 475.014L1340.4 475.022L1339.34 475.03L1338.28 475.038L1337.21 475.046L1336.13 475.054L1335.05 475.063L1333.96 475.071L1332.87 475.079L1331.77 475.087L1330.66 475.095L1329.55 475.103L1328.44 475.112L1327.32 475.121L1326.19 475.129L1325.06 475.138L1323.93 475.146L1322.79 475.155L1321.64 475.163L1320.49 475.172L1319.33 475.181L1318.16 475.189L1317 475.198L1315.82 475.208L1314.64 475.217L1313.46 475.226L1312.27 475.234L1311.07 475.243L1309.87 475.252L1308.67 475.261L1307.46 475.271L1306.24 475.28L1305.02 475.289L1303.79 475.298L1302.56 475.307L1301.32 475.317L1300.07 475.326L1298.83 475.335L1297.57 475.345L1296.31 475.354L1295.05 475.364L1293.78 475.374L1292.5 475.383L1291.22 475.393L1289.94 475.403L1288.64 475.412L1287.35 475.422L1286.05 475.432L1284.74 475.442L1283.43 475.452L1282.11 475.462L1280.79 475.472L1279.46 475.482L1278.12 475.492L1276.79 475.502L1275.44 475.512L1274.09 475.523L1272.74 475.533L1271.38 475.543L1270.01 475.553L1268.64 475.563L1267.27 475.573L1265.89 475.584L1264.5 475.594L1263.11 475.605L1261.71 475.616L1260.31 475.626L1258.9 475.637L1257.49 475.648L1256.08 475.659L1254.65 475.669L1253.23 475.679L1251.79 475.69L1250.36 475.701L1248.91 475.712L1247.46 475.723L1246.01 475.735L1244.55 475.745L1243.09 475.756L1241.62 475.767L1240.14 475.778L1238.67 475.79L1237.18 475.801L1235.69 475.813L1234.2 475.823L1232.7 475.835L1231.19 475.846L1229.68 475.858L1228.17 475.869L1226.64 475.88L1225.12 475.892L1223.59 475.903L1222.05 475.915L1220.51 475.927L1218.97 475.938L1217.41 475.95L1215.86 475.962L1214.3 475.974L1212.73 475.985L1211.16 475.997L1209.58 476.009L1208 476.021L1206.41 476.034L1204.82 476.045L1203.22 476.057L1201.62 476.069L1200.01 476.082L1198.4 476.093L1196.78 476.106L1195.16 476.118L1193.53 476.13L1191.9 476.142L1190.26 476.155L1188.62 476.168L1186.97 476.18L1185.32 476.192L1183.66 476.205L1182 476.217L1180.33 476.23L1178.66 476.243L1176.98 476.255L1175.3 476.268L1173.61 476.281L1171.92 476.293L1170.22 476.306L1168.52 476.319L1166.81 476.332L1165.1 476.345L1163.38 476.358L1161.65 476.371L1159.93 476.384L1158.19 476.397L1156.46 476.41L1154.71 476.423L1152.97 476.437L1151.21 476.45L1149.46 476.463L1147.69 476.476L1145.92 476.49L1144.15 476.503L1142.37 476.516L1140.59 476.53L1138.8 476.543L1137.01 476.557L1135.21 476.571L1133.41 476.584L1131.6 476.598L1129.79 476.611L1127.98 476.625L1126.15 476.638L1124.33 476.653L1122.5 476.667L1120.66 476.68L1118.82 476.695L1116.97 476.708L1115.12 476.722L1113.26 476.736L1111.4 476.75L1109.54 476.764L1107.66 476.778L1105.79 476.792L1103.91 476.807L1102.02 476.821L1100.13 476.835L1098.24 476.85L1096.34 476.864L1094.43 476.879L1092.52 476.893L1090.61 476.907L1088.69 476.922L1086.76 476.936L1084.83 476.951L1082.9 476.965L1080.96 476.98L1079.02 476.994L1077.07 477.009L1075.12 477.024L1073.16 477.039L1071.19 477.053L1069.23 477.069L1067.25 477.083L1065.28 477.099L1063.29 477.113L1061.31 477.128L1059.32 477.143L1057.32 477.158L1055.32 477.174L1053.31 477.188L1051.3 477.204L1049.29 477.219L1047.26 477.234L1045.24 477.25L1043.21 477.265L1041.17 477.281L1039.14 477.296L1037.09 477.311L1035.04 477.327L1032.99 477.342L1030.93 477.358L1028.87 477.373L1026.8 477.388L1024.73 477.405L1022.65 477.42L1020.57 477.436L1018.48 477.452L1016.39 477.467L1014.29 477.484L1012.19 477.499L1010.09 477.515L1007.98 477.531L1005.86 477.547L1003.74 477.563L1001.62 477.579L999.487 477.595L997.353 477.611L995.215 477.628L993.072 477.643L990.924 477.659L988.771 477.676L986.614 477.692L984.452 477.708L982.285 477.724L980.115 477.741L977.939 477.757L975.758 477.774L973.573 477.791L971.383 477.807L969.19 477.823L966.99 477.84L964.786 477.857L962.578 477.874L960.366 477.89L958.148 477.906L955.926 477.924L953.699 477.94L951.468 477.957L949.233 477.974L946.992 477.991L944.747 478.008L942.497 478.025L940.243 478.042L937.984 478.059L935.72 478.076L933.452 478.093L931.18 478.11L928.902 478.127L926.621 478.145L924.335 478.162L922.044 478.179L919.749 478.196L917.448 478.214L915.144 478.232L912.835 478.249L910.521 478.266L908.204 478.284L905.881 478.301L903.554 478.319L901.222 478.337L898.885 478.354L896.545 478.372L894.199 478.389L891.85 478.407L889.495 478.425L887.137 478.443L884.773 478.461L882.406 478.479L880.033 478.496L877.657 478.514L875.276 478.532L872.889 478.55L870.499 478.569L868.105 478.587L865.706 478.605L863.302 478.623L860.894 478.641L858.481 478.659L856.064 478.677L853.643 478.695L851.217 478.714L848.786 478.732L846.352 478.751L843.913 478.769L841.468 478.788L839.02 478.806L836.568 478.825L834.111 478.843L831.65 478.862L829.184 478.88L826.713 478.899L824.239 478.917L821.76 478.936L819.276 478.955L816.788 478.973L814.297 478.992L811.8 479.011L809.299 479.03L806.794 479.049L804.284 479.068L801.77 479.087L799.251 479.107L796.728 479.126L794.2 479.145L791.669 479.164L789.133 479.183L786.593 479.202L784.048 479.221L781.498 479.241L778.945 479.26L776.388 479.279L773.826 479.298L771.259 479.318L768.689 479.337L766.113 479.356L763.534 479.375L760.95 479.395L758.363 479.414L755.77 479.434L753.173 479.454L750.572 479.473L747.967 479.493L745.357 479.513L742.744 479.532L740.125 479.552L737.503 479.572L734.876 479.592L732.245 479.612L729.61 479.632L726.971 479.652L724.326 479.672L721.678 479.692L719.026 479.711L719.013 477.9L721.664 477.88L724.313 477.86L726.957 477.84L729.596 477.82L732.232 477.801L734.863 477.781L737.489 477.761L740.112 477.741L742.73 477.722L745.344 477.702L747.953 477.682L750.559 477.662L753.16 477.643L755.756 477.623L758.349 477.603L760.936 477.584L763.52 477.564L766.1 477.545L768.675 477.525L771.246 477.506L773.812 477.487L776.374 477.467L778.932 477.448L781.485 477.429L784.034 477.409L786.579 477.39L789.12 477.371L791.655 477.352L794.187 477.333L796.714 477.314L799.238 477.295L801.756 477.276L804.27 477.257L806.78 477.238L809.285 477.219L811.786 477.2L814.283 477.181L816.775 477.162L819.263 477.144L821.746 477.125L824.226 477.106L826.7 477.088L829.17 477.069L831.636 477.051L834.097 477.032L836.554 477.013L839.007 476.994L841.455 476.976L843.899 476.957L846.338 476.939L848.773 476.921L851.203 476.903L853.63 476.884L856.05 476.866L858.468 476.848L860.88 476.83L863.288 476.811L865.692 476.793L868.091 476.775L870.486 476.757L872.876 476.739L875.262 476.721L877.643 476.703L880.02 476.685L882.392 476.667L884.76 476.649L887.124 476.631L889.482 476.614L891.837 476.596L894.186 476.578L896.531 476.561L898.872 476.543L901.208 476.525L903.539 476.507L905.867 476.49L908.19 476.473L910.508 476.455L912.822 476.437L915.13 476.42L917.435 476.403L919.734 476.385L922.03 476.368L924.321 476.35L926.607 476.333L928.889 476.316L931.167 476.299L933.439 476.282L935.707 476.264L937.97 476.248L940.229 476.231L942.484 476.214L944.733 476.197L946.978 476.179L949.218 476.163L951.454 476.146L953.686 476.13L955.913 476.112L958.134 476.095L960.352 476.079L962.565 476.062L964.773 476.045L966.976 476.029L969.175 476.012L971.37 475.995L973.559 475.979L975.745 475.963L977.925 475.947L980.101 475.929L982.272 475.913L984.438 475.897L986.6 475.88L988.757 475.864L990.91 475.848L993.057 475.832L995.201 475.816L997.339 475.8L999.473 475.784L1001.6 475.767L1003.73 475.752L1005.85 475.736L1007.96 475.719L1010.07 475.704L1012.18 475.688L1014.28 475.672L1016.37 475.656L1018.47 475.64L1020.55 475.624L1022.64 475.609L1024.71 475.593L1026.78 475.577L1028.85 475.562L1030.92 475.546L1032.98 475.531L1035.03 475.515L1037.08 475.5L1039.12 475.485L1041.16 475.469L1043.2 475.454L1045.23 475.438L1047.25 475.423L1049.27 475.408L1051.29 475.392L1053.3 475.377L1055.3 475.362L1057.31 475.347L1059.3 475.332L1061.29 475.317L1063.28 475.302L1065.26 475.287L1067.24 475.272L1069.21 475.257L1071.18 475.242L1073.14 475.227L1075.1 475.213L1077.06 475.198L1079 475.183L1080.95 475.169L1082.89 475.154L1084.82 475.14L1086.75 475.125L1088.67 475.111L1090.59 475.096L1092.51 475.082L1094.42 475.067L1096.32 475.053L1098.22 475.038L1100.12 475.024L1102.01 475.01L1103.89 474.996L1105.78 474.981L1107.65 474.967L1109.52 474.953L1111.39 474.939L1113.25 474.925L1115.11 474.91L1116.96 474.897L1118.8 474.883L1120.64 474.869L1122.48 474.855L1124.31 474.842L1126.14 474.827L1127.96 474.814L1129.78 474.8L1131.59 474.786L1133.4 474.773L1135.2 474.759L1137 474.746L1138.79 474.732L1140.58 474.718L1142.36 474.705L1144.14 474.691L1145.91 474.679L1147.68 474.665L1149.44 474.651L1151.2 474.639L1152.95 474.625L1154.7 474.612L1156.44 474.599L1158.18 474.585L1159.91 474.573L1161.64 474.56L1163.36 474.546L1165.08 474.534L1166.79 474.521L1168.5 474.507L1170.21 474.495L1171.9 474.482L1173.6 474.469L1175.28 474.457L1176.97 474.444L1178.65 474.431L1180.32 474.419L1181.99 474.406L1183.65 474.393L1185.31 474.381L1186.96 474.369L1188.61 474.356L1190.25 474.344L1191.89 474.332L1193.52 474.319L1195.15 474.306L1196.77 474.295L1198.39 474.282L1200 474.27L1201.61 474.258L1203.21 474.246L1204.81 474.234L1206.4 474.222L1207.99 474.209L1209.57 474.198L1211.14 474.186L1212.72 474.174L1214.28 474.162L1215.84 474.151L1217.4 474.139L1218.95 474.127L1220.5 474.115L1222.04 474.104L1223.57 474.092L1225.11 474.081L1226.63 474.069L1228.15 474.057L1229.67 474.046L1231.18 474.035L1232.68 474.024L1234.18 474.012L1235.68 474.001L1237.17 473.989L1238.65 473.979L1240.13 473.968L1241.6 473.956L1243.07 473.945L1244.54 473.934L1246 473.923L1247.45 473.912L1248.9 473.901L1250.34 473.89L1251.78 473.879L1253.21 473.868L1254.64 473.858L1256.06 473.847L1257.48 473.836L1258.89 473.825L1260.3 473.815L1261.7 473.805L1263.1 473.794L1264.49 473.784L1265.87 473.773L1267.25 473.762L1268.63 473.752L1270 473.742L1271.36 473.731L1272.72 473.721L1274.08 473.711L1275.43 473.7L1276.77 473.69L1278.11 473.681L1279.44 473.671L1280.77 473.661L1282.1 473.651L1283.41 473.641L1284.73 473.631L1286.03 473.621L1287.33 473.611L1288.63 473.601L1289.92 473.592L1291.21 473.582L1292.49 473.572L1293.76 473.563L1295.03 473.553L1296.3 473.543L1297.56 473.534L1298.81 473.525L1300.06 473.515L1301.3 473.506L1302.54 473.496L1303.77 473.487L1305 473.478L1306.22 473.469L1307.44 473.46L1308.65 473.45L1309.86 473.441L1311.06 473.431L1312.26 473.422L1313.45 473.414L1314.63 473.405L1315.81 473.396L1316.98 473.387L1318.15 473.378L1319.31 473.37L1320.47 473.361L1321.63 473.352L1322.77 473.344L1323.91 473.335L1325.05 473.326L1326.18 473.317L1327.31 473.309L1328.43 473.301L1329.54 473.292L1330.65 473.284L1331.75 473.276L1332.85 473.268L1333.94 473.259L1335.03 473.251L1336.11 473.243L1337.19 473.235L1338.26 473.227L1339.33 473.219L1340.39 473.21L1341.44 473.202L1342.49 473.194L1343.54 473.187L1344.58 473.179L1345.61 473.172L1346.64 473.163L1347.66 473.155L1348.68 473.148L1349.69 473.141L1350.69 473.133L1351.69 473.125L1352.69 473.118L1353.68 473.11L1354.66 473.103L1355.64 473.095L1356.61 473.088L1357.58 473.081L1358.54 473.074L1359.5 473.066L1360.45 473.059L1361.39 473.052L1362.33 473.045L1363.27 473.038L1364.19 473.031L1365.12 473.024L1366.04 473.017L1366.95 473.01L1367.85 473.003L1368.75 472.997L1369.65 472.99L1370.54 472.983L1371.42 472.976L1372.3 472.97L1373.18 472.963L1374.04 472.957L1374.91 472.95L1375.76 472.943L1376.61 472.937L1377.46 472.931L1378.3 472.924L1379.13 472.918L1379.96 472.912L1380.78 472.905L1381.6 472.9L1382.41 472.893L1383.22 472.887L1384.02 472.881L1384.81 472.875L1385.6 472.869L1386.39 472.864L1387.16 472.857L1387.94 472.852L1388.7 472.845L1389.46 472.84L1390.22 472.835L1390.97 472.829L1391.71 472.823L1392.45 472.817L1393.18 472.812L1393.91 472.807L1394.63 472.801L1395.35 472.796L1396.06 472.79L1396.76 472.785L1397.46 472.779L1398.15 472.775L1398.84 472.769L1399.52 472.764L1400.2 472.759L1400.87 472.754L1401.53 472.749L1402.19 472.744L1402.84 472.74L1403.49 472.734L1404.13 472.73L1404.77 472.725L1405.4 472.72L1406.02 472.715L1406.64 472.711L1407.26 472.706L1407.86 472.702L1408.47 472.697L1409.06 472.692L1409.65 472.688L1410.24 472.683L1410.81 472.679L1411.39 472.674L1411.95 472.671L1412.51 472.666L1413.07 472.662L1413.62 472.658L1414.16 472.653L1414.7 472.65L1415.23 472.645L1415.76 472.642L1416.28 472.638L1416.8 472.634L1417.31 472.63L1417.81 472.626L1418.31 472.623L1418.8 472.619L1419.29 472.615L1419.77 472.612L1420.24 472.608L1420.71 472.605L1421.17 472.601L1421.63 472.597L1422.08 472.594L1422.52 472.591L1422.96 472.587L1423.4 472.584L1423.82 472.581L1424.25 472.577L1424.66 472.575L1425.07 472.571L1425.48 472.568L1425.87 472.566L1426.27 472.562L1426.65 472.559L1427.03 472.557L1427.41 472.554L1427.78 472.551L1428.14 472.548L1428.5 472.546L1428.85 472.543L1429.2 472.54L1429.53 472.538L1429.87 472.535L1430.2 472.533L1430.52 472.53L1430.83 472.528L1431.14 472.526L1431.45 472.523L1431.75 472.521L1432.04 472.519L1432.32 472.517L1432.6 472.515L1432.88 472.512L1433.15 472.51L1433.41 472.509L1433.67 472.507L1433.92 472.505L1434.16 472.503L1434.4 472.501L1434.63 472.5L1434.86 472.498L1435.08 472.496L1435.29 472.494L1435.5 472.492L1435.7 472.491L1435.9 472.49L1436.09 472.489L1436.28 472.487L1436.46 472.485L1436.63 472.484L1436.79 472.483L1436.96 472.481L1437.11 472.48L1437.26 472.48L1437.4 472.479L1437.54 472.477L1437.67 472.476L1437.79 472.475L1437.91 472.474L1438.02 472.473H1438.13L1438.23 472.472L1438.32 472.471L1438.41 472.471L1438.49 472.47H1438.57L1438.64 472.469H1438.7L1438.76 472.468H1438.81L1438.86 472.467H1438.9H1438.93H1438.96L1438.98 472.466H1439H1439.01ZM1439.02 716.095C1439.6 715.402 1439.6 715.401 1439.6 715.4L1439.59 715.392L1439.55 715.36L1439.54 715.352L1439.46 715.286L1439.4 715.236L1439.29 715.143L1439.16 715.039C1439.06 714.957 1438.95 714.861 1438.81 714.75C1438.29 714.323 1437.51 713.69 1436.47 712.865C1434.4 711.214 1431.3 708.796 1427.2 705.72C1419.01 699.567 1406.79 690.782 1390.72 680.243C1358.58 659.163 1311.01 631.064 1249.28 602.966C1125.81 546.77 945.688 490.58 719.019 490.58V492.391C945.384 492.391 1125.26 548.505 1248.53 604.614C1310.17 632.67 1357.66 660.723 1389.73 681.757C1405.76 692.275 1417.95 701.037 1426.12 707.169C1430.2 710.234 1433.28 712.642 1435.34 714.281C1436.37 715.102 1437.15 715.729 1437.66 716.151C1437.92 716.363 1438.11 716.523 1438.24 716.63C1438.29 716.672 1438.34 716.707 1438.37 716.732L1438.39 716.749L1438.42 716.779L1438.43 716.786C1438.43 716.786 1438.43 716.787 1438.48 716.736C1438.54 716.666 1438.68 716.497 1439.02 716.095ZM1439.4 613.84C1439.41 613.841 1439.41 613.842 1439.02 614.659C1438.63 615.475 1438.63 615.475 1438.62 615.475L1438.61 615.47L1438.58 615.454L1438.43 615.385C1438.31 615.324 1438.11 615.234 1437.85 615.113C1437.64 615.014 1437.39 614.897 1437.09 614.759C1436.91 614.675 1436.71 614.583 1436.49 614.486C1436.2 614.353 1435.88 614.208 1435.53 614.05C1433.47 613.117 1430.39 611.748 1426.31 610.004C1418.13 606.518 1405.95 601.535 1389.91 595.554C1357.83 583.592 1310.33 567.639 1248.68 551.684C1125.37 519.776 945.451 487.863 719.019 487.863V486.051C945.621 486.051 1125.7 517.988 1249.13 549.931C1310.85 565.902 1358.41 581.875 1390.54 593.857C1406.61 599.848 1418.82 604.841 1427.02 608.339C1431.11 610.087 1434.21 611.461 1436.28 612.4C1437.32 612.868 1438.1 613.228 1438.62 613.471C1438.77 613.54 1438.89 613.599 1439 613.649C1439.08 613.687 1439.15 613.72 1439.21 613.747L1439.36 613.817L1439.39 613.835L1439.4 613.84ZM1439.02 533.147C1439.19 532.258 1439.18 532.257 1439.18 532.257L1439.17 532.255L1439.14 532.248L1438.99 532.22C1438.86 532.196 1438.66 532.159 1438.4 532.111C1437.88 532.015 1437.1 531.872 1436.07 531.686C1434 531.314 1430.91 530.769 1426.81 530.075C1418.62 528.687 1406.42 526.705 1390.36 524.326C1358.24 519.57 1310.7 513.228 1249 506.887C1125.6 494.204 945.569 481.523 719.019 481.523V483.334C945.502 483.334 1125.47 496.012 1248.81 508.689C1310.48 515.027 1358 521.365 1390.09 526.118C1406.14 528.494 1418.33 530.475 1426.51 531.861C1430.6 532.554 1433.68 533.098 1435.75 533.468C1436.37 533.581 1436.9 533.677 1437.34 533.756C1437.62 533.809 1437.87 533.854 1438.07 533.892C1438.33 533.94 1438.53 533.977 1438.65 534L1438.8 534.028L1438.84 534.034L1438.84 534.036C1438.85 534.036 1438.85 534.037 1439.02 533.147Z" fill="url(#paint0_linear_801_15656)"/>
<path fill-rule="evenodd" clip-rule="evenodd" d="M0.00316506 17.3802C0.000900917 17.3765 -0.000276374 17.3738 0.775329 16.9065C1.55103 16.4392 1.55183 16.4401 1.55374 16.4437L1.56252 16.4582L1.59838 16.5171C1.63053 16.5705 1.67881 16.6502 1.74338 16.7552C1.87253 16.9672 2.06643 17.2824 2.32499 17.6999C2.84194 18.5349 3.6171 19.7748 4.64801 21.3942C6.70974 24.6311 9.7941 29.3814 13.8816 35.4295C22.0567 47.525 34.2434 64.8091 50.2837 85.5529C82.3651 127.041 129.856 182.357 191.491 237.673C314.771 348.311 494.564 458.881 720.773 458.881V460.692C493.949 460.692 313.743 349.822 190.282 239.02C128.547 183.616 80.9825 128.213 48.8508 86.6605C32.7845 65.8841 20.5751 48.5683 12.3809 36.4439C8.28386 30.3813 5.19032 25.6174 3.12017 22.3669C2.08509 20.7421 1.30595 19.4949 0.785016 18.6536C0.524639 18.2333 0.328747 17.9145 0.197698 17.6999C0.132219 17.5921 0.0829505 17.5115 0.0499846 17.4572L0.0126727 17.3956L0.00316506 17.3802ZM0.0893832 150.634C0.0871191 150.631 0.0858516 150.63 0.775329 150.042C1.46472 149.455 1.46544 149.456 1.46725 149.458L1.47594 149.468L1.51153 149.51L1.57447 149.583L1.65598 149.677C1.71105 149.742 1.77789 149.819 1.85659 149.909L1.98238 150.054C2.05873 150.142 2.14341 150.239 2.23642 150.345C2.75264 150.934 3.52707 151.811 4.55717 152.956C6.61736 155.244 9.70019 158.605 13.7861 162.882C21.958 171.437 34.1415 183.664 50.1785 198.338C82.2532 227.687 129.739 266.824 191.372 305.961C314.639 384.237 494.472 462.503 720.773 462.503V464.315C494.041 464.315 313.875 385.898 190.401 307.49C128.664 268.287 81.0943 229.081 48.9558 199.674C32.8863 184.97 20.6738 172.715 12.4763 164.133C8.3776 159.842 5.2826 156.469 3.21091 154.168C2.17511 153.016 1.39506 152.133 0.8735 151.538C0.61258 151.24 0.416416 151.013 0.285005 150.861C0.219345 150.785 0.169896 150.728 0.136659 150.689L0.0990738 150.645L0.0893832 150.634ZM0.775329 242.422C0.192267 243.115 0.193534 243.117 0.195889 243.119L0.205579 243.127L0.243343 243.158L0.341246 243.24L0.392052 243.282C0.523644 243.391 0.720082 243.553 0.981188 243.767C1.50321 244.195 2.28361 244.828 3.31996 245.654C5.39237 247.304 8.48826 249.722 12.5877 252.798C20.7866 258.95 33.0002 267.735 49.0705 278.275C81.2108 299.354 128.779 327.454 190.512 355.551C313.977 411.747 494.104 467.938 720.773 467.938V466.126C494.408 466.126 314.537 410.012 191.262 353.903C129.624 325.848 82.1367 297.795 50.0638 276.76C34.0275 266.242 21.8451 257.48 13.6748 251.349C9.5896 248.284 6.5075 245.876 4.44812 244.236C3.41848 243.417 2.64452 242.788 2.12875 242.366C2.01807 242.275 1.91926 242.194 1.83241 242.122C1.71684 242.027 1.62238 241.949 1.54903 241.888C1.48472 241.835 1.43663 241.794 1.40494 241.768L1.36943 241.738L1.36084 241.731C1.36084 241.731 1.35984 241.73 1.34191 241.751C1.3334 241.761 1.3209 241.775 1.30251 241.797C1.26855 241.837 1.21467 241.9 1.12863 242.003L0.775329 242.422ZM0.388069 343.772C0.388069 343.772 0.387526 343.772 0.388069 343.77C0.388612 343.768 0.390059 343.765 0.39341 343.756C0.400111 343.741 0.414515 343.71 0.444583 343.647C0.495843 343.538 0.592839 343.334 0.775329 342.953C0.951935 342.584 1.04884 342.382 1.10227 342.271C1.12718 342.219 1.14258 342.188 1.15227 342.168C1.16159 342.149 1.16539 342.142 1.16711 342.139C1.1682 342.137 1.16866 342.137 1.16866 342.137L1.17725 342.142L1.21285 342.159L1.35713 342.227C1.48573 342.287 1.67917 342.378 1.93719 342.498C2.45323 342.738 3.22757 343.096 4.25757 343.563C6.31758 344.495 9.4005 345.864 13.4866 347.607C21.6588 351.094 33.8439 356.077 49.8836 362.058C81.9629 374.02 129.461 389.973 191.114 405.927C314.419 437.835 494.341 469.749 720.773 469.749V471.56C494.171 471.56 314.095 439.623 190.66 407.681C128.942 391.71 81.3845 375.737 49.2508 363.755C33.1839 357.764 20.9729 352.771 12.7758 349.274C8.67737 347.525 5.58238 346.15 3.51051 345.213C2.47462 344.744 1.69447 344.383 1.17263 344.14C0.911805 344.019 0.715465 343.927 0.583964 343.865L0.435434 343.794L0.397759 343.776L0.388069 343.772ZM0.775329 423.559C0.652341 424.207 0.619374 424.383 0.611495 424.431C0.608506 424.449 0.609591 424.449 0.609591 424.449L0.619009 424.451L0.656141 424.458L0.803675 424.486C0.934456 424.511 1.13007 424.547 1.39026 424.595L1.63407 424.64L1.9342 424.696C2.09985 424.726 2.28108 424.759 2.4777 424.794C2.84068 424.861 3.25611 424.936 3.72379 425.02C5.79258 425.392 8.88467 425.937 12.9799 426.631C21.1706 428.02 33.3749 430.001 49.4344 432.38C81.5538 437.136 129.095 443.478 190.794 449.819C314.193 462.502 494.223 475.183 720.773 475.183V473.372C494.29 473.372 314.322 460.694 190.98 448.017C129.308 441.679 81.7938 435.341 49.6998 430.588C33.6529 428.212 21.4611 426.232 13.2825 424.845C9.1932 424.152 6.1072 423.608 4.04429 423.238C3.01284 423.052 2.23705 422.91 1.71965 422.814C1.46091 422.767 1.26674 422.73 1.13732 422.706L0.992055 422.679L0.956001 422.671L0.947126 422.67C0.947126 422.67 0.94613 422.67 0.942416 422.687C0.938884 422.704 0.932373 422.737 0.919965 422.801L0.892429 422.944C0.867252 423.075 0.830031 423.271 0.775329 423.559ZM0.785199 472.466C0.783116 472.466 0.782121 472.466 0.775329 473.372C0.768446 474.277 0.769533 474.277 0.771525 474.277H0.78067H0.795885L0.81726 474.278H0.844791H0.878299H0.917964L0.963699 474.279H1.0155L1.07337 474.28H1.13732L1.20732 474.281H1.2835L1.36563 474.282L1.45385 474.283L1.54812 474.284H1.64848L1.75479 474.285L1.86718 474.286L1.98565 474.286L2.11027 474.287L2.24078 474.288L2.37734 474.29L2.5199 474.291L2.66851 474.292L2.8231 474.293L2.98387 474.295L3.1505 474.295L3.32321 474.296L3.5018 474.298L3.68647 474.299L3.87721 474.301L4.07391 474.303L4.2765 474.304L4.48517 474.305L4.69981 474.307L4.92042 474.309L5.14703 474.311L5.37959 474.313L5.61814 474.315L5.86267 474.316L6.11309 474.318L6.36957 474.32L6.63194 474.322L6.90029 474.324L7.17452 474.325L7.45473 474.328L7.74092 474.33L8.033 474.333L8.33105 474.334L8.63499 474.337L8.94489 474.339L9.26067 474.342L9.58236 474.344L9.91003 474.346L10.2436 474.349L10.583 474.352L10.9284 474.354L11.2797 474.357L11.6368 474.36L11.9999 474.363L12.3689 474.365L12.7437 474.368L13.1244 474.371L13.511 474.373L13.9034 474.377L14.3018 474.38L14.706 474.382L15.1161 474.386L15.5321 474.389L15.9538 474.392L16.3815 474.395L16.8149 474.399L17.2543 474.402L17.6995 474.405L18.1505 474.409L18.6074 474.412L19.07 474.416L19.5386 474.42L20.0129 474.422L20.4931 474.426L20.9791 474.43L21.4708 474.434L21.9685 474.438L22.4719 474.441L22.9811 474.445L23.4962 474.449L24.0169 474.453L24.5435 474.457L25.076 474.461L25.6141 474.465L26.1581 474.469L26.7078 474.473L27.2633 474.478L27.8246 474.482L28.3917 474.486L28.9645 474.49L29.543 474.495L30.1274 474.499L30.7174 474.504L31.3132 474.508L31.9149 474.513L32.5221 474.517L33.1352 474.522L33.754 474.526L34.3784 474.531L35.0088 474.535L35.6447 474.541L36.2864 474.545L36.9338 474.551L37.5869 474.555L38.2457 474.56L38.9103 474.565L39.5804 474.571L40.2564 474.575L40.938 474.581L41.6253 474.586L42.3183 474.591L43.0171 474.596L43.7214 474.602L44.4314 474.607L45.1471 474.612L45.8684 474.618L46.5955 474.623L47.3283 474.629L48.0666 474.634L48.8106 474.64L49.5603 474.646L50.3157 474.651L51.0766 474.657L51.8432 474.663L52.6155 474.669L53.3933 474.675L54.1768 474.68L54.9659 474.687L55.7607 474.692L56.5611 474.699L57.3671 474.705L58.1787 474.711L58.9958 474.717L59.8186 474.723L60.6471 474.729L61.4811 474.736L62.3207 474.742L63.1659 474.748L64.0166 474.755L64.873 474.761L65.7349 474.768L66.6024 474.775L67.4756 474.781L68.3542 474.787L69.2384 474.795L70.1282 474.801L71.0235 474.808L71.9244 474.814L72.8308 474.822L73.7428 474.828L74.6604 474.835L75.5834 474.843L76.512 474.849L77.4462 474.856L78.3858 474.863L79.331 474.871L80.2817 474.878L81.2379 474.885L82.1996 474.892L83.1668 474.9L84.1396 474.907L85.1179 474.914L86.1016 474.921L87.0909 474.929L88.0856 474.937L89.0858 474.944L90.0916 474.951L91.103 474.959L92.1192 474.967L93.1416 474.975L94.1696 474.982L95.202 474.99L96.2408 474.998L97.285 475.006L98.3347 475.014L99.3889 475.022L100.449 475.03L101.515 475.038L102.587 475.046L103.664 475.054L104.746 475.063L105.833 475.071L106.926 475.079L108.024 475.087L109.128 475.095L110.238 475.103L111.352 475.112L112.472 475.121L113.598 475.129L114.729 475.138L115.865 475.146L117.007 475.155L118.153 475.163L119.306 475.172L120.464 475.181L121.627 475.189L122.796 475.198L123.969 475.208L125.148 475.217L126.333 475.226L127.523 475.234L128.719 475.243L129.919 475.252L131.126 475.261L132.337 475.271L133.554 475.28L134.776 475.289L136.004 475.298L137.236 475.307L138.474 475.317L139.718 475.326L140.967 475.335L142.221 475.345L143.48 475.354L144.745 475.364L146.015 475.374L147.29 475.383L148.571 475.393L149.857 475.403L151.148 475.412L152.445 475.422L153.746 475.432L155.053 475.442L156.366 475.452L157.683 475.462L159.006 475.472L160.334 475.482L161.668 475.492L163.007 475.502L164.351 475.512L165.7 475.523L167.054 475.533L168.414 475.543L169.779 475.553L171.15 475.563L172.524 475.573L173.905 475.584L175.291 475.594L176.682 475.605L178.079 475.616L179.48 475.626L180.887 475.637L182.299 475.648L183.716 475.659L185.138 475.669L186.566 475.679L187.998 475.69L189.437 475.701L190.88 475.712L192.328 475.723L193.782 475.735L195.241 475.745L196.704 475.756L198.173 475.767L199.648 475.778L201.127 475.79L202.611 475.801L204.101 475.813L205.596 475.823L207.096 475.835L208.601 475.846L210.112 475.858L211.627 475.869L213.148 475.88L214.673 475.892L216.204 475.903L217.739 475.915L219.281 475.927L220.827 475.938L222.378 475.95L223.935 475.962L225.496 475.974L227.063 475.985L228.634 475.997L230.211 476.009L231.793 476.021L233.38 476.034L234.972 476.045L236.569 476.057L238.171 476.069L239.778 476.082L241.39 476.093L243.008 476.106L244.631 476.118L246.258 476.13L247.89 476.142L249.529 476.155L251.171 476.168L252.819 476.18L254.472 476.192L256.129 476.205L257.792 476.217L259.46 476.23L261.133 476.243L262.811 476.255L264.494 476.268L266.182 476.281L267.875 476.293L269.573 476.306L271.275 476.319L272.983 476.332L274.696 476.345L276.414 476.358L278.138 476.371L279.866 476.384L281.598 476.397L283.336 476.41L285.078 476.423L286.826 476.437L288.58 476.45L290.337 476.463L292.1 476.476L293.868 476.49L295.64 476.503L297.418 476.516L299.2 476.53L300.988 476.543L302.78 476.557L304.577 476.571L306.38 476.584L308.187 476.598L309.999 476.611L311.816 476.625L313.638 476.638L315.465 476.653L317.296 476.667L319.133 476.68L320.975 476.695L322.822 476.708L324.673 476.722L326.53 476.736L328.391 476.75L330.256 476.764L332.127 476.778L334.003 476.792L335.884 476.807L337.77 476.821L339.66 476.835L341.555 476.85L343.455 476.864L345.36 476.879L347.27 476.893L349.185 476.907L351.105 476.922L353.029 476.936L354.958 476.951L356.892 476.965L358.831 476.98L360.774 476.994L362.723 477.009L364.677 477.024L366.635 477.039L368.597 477.053L370.565 477.069L372.538 477.083L374.515 477.099L376.497 477.113L378.484 477.128L380.476 477.143L382.473 477.158L384.474 477.174L386.48 477.188L388.491 477.204L390.507 477.219L392.527 477.234L394.553 477.25L396.582 477.265L398.617 477.281L400.657 477.296L402.701 477.311L404.75 477.327L406.803 477.342L408.862 477.358L410.925 477.373L412.994 477.388L415.066 477.405L417.143 477.42L419.225 477.436L421.312 477.452L423.404 477.467L425.5 477.484L427.601 477.499L429.707 477.515L431.817 477.531L433.932 477.547L436.052 477.563L438.176 477.579L440.305 477.595L442.439 477.611L444.577 477.628L446.72 477.643L448.868 477.659L451.021 477.676L453.178 477.692L455.34 477.708L457.507 477.724L459.677 477.741L461.853 477.757L464.034 477.774L466.219 477.791L468.409 477.807L470.602 477.823L472.802 477.84L475.006 477.857L477.214 477.874L479.426 477.89L481.644 477.906L483.866 477.924L486.093 477.94L488.324 477.957L490.559 477.974L492.8 477.991L495.045 478.008L497.295 478.025L499.549 478.042L501.808 478.059L504.072 478.076L506.34 478.093L508.612 478.11L510.89 478.127L513.171 478.145L515.457 478.162L517.748 478.179L520.043 478.196L522.344 478.214L524.648 478.232L526.957 478.249L529.271 478.266L531.588 478.284L533.911 478.301L536.238 478.319L538.57 478.337L540.907 478.354L543.247 478.372L545.593 478.389L547.942 478.407L550.297 478.425L552.655 478.443L555.019 478.461L557.386 478.479L559.759 478.496L562.135 478.514L564.516 478.532L566.903 478.55L569.293 478.569L571.687 478.587L574.086 478.605L576.49 478.623L578.898 478.641L581.311 478.659L583.728 478.677L586.149 478.695L588.575 478.714L591.006 478.732L593.44 478.751L595.879 478.769L598.324 478.788L600.772 478.806L603.224 478.825L605.681 478.843L608.142 478.862L610.608 478.88L613.079 478.899L615.553 478.917L618.032 478.936L620.516 478.955L623.004 478.973L625.495 478.992L627.992 479.011L630.493 479.03L632.998 479.049L635.508 479.068L638.022 479.087L640.541 479.107L643.064 479.126L645.592 479.145L648.123 479.164L650.659 479.183L653.199 479.202L655.744 479.221L658.294 479.241L660.847 479.26L663.404 479.279L665.966 479.298L668.533 479.318L671.103 479.337L673.679 479.356L676.258 479.375L678.842 479.395L681.429 479.414L684.022 479.434L686.619 479.454L689.22 479.473L691.825 479.493L694.435 479.513L697.048 479.532L699.667 479.552L702.289 479.572L704.916 479.592L707.547 479.612L710.182 479.632L712.821 479.652L715.466 479.672L718.114 479.692L720.766 479.711L720.779 477.9L718.128 477.88L715.479 477.86L712.835 477.84L710.196 477.82L707.56 477.801L704.929 477.781L702.303 477.761L699.68 477.741L697.062 477.722L694.448 477.702L691.839 477.682L689.233 477.662L686.632 477.643L684.036 477.623L681.443 477.603L678.856 477.584L676.272 477.564L673.692 477.545L671.117 477.525L668.546 477.506L665.98 477.487L663.418 477.467L660.86 477.448L658.307 477.429L655.758 477.409L653.213 477.39L650.672 477.371L648.137 477.352L645.605 477.333L643.078 477.314L640.554 477.295L638.036 477.276L635.522 477.257L633.012 477.238L630.507 477.219L628.006 477.2L625.509 477.181L623.017 477.162L620.529 477.144L618.046 477.125L615.566 477.106L613.092 477.088L610.622 477.069L608.156 477.051L605.695 477.032L603.238 477.013L600.785 476.994L598.337 476.976L595.893 476.957L593.454 476.939L591.019 476.921L588.589 476.903L586.162 476.884L583.742 476.866L581.324 476.848L578.912 476.83L576.504 476.811L574.1 476.793L571.701 476.775L569.306 476.757L566.916 476.739L564.53 476.721L562.149 476.703L559.772 476.685L557.4 476.667L555.032 476.649L552.668 476.631L550.31 476.614L547.955 476.596L545.606 476.578L543.26 476.561L540.92 476.543L538.584 476.525L536.253 476.507L533.925 476.49L531.602 476.473L529.284 476.455L526.97 476.437L524.662 476.42L522.357 476.403L520.058 476.385L517.762 476.368L515.471 476.35L513.185 476.333L510.903 476.316L508.625 476.299L506.353 476.282L504.085 476.264L501.822 476.248L499.563 476.231L497.308 476.214L495.059 476.197L492.814 476.179L490.574 476.163L488.338 476.146L486.106 476.13L483.879 476.112L481.658 476.095L479.44 476.079L477.227 476.062L475.019 476.045L472.816 476.029L470.617 476.012L468.422 475.995L466.233 475.979L464.047 475.963L461.867 475.947L459.691 475.929L457.52 475.913L455.354 475.897L453.192 475.88L451.035 475.864L448.882 475.848L446.735 475.832L444.591 475.816L442.453 475.8L440.319 475.784L438.19 475.767L436.065 475.752L433.946 475.736L431.83 475.719L429.72 475.704L427.614 475.688L425.513 475.672L423.418 475.656L421.326 475.64L419.239 475.624L417.157 475.609L415.079 475.593L413.007 475.577L410.939 475.562L408.875 475.546L406.817 475.531L404.764 475.515L402.714 475.5L400.67 475.485L398.631 475.469L396.596 475.454L394.566 475.438L392.541 475.423L390.521 475.408L388.505 475.392L386.494 475.377L384.488 475.362L382.486 475.347L380.489 475.332L378.498 475.317L376.511 475.302L374.529 475.287L372.551 475.272L370.579 475.257L368.611 475.242L366.648 475.227L364.69 475.213L362.737 475.198L360.788 475.183L358.844 475.169L356.905 475.154L354.972 475.14L353.043 475.125L351.118 475.111L349.198 475.096L347.284 475.082L345.374 475.067L343.469 475.053L341.569 475.038L339.673 475.024L337.783 475.01L335.898 474.996L334.017 474.981L332.141 474.967L330.27 474.953L328.404 474.939L326.543 474.925L324.686 474.91L322.835 474.897L320.989 474.883L319.147 474.869L317.311 474.855L315.479 474.842L313.652 474.827L311.83 474.814L310.013 474.8L308.201 474.786L306.393 474.773L304.591 474.759L302.794 474.746L301.002 474.732L299.214 474.718L297.432 474.705L295.654 474.691L293.882 474.679L292.114 474.665L290.351 474.651L288.593 474.639L286.84 474.625L285.092 474.612L283.35 474.599L281.612 474.585L279.879 474.573L278.151 474.56L276.428 474.546L274.71 474.534L272.997 474.521L271.289 474.507L269.586 474.495L267.888 474.482L266.196 474.469L264.507 474.457L262.825 474.444L261.146 474.431L259.474 474.419L257.806 474.406L256.143 474.393L254.485 474.381L252.833 474.369L251.185 474.356L249.542 474.344L247.905 474.332L246.272 474.319L244.645 474.306L243.022 474.295L241.404 474.282L239.792 474.27L238.185 474.258L236.582 474.246L234.986 474.234L233.394 474.222L231.807 474.209L230.225 474.198L228.648 474.186L227.077 474.174L225.51 474.162L223.948 474.151L222.392 474.139L220.84 474.127L219.294 474.115L217.754 474.104L216.218 474.092L214.686 474.081L213.161 474.069L211.641 474.057L210.125 474.046L208.615 474.035L207.11 474.024L205.61 474.012L204.115 474.001L202.625 473.989L201.14 473.979L199.661 473.968L198.187 473.956L196.718 473.945L195.255 473.934L193.795 473.923L192.342 473.912L190.894 473.901L189.45 473.89L188.013 473.879L186.58 473.868L185.152 473.858L183.73 473.847L182.313 473.836L180.901 473.825L179.494 473.815L178.092 473.805L176.696 473.794L175.305 473.784L173.919 473.773L172.538 473.762L171.163 473.752L169.793 473.742L168.428 473.731L167.068 473.721L165.714 473.711L164.364 473.7L163.02 473.69L161.682 473.681L160.349 473.671L159.02 473.661L157.697 473.651L156.379 473.641L155.067 473.631L153.76 473.621L152.459 473.611L151.162 473.601L149.87 473.592L148.584 473.582L147.304 473.572L146.028 473.563L144.759 473.553L143.493 473.543L142.235 473.534L140.98 473.525L139.731 473.515L138.488 473.506L137.25 473.496L136.017 473.487L134.79 473.478L133.567 473.469L132.351 473.46L131.139 473.45L129.933 473.441L128.732 473.431L127.537 473.422L126.347 473.414L125.162 473.405L123.983 473.396L122.809 473.387L121.641 473.378L120.477 473.37L119.32 473.361L118.167 473.352L117.02 473.344L115.878 473.335L114.742 473.326L113.611 473.317L112.486 473.309L111.366 473.301L110.251 473.292L109.142 473.284L108.038 473.276L106.939 473.268L105.847 473.259L104.759 473.251L103.677 473.243L102.6 473.235L101.529 473.227L100.463 473.219L99.4025 473.21L98.3483 473.202L97.2986 473.194L96.2544 473.187L95.2156 473.179L94.1832 473.172L93.1552 473.163L92.1327 473.155L91.1166 473.148L90.1053 473.141L89.0995 473.133L88.0993 473.125L87.1045 473.118L86.1153 473.11L85.1316 473.103L84.1533 473.095L83.1806 473.088L82.2133 473.081L81.2515 473.074L80.2953 473.066L79.3446 473.059L78.3995 473.052L77.4598 473.045L76.5256 473.038L75.5971 473.031L74.674 473.024L73.7565 473.017L72.8445 473.01L71.938 473.003L71.0372 472.997L70.1418 472.99L69.252 472.983L68.3679 472.976L67.4892 472.97L66.6161 472.963L65.7486 472.957L64.8867 472.95L64.0303 472.943L63.1795 472.937L62.3344 472.931L61.4947 472.924L60.6607 472.918L59.8324 472.912L59.0096 472.905L58.1923 472.9L57.3807 472.893L56.5747 472.887L55.7744 472.881L54.9797 472.875L54.1905 472.869L53.4069 472.864L52.6292 472.857L51.8569 472.852L51.0903 472.845L50.3293 472.84L49.574 472.835L48.8243 472.829L48.0802 472.823L47.3419 472.817L46.6092 472.812L45.8822 472.807L45.1607 472.801L44.4451 472.796L43.7351 472.79L43.0307 472.785L42.332 472.779L41.639 472.775L40.9517 472.769L40.27 472.764L39.5941 472.759L38.9239 472.754L38.2594 472.749L37.6006 472.744L36.9474 472.74L36.3001 472.734L35.6583 472.73L35.0224 472.725L34.3922 472.72L33.7677 472.715L33.1488 472.711L32.5358 472.706L31.9285 472.702L31.3269 472.697L30.7311 472.692L30.141 472.688L29.5567 472.683L28.9781 472.679L28.4053 472.674L27.8382 472.671L27.277 472.666L26.7215 472.662L26.1717 472.658L25.6278 472.653L25.0896 472.65L24.5571 472.645L24.0306 472.642L23.5097 472.638L22.9948 472.634L22.4855 472.63L21.9822 472.626L21.4845 472.623L20.9927 472.619L20.5068 472.615L20.0266 472.612L19.5522 472.608L19.0837 472.605L18.621 472.601L18.1642 472.597L17.7132 472.594L17.2679 472.591L16.8286 472.587L16.3952 472.584L15.9674 472.581L15.5457 472.577L15.1298 472.575L14.7197 472.571L14.3154 472.568L13.9171 472.566L13.5247 472.562L13.1381 472.559L12.7573 472.557L12.3826 472.554L12.0136 472.551L11.6505 472.548L11.2933 472.546L10.9421 472.543L10.5967 472.54L10.2573 472.538L9.9237 472.535L9.59604 472.533L9.27435 472.53L8.95857 472.528L8.64866 472.526L8.34472 472.523L8.04667 472.521L7.7546 472.519L7.46841 472.517L7.18819 472.515L6.91387 472.512L6.64561 472.51L6.38315 472.509L6.12685 472.507L5.87626 472.505L5.63183 472.503L5.39328 472.501L5.1607 472.5L4.93411 472.498L4.71349 472.496L4.49884 472.494L4.29018 472.492L4.0875 472.491L3.89087 472.49L3.70024 472.489L3.51548 472.487L3.33679 472.485L3.16418 472.484L2.99744 472.483L2.83688 472.481L2.68219 472.48L2.53357 472.48L2.39102 472.479L2.25436 472.477L2.12385 472.476L1.99941 472.475L1.88087 472.474L1.76848 472.473H1.66206L1.5618 472.472L1.46752 472.471L1.37931 472.471L1.29708 472.47H1.22101L1.151 472.469H1.08706L1.02919 472.468H0.977293L0.931648 472.467H0.891977H0.858465H0.830934L0.809652 472.466H0.794347H0.785199ZM0.775329 716.095C0.192267 715.402 0.193534 715.401 0.195889 715.4L0.205579 715.392L0.243343 715.36L0.252219 715.352L0.332008 715.286L0.392052 715.236L0.503087 715.143L0.629246 715.039C0.729321 714.957 0.846693 714.861 0.981188 714.75C1.50321 714.323 2.28361 713.69 3.31996 712.865C5.39237 711.214 8.48818 708.796 12.5877 705.72C20.7866 699.567 33.0002 690.782 49.0705 680.243C81.2108 659.163 128.779 631.064 190.512 602.966C313.977 546.77 494.104 490.58 720.773 490.58V492.391C494.408 492.391 314.537 548.505 191.262 604.614C129.624 632.67 82.1367 660.723 50.0638 681.757C34.0275 692.275 21.8451 701.037 13.6748 707.169C9.5896 710.234 6.5075 712.642 4.44812 714.281C3.41848 715.102 2.64452 715.729 2.12875 716.151C1.87081 716.363 1.67745 716.523 1.54903 716.63C1.4974 716.672 1.45629 716.707 1.42568 716.732L1.40494 716.749L1.36943 716.779L1.36084 716.786C1.36084 716.786 1.35957 716.787 1.3161 716.736C1.25596 716.666 1.11369 716.497 0.775329 716.095ZM0.388069 613.84C0.385714 613.841 0.384447 613.842 0.775329 614.659C1.16612 615.475 1.16685 615.475 1.16866 615.475L1.17725 615.47L1.21285 615.454L1.35713 615.385C1.48573 615.324 1.67917 615.234 1.93719 615.113C2.14902 615.014 2.40433 614.897 2.70301 614.759C2.8855 614.675 3.08421 614.583 3.29903 614.486C3.58911 614.353 3.90862 614.208 4.25757 614.05C6.31758 613.117 9.4005 611.748 13.4866 610.004C21.6588 606.518 33.8439 601.535 49.8836 595.554C81.9629 583.592 129.461 567.639 191.114 551.684C314.419 519.776 494.341 487.863 720.773 487.863V486.051C494.171 486.051 314.095 517.988 190.66 549.931C128.942 565.902 81.3845 581.875 49.2508 593.857C33.1839 599.848 20.9729 604.841 12.7758 608.339C8.67737 610.087 5.58238 611.461 3.51051 612.4C2.47462 612.868 1.69447 613.228 1.17263 613.471C1.02583 613.54 0.899493 613.599 0.793621 613.649C0.711297 613.687 0.641473 613.72 0.583964 613.747L0.435434 613.817L0.397759 613.835L0.388069 613.84ZM0.775329 533.147C0.606243 532.258 0.607417 532.257 0.609591 532.257L0.619009 532.255L0.656141 532.248L0.803675 532.22C0.934456 532.196 1.13007 532.159 1.39026 532.111C1.91065 532.015 2.68935 531.872 3.72379 531.686C5.79258 531.314 8.88467 530.769 12.9799 530.075C21.1706 528.687 33.3749 526.705 49.4344 524.326C81.5538 519.57 129.095 513.228 190.794 506.887C314.193 494.204 494.223 481.523 720.773 481.523V483.334C494.29 483.334 314.322 496.012 190.98 508.689C129.308 515.027 81.7938 521.365 49.6998 526.118C33.6529 528.494 21.4611 530.475 13.2825 531.861C9.1932 532.554 6.1072 533.098 4.04429 533.468C3.42129 533.581 2.89158 533.677 2.45569 533.756C2.16995 533.809 1.92451 533.854 1.71965 533.892C1.46091 533.94 1.26674 533.977 1.13732 534L0.992055 534.028L0.956001 534.034L0.947126 534.036C0.945224 534.036 0.944327 534.037 0.775329 533.147Z" fill="url(#paint1_linear_801_15656)"/>
<rect id="animated-rect" x="670" y="427" width="94" height="93" rx="24" fill="url(#paint2_linear_801_15656)"/>
<path fill-rule="evenodd" clip-rule="evenodd" d="M717.982 447.2C717.335 447.067 716.668 447.067 716.022 447.2C715.275 447.353 714.607 447.728 714.076 448.025L713.931 448.106L695.936 458.103C695.886 458.131 695.835 458.159 695.782 458.188C695.22 458.498 694.513 458.887 693.971 459.476C693.501 459.985 693.146 460.589 692.929 461.246C692.678 462.006 692.681 462.813 692.683 463.455C692.683 463.515 692.684 463.573 692.684 463.63V483.37C692.684 483.427 692.683 483.485 692.683 483.545C692.681 484.187 692.678 484.994 692.929 485.754C693.146 486.412 693.501 487.015 693.971 487.524C694.513 488.113 695.22 488.502 695.782 488.812C695.835 488.841 695.886 488.869 695.936 488.897L713.931 498.894L714.076 498.975C714.607 499.273 715.275 499.647 716.022 499.8C716.668 499.933 717.335 499.933 717.982 499.8C718.729 499.647 719.397 499.273 719.928 498.975L720.072 498.894L738.068 488.897C738.09 488.885 738.112 488.872 738.135 488.86C738.163 488.844 738.192 488.828 738.221 488.812C738.783 488.502 739.49 488.113 740.033 487.524C740.502 487.015 740.857 486.412 741.074 485.754C741.326 484.994 741.323 484.187 741.32 483.545C741.32 483.485 741.32 483.427 741.32 483.37V463.63C741.32 463.573 741.32 463.515 741.32 463.455C741.323 462.813 741.326 462.006 741.074 461.246C740.857 460.589 740.502 459.985 740.033 459.476C739.49 458.887 738.783 458.498 738.221 458.188L738.219 458.187C738.168 458.158 738.117 458.131 738.068 458.103L720.072 448.106L719.928 448.025C719.397 447.728 718.729 447.353 717.982 447.2ZM716.293 452.357C716.662 452.153 716.85 452.049 716.99 451.982L717.002 451.976L717.013 451.982C717.154 452.049 717.342 452.153 717.71 452.357L733.881 461.341L717.002 470.718L700.123 461.341L716.293 452.357ZM697.547 465.474L714.57 474.931L714.57 493.685L698.298 484.645C697.909 484.429 697.71 484.318 697.571 484.229L697.559 484.221L697.558 484.207C697.548 484.043 697.547 483.815 697.547 483.37V465.474Z" fill="white"/>
</g>
<defs>
<linearGradient id="paint0_linear_801_15656" x1="729.886" y1="357.43" x2="1425.81" y2="357.43" gradientUnits="userSpaceOnUse">
<stop offset="0.0182341" stop-color="#FD4B28" stop-opacity="0"/>
<stop offset="0.127609" stop-color="#FD4B28"/>
<stop offset="0.563305" stop-color="#FD4C28" stop-opacity="0.65"/>
<stop offset="0.943305" stop-color="#FD4C28" stop-opacity="0"/>
</linearGradient>
<linearGradient id="paint1_linear_801_15656" x1="709.906" y1="357.43" x2="13.9803" y2="357.43" gradientUnits="userSpaceOnUse">
<stop offset="0.0182341" stop-color="#FD4B28" stop-opacity="0"/>
<stop offset="0.127609" stop-color="#FD4B28"/>
<stop offset="0.563305" stop-color="#FD4C28" stop-opacity="0.65"/>
<stop offset="0.943305" stop-color="#FD4C28" stop-opacity="0"/>
</linearGradient>
<linearGradient id="paint2_linear_801_15656" x1="724.875" y1="558.708" x2="631.881" y2="464.714" gradientUnits="userSpaceOnUse">
<stop stop-color="#FB432C"/>
<stop offset="1" stop-color="#FF591E"/>
</linearGradient>
<clipPath id="clip0_801_15656">
<rect width="1440" height="701" fill="white"/>
</clipPath>
</defs>
</svg>
