<svg width="215" height="112" viewBox="0 0 215 112" fill="none" xmlns="http://www.w3.org/2000/svg">
<g clip-path="url(#clip0_2956_255)">
<path d="M114.995 61.3945L101.342 43.6052H97.938V67.4518H101.388V49.1771L115.43 67.4518H118.445V43.6052H114.995V61.3945ZM80.6124 56.9705H92.8505V53.8718H80.6032V46.6945H94.4137V43.5958H77.0882V67.4518H94.5895V64.3531H80.6032L80.6124 56.9705ZM66.2195 53.9465C61.4557 52.7891 60.1237 51.8745 60.1237 49.6531C60.1237 47.6558 61.872 46.3025 64.4805 46.3025C66.8559 46.3727 69.1472 47.2065 71.0202 48.6825L72.8702 46.0411C70.499 44.1656 67.5574 43.1763 64.5452 43.2412C59.8647 43.2412 56.5995 46.0411 56.5995 50.0265C56.5995 54.3198 59.3744 55.8038 64.4249 57.0451C68.9204 58.0905 70.2987 59.0611 70.2987 61.2358C70.2987 63.4105 68.4487 64.7545 65.5904 64.7545C62.7449 64.7413 60.0068 63.6562 57.9129 61.7118L55.8317 64.2225C58.5136 66.5477 61.9343 67.8229 65.4702 67.8158C70.5392 67.8158 73.7952 65.0625 73.7952 60.8065C73.7675 57.2038 71.6584 55.2718 66.2195 53.9465ZM181.021 43.6052L173.908 54.8051L166.841 43.6052H162.716L172.049 58.0251V67.4611H175.601V57.9131L184.999 43.6052H181.021ZM121.239 46.8345H128.981V67.4611H132.533V46.8345H140.275V43.6052H121.248L121.239 46.8345ZM156.703 58.1465C160.274 57.1478 162.253 54.6278 162.253 51.0251C162.253 46.4425 158.932 43.5585 153.577 43.5585H143.069V67.4425H146.584V58.8745H152.55L158.544 67.4611H162.651L156.176 58.2958L156.703 58.1465ZM146.574 55.8131V46.7598H153.207C156.666 46.7598 158.646 48.4118 158.646 51.2771C158.646 54.1425 156.527 55.8131 153.244 55.8131H146.574ZM26.8237 37.1092C26.4394 36.4657 25.8968 35.9333 25.2485 35.5638C24.6002 35.1942 23.8682 35 23.1237 35C22.3791 35 21.6471 35.1942 20.9989 35.5638C20.3505 35.9333 19.8079 36.4657 19.4237 37.1092L13.3372 47.6278C17.987 49.9702 21.9487 53.4991 24.8289 57.8641C27.7092 62.2291 29.4077 67.2783 29.756 72.5105H25.4825C25.1348 68.0255 23.6326 63.7099 21.1245 59.9907C18.6163 56.2714 15.189 53.2776 11.182 51.3051L5.54867 61.1331C7.80135 62.1525 9.76383 63.7271 11.2558 65.7119C12.7477 67.6967 13.7211 70.0282 14.0864 72.4918H4.27217C4.15577 72.4835 4.04326 72.4461 3.94477 72.383C3.84628 72.3199 3.76492 72.233 3.70802 72.1301C3.65112 72.0274 3.62047 71.9119 3.61884 71.7942C3.61721 71.6765 3.64464 71.5602 3.69867 71.4558L6.41817 66.7891C5.49681 66.0135 4.44381 65.4128 3.31017 65.0158L0.618417 69.6825C0.338193 70.1675 0.156274 70.7038 0.0832263 71.2604C0.0101793 71.8169 0.0474615 72.3825 0.192907 72.9244C0.338352 73.4662 0.589062 73.9736 0.930471 74.4168C1.27188 74.8601 1.69718 75.2305 2.18167 75.5065C2.82001 75.8695 3.53949 76.0622 4.27217 76.0665H17.7125C17.962 72.9586 17.412 69.8383 16.1155 67.0077C14.8191 64.1773 12.8201 61.7326 10.3124 59.9105L12.4492 56.1771C15.614 58.3705 18.1573 61.3585 19.8281 64.8464C21.4989 68.3344 22.2395 72.2016 21.9767 76.0665H33.3634C33.6286 70.2117 32.3662 64.3892 29.7026 59.1809C27.0389 53.9725 23.0671 49.5607 18.1842 46.3865L22.504 38.9198C22.6001 38.7571 22.7562 38.6393 22.9381 38.5921C23.12 38.5449 23.313 38.5722 23.4752 38.6678C23.9655 38.9385 42.2435 71.1198 42.5857 71.4931C42.6459 71.6023 42.6766 71.7255 42.6746 71.8503C42.6726 71.9752 42.6379 72.0974 42.574 72.2044C42.5102 72.3114 42.4195 72.3995 42.3111 72.4599C42.2027 72.5202 42.0805 72.5505 41.9567 72.5478H37.5537C37.6092 73.7363 37.6092 74.9217 37.5537 76.1038H41.9752C42.5366 76.1075 43.0932 75.9989 43.6127 75.7841C44.1323 75.5693 44.6044 75.2526 45.0019 74.8525C45.3994 74.4523 45.7141 73.9766 45.9282 73.4529C46.1422 72.9291 46.2511 72.3677 46.2487 71.8011C46.2493 71.0529 46.0512 70.3182 45.6752 69.6731L26.8237 37.1092Z" fill="white"/>
</g>
<defs>
<clipPath id="clip0_2956_255">
<rect width="185" height="42" fill="white" transform="translate(0 35)"/>
</clipPath>
</defs>
</svg>
