<svg width="651" height="456" viewBox="0 0 651 456" fill="none" xmlns="http://www.w3.org/2000/svg">
<g filter="url(#filter0_d_801_16148)">
<rect x="60" y="54" width="531" height="337" rx="24" fill="white"/>
<rect width="529" height="42" transform="translate(61 55)" fill="#CECECE"/>
<path d="M275.919 80.1424C274.368 80.1424 273.334 79.1682 273.334 77.6919C273.334 76.253 274.368 75.3987 276.219 75.3013L278.452 75.1889V74.4545C278.452 73.4353 277.83 72.8733 276.699 72.8733C275.762 72.8733 275.102 73.2704 274.893 73.9674H273.641C273.791 72.6634 275.05 71.7717 276.714 71.7717C278.625 71.7717 279.719 72.7459 279.719 74.4395V80.0075H278.505V78.786H278.377C277.988 79.6553 277.103 80.1424 275.919 80.1424ZM276.287 79.0258C277.516 79.0258 278.452 78.2089 278.452 77.1223V76.1631L276.361 76.2605C275.222 76.313 274.623 76.8001 274.623 77.6469C274.623 78.5012 275.26 79.0258 276.287 79.0258ZM286.357 71.7342C288.238 71.7342 289.467 73.0906 289.467 75.1814V76.6952C289.467 78.7785 288.238 80.1349 286.357 80.1349C285.18 80.1349 284.319 79.6328 283.966 78.741H283.824V82.7428H282.527V71.8691H283.786V73.1131H283.921C284.349 72.2138 285.195 71.7342 286.357 71.7342ZM285.99 72.9032C284.648 72.9032 283.794 73.8625 283.794 75.3613V76.5303C283.794 78.0366 284.648 78.9958 285.99 78.9958C287.331 78.9958 288.185 78.0291 288.185 76.5303V75.3613C288.185 73.8625 287.331 72.9032 285.99 72.9032ZM295.093 69.8757C294.494 69.8757 294.037 69.4261 294.037 68.8265C294.037 68.2345 294.494 67.7849 295.093 67.7849C295.693 67.7849 296.15 68.2345 296.15 68.8265C296.15 69.4261 295.693 69.8757 295.093 69.8757ZM298.503 80H291.766V78.9434H294.554V72.9257H291.788V71.8691H295.813V78.9434H298.503V80ZM304.055 80.045C303.313 80.045 302.698 79.423 302.698 78.6586C302.698 77.9017 303.313 77.2797 304.055 77.2797C304.796 77.2797 305.411 77.9017 305.411 78.6586C305.411 79.423 304.796 80.045 304.055 80.045ZM316.545 74.402H315.286C315.129 73.4503 314.335 72.8508 313.286 72.8508C311.869 72.8508 311.082 73.8175 311.082 75.5636V76.298C311.082 78.0441 311.869 79.0033 313.286 79.0033C314.335 79.0033 315.129 78.4113 315.286 77.482H316.545C316.343 79.1382 315.107 80.1499 313.308 80.1499C311.097 80.1499 309.808 78.7935 309.808 76.4629V75.3987C309.808 73.0681 311.097 71.7117 313.308 71.7117C315.107 71.7117 316.336 72.7309 316.545 74.402ZM318.927 80V68.6767H320.156V73.3079H320.261C320.688 72.2962 321.625 71.7267 322.869 71.7267C324.637 71.7267 325.597 72.7908 325.597 74.7318V80H324.323V75.054C324.323 73.5927 323.723 72.8957 322.449 72.8957C321.108 72.8957 320.201 73.8325 320.201 75.2189V80H318.927ZM333.561 77.9017H334.798C334.55 79.2431 333.261 80.1499 331.553 80.1499C329.32 80.1499 328.023 78.8085 328.023 76.4928V75.2713C328.023 73.1281 329.395 71.7192 331.463 71.7192C333.576 71.7192 334.82 73.1206 334.82 75.4737V76.268H329.282V76.5978C329.282 78.089 330.166 79.0483 331.553 79.0483C332.58 79.0483 333.336 78.6136 333.561 77.9017ZM331.455 72.8133C330.099 72.8133 329.282 73.7426 329.282 75.3013H333.561C333.561 73.7501 332.767 72.8133 331.455 72.8133ZM343.856 74.402H342.597C342.44 73.4503 341.646 72.8508 340.597 72.8508C339.18 72.8508 338.393 73.8175 338.393 75.5636V76.298C338.393 78.0441 339.18 79.0033 340.597 79.0033C341.646 79.0033 342.44 78.4113 342.597 77.482H343.856C343.654 79.1382 342.418 80.1499 340.619 80.1499C338.408 80.1499 337.119 78.7935 337.119 76.4629V75.3987C337.119 73.0681 338.408 71.7117 340.619 71.7117C342.418 71.7117 343.647 72.7309 343.856 74.402ZM348.216 75.5186L351.761 71.8691H353.305L350.15 75.0915L353.53 80H352.016L349.243 75.9608L348.119 77.0399V80H346.845V68.6767H348.119V75.5186H348.216ZM358.676 80.045C357.935 80.045 357.32 79.423 357.32 78.6586C357.32 77.9017 357.935 77.2797 358.676 77.2797C359.418 77.2797 360.033 77.9017 360.033 78.6586C360.033 79.423 359.418 80.045 358.676 80.045ZM366.394 69.6883H367.653V71.8916H370.95V72.9782H367.668V77.5645C367.668 78.4488 368.29 78.9284 369.436 78.9284C369.893 78.9284 370.71 78.9059 370.927 78.8834V79.9625C370.725 80 369.736 80.0375 369.346 80.0375C367.33 80.0375 366.394 79.2731 366.394 77.5795V72.9782H364.228V71.8916H366.394V69.6883ZM373.924 74.0648C373.924 72.6559 375.123 71.7117 376.914 71.7117C378.607 71.7117 379.754 72.5585 379.904 73.9149H378.675C378.525 73.203 377.843 72.7683 376.891 72.7683C375.857 72.7683 375.19 73.248 375.19 73.9899C375.19 74.6119 375.61 74.9641 376.629 75.1889L377.775 75.4512C379.357 75.8109 380.076 76.5003 380.076 77.6769C380.076 79.1757 378.825 80.1499 376.899 80.1499C375.055 80.1499 373.834 79.2881 373.691 77.8942H374.988C375.175 78.6436 375.894 79.0782 376.944 79.0782C378.053 79.0782 378.757 78.5762 378.757 77.7968C378.757 77.1523 378.36 76.8076 377.326 76.5753L376.119 76.298C374.65 75.9608 373.924 75.2189 373.924 74.0648Z" fill="#2F343C"/>
<rect x="80" y="70" width="12" height="12" rx="6" fill="#0D0D0D" fill-opacity="0.4"/>
<rect x="97" y="70" width="12" height="12" rx="6" fill="#0D0D0D" fill-opacity="0.4"/>
<rect x="113" y="70" width="12" height="12" rx="6" fill="#0D0D0D" fill-opacity="0.4"/>
<path d="M92.434 135V126.768H93.6708V128.217H93.777C94.2171 127.193 95.1579 126.616 96.4098 126.616C98.2005 126.616 99.1717 127.686 99.1717 129.658V135H97.8818V129.985C97.8818 128.498 97.2748 127.8 95.9925 127.8C94.6344 127.8 93.7239 128.748 93.7239 130.152V135H92.434ZM107.243 132.876H108.495C108.245 134.234 106.94 135.152 105.21 135.152C102.949 135.152 101.636 133.794 101.636 131.449V130.212C101.636 128.042 103.025 126.616 105.119 126.616C107.258 126.616 108.518 128.035 108.518 130.417V131.221H102.911V131.555C102.911 133.065 103.806 134.036 105.21 134.036C106.249 134.036 107.016 133.596 107.243 132.876ZM105.111 127.724C103.738 127.724 102.911 128.664 102.911 130.243H107.243C107.243 128.672 106.439 127.724 105.111 127.724ZM100.249 146.768L98.4812 155H97.2445L95.8484 148.581H95.7573L94.3612 155H93.1245L91.3566 146.768H92.6161L93.7315 153.369H93.8681L95.1959 146.775H96.4098L97.7376 153.369H97.8742L98.9896 146.768H100.249Z" fill="#0D0D0D"/>
<path d="M135.633 145L134.685 141.859H130.876L129.92 145H128.561L132.09 134.051H133.516L137.044 145H135.633ZM132.765 135.66L131.225 140.713H134.336L132.803 135.66H132.765ZM142.536 136.631C144.44 136.631 145.685 138.004 145.685 140.121V141.654C145.685 143.763 144.44 145.137 142.536 145.137C141.345 145.137 140.472 144.628 140.116 143.725H139.971V147.777H138.659V136.768H139.934V138.027H140.07C140.503 137.117 141.36 136.631 142.536 136.631ZM142.164 137.815C140.806 137.815 139.941 138.786 139.941 140.303V141.487C139.941 143.012 140.806 143.983 142.164 143.983C143.522 143.983 144.387 143.005 144.387 141.487V140.303C144.387 138.786 143.522 137.815 142.164 137.815ZM151.381 134.749C150.774 134.749 150.312 134.294 150.312 133.687C150.312 133.088 150.774 132.632 151.381 132.632C151.988 132.632 152.451 133.088 152.451 133.687C152.451 134.294 151.988 134.749 151.381 134.749ZM154.834 145H148.013V143.93H150.835V137.837H148.035V136.768H152.11V143.93H154.834V145ZM160.705 143.961C162.162 143.961 163.087 143.088 163.125 141.677H164.476C164.476 143.794 162.943 145.228 160.705 145.228C158.133 145.228 156.638 143.49 156.638 140.501V138.551C156.638 135.561 158.133 133.824 160.705 133.824C163.011 133.824 164.438 135.227 164.483 137.564H163.125C163.08 136.085 162.101 135.091 160.697 135.091C158.929 135.091 158.004 136.282 158.004 138.551V140.501C158.004 142.769 158.929 143.961 160.705 143.961ZM166.295 145V133.535H167.54V138.224H167.646C168.078 137.2 169.027 136.623 170.286 136.623C172.077 136.623 173.048 137.701 173.048 139.666V145H171.758V139.992C171.758 138.513 171.151 137.807 169.861 137.807C168.503 137.807 167.585 138.756 167.585 140.159V145H166.295ZM181.112 142.876H182.364C182.114 144.234 180.809 145.152 179.079 145.152C176.818 145.152 175.505 143.794 175.505 141.449V140.212C175.505 138.042 176.893 136.616 178.988 136.616C181.127 136.616 182.387 138.035 182.387 140.417V141.221H176.78V141.555C176.78 143.065 177.675 144.036 179.079 144.036C180.118 144.036 180.884 143.596 181.112 142.876ZM178.98 137.724C177.607 137.724 176.78 138.664 176.78 140.243H181.112C181.112 138.672 180.308 137.724 178.98 137.724ZM191.536 139.332H190.261C190.102 138.369 189.297 137.762 188.235 137.762C186.801 137.762 186.004 138.74 186.004 140.508V141.252C186.004 143.02 186.801 143.991 188.235 143.991C189.297 143.991 190.102 143.391 190.261 142.451H191.536C191.331 144.127 190.079 145.152 188.258 145.152C186.02 145.152 184.715 143.778 184.715 141.419V140.341C184.715 137.982 186.02 136.608 188.258 136.608C190.079 136.608 191.323 137.64 191.536 139.332ZM195.95 140.463L199.539 136.768H201.102L197.908 140.03L201.33 145H199.797L196.99 140.91L195.851 142.003V145H194.562V133.535H195.851V140.463H195.95Z" fill="#00B51D"/>
<path d="M204.887 139.522C204.887 136.95 205.66 134.711 207.17 132.997H208.453C206.882 135.205 206.222 137.139 206.222 139.522C206.222 141.904 206.882 143.839 208.453 146.047H207.17C205.66 144.332 204.887 142.102 204.887 139.522ZM356.975 146.039H355.943C354.099 146.039 353.515 145.455 353.515 143.581V141.882C353.515 140.713 352.832 140.03 351.057 140.212V138.839C352.832 139.021 353.515 138.346 353.515 137.17V135.47C353.515 133.596 354.099 133.012 355.943 133.012H356.975V134.051H356.148C355.01 134.051 354.79 134.317 354.79 135.637V137.663C354.79 138.725 353.993 139.431 352.453 139.469V139.59C353.993 139.621 354.79 140.326 354.79 141.388V143.414C354.79 144.734 355.01 145 356.148 145H356.975V146.039Z" fill="#EEEEEE"/>
<path d="M216.448 138.991H215.067V134.051H216.448V138.991ZM221.599 145V133.535H222.843V138.224H222.949C223.382 137.2 224.33 136.623 225.59 136.623C227.38 136.623 228.351 137.701 228.351 139.666V145H227.062V139.992C227.062 138.513 226.455 137.807 225.165 137.807C223.807 137.807 222.888 138.756 222.888 140.159V145H221.599ZM236.415 142.876H237.667C237.417 144.234 236.112 145.152 234.382 145.152C232.121 145.152 230.808 143.794 230.808 141.449V140.212C230.808 138.042 232.197 136.616 234.291 136.616C236.431 136.616 237.69 138.035 237.69 140.417V141.221H232.083V141.555C232.083 143.065 232.978 144.036 234.382 144.036C235.421 144.036 236.188 143.596 236.415 142.876ZM234.283 137.724C232.91 137.724 232.083 138.664 232.083 140.243H236.415C236.415 138.672 235.611 137.724 234.283 137.724ZM247.006 145H240.185V143.93H243V134.605H240.208V133.535H244.29V143.93H247.006V145ZM256.223 145H249.402V143.93H252.217V134.605H249.425V133.535H253.507V143.93H256.223V145ZM261.844 145.152C259.666 145.152 258.278 143.733 258.278 141.51V140.265C258.278 138.042 259.666 136.623 261.844 136.623C264.021 136.623 265.41 138.042 265.41 140.265V141.51C265.41 143.733 264.021 145.152 261.844 145.152ZM261.844 137.762C260.433 137.762 259.552 138.763 259.552 140.379V141.388C259.552 143.012 260.433 144.006 261.844 144.006C263.255 144.006 264.135 143.012 264.135 141.388V140.379C264.135 138.763 263.255 137.762 261.844 137.762ZM275.075 140.743H267.047V139.545H275.075V140.743ZM279.444 145.144C277.873 145.144 276.826 144.158 276.826 142.663C276.826 141.206 277.873 140.341 279.747 140.243L282.008 140.129V139.385C282.008 138.353 281.378 137.784 280.233 137.784C279.284 137.784 278.617 138.186 278.404 138.892H277.137C277.289 137.572 278.564 136.669 280.248 136.669C282.183 136.669 283.291 137.655 283.291 139.37V145.008H282.061V143.771H281.932C281.538 144.651 280.642 145.144 279.444 145.144ZM279.815 144.014C281.06 144.014 282.008 143.187 282.008 142.086V141.115L279.891 141.214C278.738 141.267 278.131 141.76 278.131 142.618C278.131 143.483 278.776 144.014 279.815 144.014ZM290.011 136.631C291.916 136.631 293.16 138.004 293.16 140.121V141.654C293.16 143.763 291.916 145.137 290.011 145.137C288.82 145.137 287.948 144.628 287.591 143.725H287.447V147.777H286.134V136.768H287.409V138.027H287.546C287.978 137.117 288.835 136.631 290.011 136.631ZM289.64 137.815C288.282 137.815 287.417 138.786 287.417 140.303V141.487C287.417 143.012 288.282 143.983 289.64 143.983C290.998 143.983 291.863 143.005 291.863 141.487V140.303C291.863 138.786 290.998 137.815 289.64 137.815ZM298.857 134.749C298.25 134.749 297.787 134.294 297.787 133.687C297.787 133.088 298.25 132.632 298.857 132.632C299.464 132.632 299.927 133.088 299.927 133.687C299.927 134.294 299.464 134.749 298.857 134.749ZM302.309 145H295.488V143.93H298.311V137.837H295.511V136.768H299.585V143.93H302.309V145ZM311.944 140.743H303.916V139.545H311.944V140.743ZM321.282 145H313.649V143.824H316.882V135.569H316.76L313.627 137.595V136.168L316.889 134.051H318.202V143.824H321.282V145ZM327.055 138.991H325.674V134.051H327.055V138.991Z" fill="#FD4B28"/>
<path d="M334.891 147.519H333.67L334.61 142.587H336.318L334.891 147.519Z" fill="white"/>
<path d="M110.868 166V157.768H112.105V159.217H112.211C112.652 158.193 113.592 157.616 114.844 157.616C116.635 157.616 117.606 158.686 117.606 160.658V166H116.316V160.985C116.316 159.498 115.709 158.8 114.427 158.8C113.069 158.8 112.158 159.748 112.158 161.152V166H110.868ZM122.62 166.144C121.049 166.144 120.002 165.158 120.002 163.663C120.002 162.206 121.049 161.341 122.923 161.243L125.184 161.129V160.385C125.184 159.353 124.555 158.784 123.409 158.784C122.461 158.784 121.793 159.186 121.58 159.892H120.313C120.465 158.572 121.74 157.669 123.424 157.669C125.359 157.669 126.467 158.655 126.467 160.37V166.008H125.238V164.771H125.109C124.714 165.651 123.819 166.144 122.62 166.144ZM122.992 165.014C124.236 165.014 125.184 164.187 125.184 163.086V162.115L123.068 162.214C121.914 162.267 121.307 162.76 121.307 163.618C121.307 164.483 121.952 165.014 122.992 165.014ZM136.64 159.938V166H135.479V160.317C135.479 159.315 135.115 158.792 134.424 158.792C133.704 158.792 133.264 159.422 133.264 160.446V166H132.11V160.309C132.11 159.315 131.746 158.792 131.048 158.792C130.32 158.792 129.864 159.422 129.864 160.446V166H128.703V157.768H129.857V158.929H129.993C130.198 158.101 130.79 157.616 131.564 157.616C132.338 157.616 132.884 158.094 133.059 158.906H133.195C133.408 158.117 134.068 157.616 134.895 157.616C136.041 157.616 136.64 158.413 136.64 159.938ZM144.112 163.876H145.364C145.114 165.234 143.809 166.152 142.079 166.152C139.818 166.152 138.505 164.794 138.505 162.449V161.212C138.505 159.042 139.893 157.616 141.988 157.616C144.127 157.616 145.387 159.035 145.387 161.417V162.221H139.78V162.555C139.78 164.065 140.675 165.036 142.079 165.036C143.118 165.036 143.884 164.596 144.112 163.876ZM141.98 158.724C140.607 158.724 139.78 159.664 139.78 161.243H144.112C144.112 159.672 143.308 158.724 141.98 158.724Z" fill="#EEEEEE"/>
<path d="M151.106 160.218C150.355 160.218 149.733 159.581 149.733 158.815C149.733 158.048 150.355 157.411 151.106 157.411C151.857 157.411 152.479 158.048 152.479 158.815C152.479 159.581 151.857 160.218 151.106 160.218ZM151.106 166.046C150.355 166.046 149.733 165.416 149.733 164.642C149.733 163.876 150.355 163.246 151.106 163.246C151.857 163.246 152.479 163.876 152.479 164.642C152.479 165.416 151.857 166.046 151.106 166.046Z" fill="white"/>
<path d="M170.493 159.991H169.112V155.051H170.493V159.991ZM182.662 166H181.334V161.023H176.706V166H175.378V155.051H176.706V159.793H181.334V155.051H182.662V166ZM190.46 163.876H191.712C191.462 165.234 190.157 166.152 188.427 166.152C186.166 166.152 184.853 164.794 184.853 162.449V161.212C184.853 159.042 186.242 157.616 188.336 157.616C190.476 157.616 191.735 159.035 191.735 161.417V162.221H186.128V162.555C186.128 164.065 187.023 165.036 188.427 165.036C189.466 165.036 190.233 164.596 190.46 163.876ZM188.328 158.724C186.955 158.724 186.128 159.664 186.128 161.243H190.46C190.46 159.672 189.656 158.724 188.328 158.724ZM201.051 166H194.23V164.93H197.045V155.605H194.253V154.535H198.335V164.93H201.051V166ZM210.268 166H203.447V164.93H206.262V155.605H203.47V154.535H207.552V164.93H210.268V166ZM215.889 166.152C213.711 166.152 212.323 164.733 212.323 162.51V161.265C212.323 159.042 213.711 157.623 215.889 157.623C218.067 157.623 219.455 159.042 219.455 161.265V162.51C219.455 164.733 218.067 166.152 215.889 166.152ZM215.889 158.762C214.478 158.762 213.598 159.763 213.598 161.379V162.388C213.598 164.012 214.478 165.006 215.889 165.006C217.3 165.006 218.18 164.012 218.18 162.388V161.379C218.18 159.763 217.3 158.762 215.889 158.762ZM237.153 166L236.205 162.859H232.396L231.44 166H230.082L233.61 155.051H235.037L238.565 166H237.153ZM234.285 156.66L232.745 161.713H235.856L234.323 156.66H234.285ZM240.24 155.051H243.882C246.006 155.051 247.395 156.44 247.395 158.564C247.395 160.681 245.991 162.07 243.852 162.07H241.583V166H240.24V155.051ZM241.583 156.243V160.878H243.548C245.142 160.878 246.037 160.051 246.037 158.564C246.037 157.07 245.142 156.243 243.548 156.243H241.583ZM255.641 166H249.875V164.809H252.09V156.243H249.875V155.051H255.641V156.243H253.425V164.809H255.641V166ZM262.665 159.991H261.285V155.051H262.665V159.991Z" fill="#FD4B28"/>
<path d="M270.502 168.519H269.28L270.221 163.587H271.928L270.502 168.519Z" fill="white"/>
<path d="M113.403 186.144C111.832 186.144 110.785 185.158 110.785 183.663C110.785 182.206 111.832 181.341 113.706 181.243L115.967 181.129V180.385C115.967 179.353 115.337 178.784 114.192 178.784C113.243 178.784 112.576 179.186 112.363 179.892H111.096C111.248 178.572 112.523 177.669 114.207 177.669C116.142 177.669 117.249 178.655 117.249 180.37V186.008H116.02V184.771H115.891C115.497 185.651 114.601 186.144 113.403 186.144ZM113.774 185.014C115.019 185.014 115.967 184.187 115.967 183.086V182.115L113.85 182.214C112.697 182.267 112.09 182.76 112.09 183.618C112.09 184.483 112.735 185.014 113.774 185.014ZM126.884 180.332H125.609C125.45 179.369 124.646 178.762 123.583 178.762C122.149 178.762 121.353 179.74 121.353 181.508V182.252C121.353 184.02 122.149 184.991 123.583 184.991C124.646 184.991 125.45 184.391 125.609 183.451H126.884C126.679 185.127 125.427 186.152 123.606 186.152C121.368 186.152 120.063 184.778 120.063 182.419V181.341C120.063 178.982 121.368 177.608 123.606 177.608C125.427 177.608 126.672 178.64 126.884 180.332ZM131.268 175.56H132.543V177.79H135.881V178.891H132.558V183.534C132.558 184.429 133.188 184.915 134.349 184.915C134.811 184.915 135.638 184.892 135.858 184.869V185.962C135.654 186 134.652 186.038 134.257 186.038C132.216 186.038 131.268 185.264 131.268 183.549V178.891H129.075V177.79H131.268V175.56ZM142.033 175.749C141.426 175.749 140.963 175.294 140.963 174.687C140.963 174.088 141.426 173.632 142.033 173.632C142.64 173.632 143.103 174.088 143.103 174.687C143.103 175.294 142.64 175.749 142.033 175.749ZM145.485 186H138.664V184.93H141.487V178.837H138.687V177.768H142.761V184.93H145.485V186ZM147.388 177.768H148.769L151.068 184.619H151.167L153.451 177.768H154.824L151.819 186H150.401L147.388 177.768ZM159.489 186.144C157.918 186.144 156.871 185.158 156.871 183.663C156.871 182.206 157.918 181.341 159.792 181.243L162.053 181.129V180.385C162.053 179.353 161.424 178.784 160.278 178.784C159.329 178.784 158.662 179.186 158.449 179.892H157.182C157.334 178.572 158.609 177.669 160.293 177.669C162.228 177.669 163.336 178.655 163.336 180.37V186.008H162.106V184.771H161.977C161.583 185.651 160.688 186.144 159.489 186.144ZM159.861 185.014C161.105 185.014 162.053 184.187 162.053 183.086V182.115L159.936 182.214C158.783 182.267 158.176 182.76 158.176 183.618C158.176 184.483 158.821 185.014 159.861 185.014ZM168.137 175.56H169.412V177.79H172.75V178.891H169.427V183.534C169.427 184.429 170.057 184.915 171.217 184.915C171.68 184.915 172.507 184.892 172.727 184.869V185.962C172.522 186 171.521 186.038 171.126 186.038C169.085 186.038 168.137 185.264 168.137 183.549V178.891H165.944V177.79H168.137V175.56ZM180.981 183.876H182.233C181.982 185.234 180.677 186.152 178.947 186.152C176.686 186.152 175.374 184.794 175.374 182.449V181.212C175.374 179.042 176.762 177.616 178.856 177.616C180.996 177.616 182.256 179.035 182.256 181.417V182.221H176.648V182.555C176.648 184.065 177.544 185.036 178.947 185.036C179.987 185.036 180.753 184.596 180.981 183.876ZM178.849 178.724C177.476 178.724 176.648 179.664 176.648 181.243H180.981C180.981 179.672 180.177 178.724 178.849 178.724ZM187.459 186.137C185.555 186.137 184.31 184.763 184.31 182.646V181.114C184.31 179.004 185.555 177.631 187.459 177.631C188.65 177.631 189.53 178.139 189.887 179.042H190.024V174.535H191.336V186H190.069V184.74H189.925C189.5 185.651 188.635 186.137 187.459 186.137ZM187.838 184.961C189.189 184.961 190.062 183.989 190.062 182.464V181.281C190.062 179.763 189.189 178.792 187.838 178.792C186.48 178.792 185.608 179.763 185.608 181.281V182.464C185.608 183.982 186.48 184.961 187.838 184.961Z" fill="#EEEEEE"/>
<path d="M197.192 180.218C196.441 180.218 195.819 179.581 195.819 178.815C195.819 178.048 196.441 177.411 197.192 177.411C197.943 177.411 198.566 178.048 198.566 178.815C198.566 179.581 197.943 180.218 197.192 180.218ZM197.192 186.046C196.441 186.046 195.819 185.416 195.819 184.642C195.819 183.876 196.441 183.246 197.192 183.246C197.943 183.246 198.566 183.876 198.566 184.642C198.566 185.416 197.943 186.046 197.192 186.046Z" fill="white"/>
<path d="M214.399 175.56H215.674V177.79H219.012V178.891H215.689V183.534C215.689 184.429 216.319 184.915 217.48 184.915C217.943 184.915 218.77 184.892 218.99 184.869V185.962C218.785 186 217.783 186.038 217.389 186.038C215.348 186.038 214.399 185.264 214.399 183.549V178.891H212.206V177.79H214.399V175.56ZM224.694 182.313V184.968H227.243V186H221.773V184.968H223.434V178.8H221.606V177.768H224.679V179.869H224.846C225.149 178.344 226.173 177.555 227.759 177.555C228.23 177.555 228.677 177.623 228.95 177.737V179.186C228.571 179.05 228.04 178.959 227.592 178.959C225.771 178.959 224.694 180.218 224.694 182.313ZM237.606 177.768V186H236.369V184.551H236.263C235.823 185.575 234.882 186.152 233.63 186.152C231.84 186.152 230.868 185.082 230.868 183.109V177.768H232.158V182.783C232.158 184.27 232.765 184.968 234.048 184.968C235.406 184.968 236.316 184.02 236.316 182.616V177.768H237.606ZM245.678 183.876H246.93C246.679 185.234 245.374 186.152 243.644 186.152C241.383 186.152 240.07 184.794 240.07 182.449V181.212C240.07 179.042 241.459 177.616 243.553 177.616C245.693 177.616 246.952 179.035 246.952 181.417V182.221H241.345V182.555C241.345 184.065 242.241 185.036 243.644 185.036C244.684 185.036 245.45 184.596 245.678 183.876ZM243.546 178.724C242.172 178.724 241.345 179.664 241.345 181.243H245.678C245.678 179.672 244.873 178.724 243.546 178.724Z" fill="#00B51D"/>
<path d="M251.981 188.519H250.76L251.701 183.587H253.408L251.981 188.519Z" fill="white"/>
<path d="M113.911 203.313V205.968H116.46V207H110.99V205.968H112.652V199.8H110.823V198.768H113.896V200.869H114.063C114.366 199.344 115.391 198.555 116.976 198.555C117.447 198.555 117.894 198.623 118.168 198.737V200.186C117.788 200.05 117.257 199.959 116.809 199.959C114.988 199.959 113.911 201.218 113.911 203.313ZM125.678 204.876H126.93C126.679 206.234 125.374 207.152 123.644 207.152C121.383 207.152 120.07 205.794 120.07 203.449V202.212C120.07 200.042 121.459 198.616 123.553 198.616C125.693 198.616 126.952 200.035 126.952 202.417V203.221H121.345V203.555C121.345 205.065 122.241 206.036 123.644 206.036C124.684 206.036 125.45 205.596 125.678 204.876ZM123.546 199.724C122.172 199.724 121.345 200.664 121.345 202.243H125.678C125.678 200.672 124.873 199.724 123.546 199.724ZM132.156 198.631C133.332 198.631 134.189 199.117 134.622 200.027H134.758V198.768H136.033V209.777H134.72V205.725H134.576C134.22 206.628 133.347 207.137 132.156 207.137C130.251 207.137 129.007 205.763 129.007 203.654V202.121C129.007 200.004 130.251 198.631 132.156 198.631ZM132.528 199.815C131.169 199.815 130.304 200.786 130.304 202.303V203.487C130.304 205.005 131.169 205.983 132.528 205.983C133.886 205.983 134.751 205.012 134.751 203.487V202.303C134.751 200.786 133.886 199.815 132.528 199.815ZM145.258 198.768V207H144.021V205.551H143.915C143.475 206.575 142.534 207.152 141.282 207.152C139.491 207.152 138.52 206.082 138.52 204.109V198.768H139.81V203.783C139.81 205.27 140.417 205.968 141.699 205.968C143.057 205.968 143.968 205.02 143.968 203.616V198.768H145.258ZM153.329 204.876H154.581C154.331 206.234 153.026 207.152 151.296 207.152C149.035 207.152 147.722 205.794 147.722 203.449V202.212C147.722 200.042 149.111 198.616 151.205 198.616C153.344 198.616 154.604 200.035 154.604 202.417V203.221H148.997V203.555C148.997 205.065 149.892 206.036 151.296 206.036C152.335 206.036 153.102 205.596 153.329 204.876ZM151.197 199.724C149.824 199.724 148.997 200.664 148.997 202.243H153.329C153.329 200.672 152.525 199.724 151.197 199.724ZM157.326 200.991C157.326 199.564 158.54 198.608 160.354 198.608C162.068 198.608 163.229 199.466 163.381 200.839H162.137C161.985 200.118 161.295 199.678 160.331 199.678C159.284 199.678 158.609 200.164 158.609 200.915C158.609 201.545 159.033 201.901 160.065 202.129L161.226 202.394C162.827 202.759 163.556 203.457 163.556 204.648C163.556 206.165 162.288 207.152 160.339 207.152C158.472 207.152 157.235 206.279 157.091 204.868H158.404C158.593 205.627 159.322 206.067 160.384 206.067C161.507 206.067 162.22 205.558 162.22 204.769C162.22 204.117 161.818 203.768 160.771 203.533L159.549 203.252C158.062 202.91 157.326 202.159 157.326 200.991ZM168.137 196.56H169.412V198.79H172.75V199.891H169.427V204.534C169.427 205.429 170.057 205.915 171.217 205.915C171.68 205.915 172.507 205.892 172.727 205.869V206.962C172.522 207 171.521 207.038 171.126 207.038C169.085 207.038 168.137 206.264 168.137 204.549V199.891H165.944V198.79H168.137V196.56ZM200.151 208.039H199.119C197.276 208.039 196.691 207.455 196.691 205.581V203.882C196.691 202.713 196.009 202.03 194.233 202.212V200.839C196.009 201.021 196.691 200.346 196.691 199.17V197.47C196.691 195.596 197.276 195.012 199.119 195.012H200.151V196.051H199.324C198.186 196.051 197.966 196.317 197.966 197.637V199.663C197.966 200.725 197.169 201.431 195.629 201.469V201.59C197.169 201.621 197.966 202.326 197.966 203.388V205.414C197.966 206.734 198.186 207 199.324 207H200.151V208.039ZM136.64 220.938V227H135.479V221.317C135.479 220.315 135.115 219.792 134.424 219.792C133.704 219.792 133.264 220.422 133.264 221.446V227H132.11V221.309C132.11 220.315 131.746 219.792 131.048 219.792C130.32 219.792 129.864 220.422 129.864 221.446V227H128.703V218.768H129.857V219.929H129.993C130.198 219.101 130.79 218.616 131.564 218.616C132.338 218.616 132.884 219.094 133.059 219.906H133.195C133.408 219.117 134.068 218.616 134.895 218.616C136.041 218.616 136.64 219.413 136.64 220.938ZM144.112 224.876H145.364C145.114 226.234 143.809 227.152 142.079 227.152C139.818 227.152 138.505 225.794 138.505 223.449V222.212C138.505 220.042 139.893 218.616 141.988 218.616C144.127 218.616 145.387 220.035 145.387 222.417V223.221H139.78V223.555C139.78 225.065 140.675 226.036 142.079 226.036C143.118 226.036 143.884 225.596 144.112 224.876ZM141.98 219.724C140.607 219.724 139.78 220.664 139.78 222.243H144.112C144.112 220.672 143.308 219.724 141.98 219.724ZM149.702 216.56H150.977V218.79H154.316V219.891H150.992V224.534C150.992 225.429 151.622 225.915 152.783 225.915C153.246 225.915 154.073 225.892 154.293 225.869V226.962C154.088 227 153.086 227.038 152.692 227.038C150.651 227.038 149.702 226.264 149.702 224.549V219.891H147.51V218.79H149.702V216.56ZM156.947 227V215.535H158.191V220.224H158.298C158.73 219.2 159.678 218.623 160.938 218.623C162.729 218.623 163.7 219.701 163.7 221.666V227H162.41V221.992C162.41 220.513 161.803 219.807 160.513 219.807C159.155 219.807 158.237 220.756 158.237 222.159V227H156.947ZM169.541 227.152C167.363 227.152 165.974 225.733 165.974 223.51V222.265C165.974 220.042 167.363 218.623 169.541 218.623C171.718 218.623 173.107 220.042 173.107 222.265V223.51C173.107 225.733 171.718 227.152 169.541 227.152ZM169.541 219.762C168.129 219.762 167.249 220.763 167.249 222.379V223.388C167.249 225.012 168.129 226.006 169.541 226.006C170.952 226.006 171.832 225.012 171.832 223.388V222.379C171.832 220.763 170.952 219.762 169.541 219.762ZM178.242 227.137C176.337 227.137 175.093 225.763 175.093 223.646V222.114C175.093 220.004 176.337 218.631 178.242 218.631C179.433 218.631 180.313 219.139 180.67 220.042H180.806V215.535H182.119V227H180.852V225.74H180.708C180.283 226.651 179.418 227.137 178.242 227.137ZM178.621 225.961C179.972 225.961 180.844 224.989 180.844 223.464V222.281C180.844 220.763 179.972 219.792 178.621 219.792C177.263 219.792 176.391 220.763 176.391 222.281V223.464C176.391 224.982 177.263 225.961 178.621 225.961Z" fill="#EEEEEE"/>
<path d="M178.758 201.218C178.007 201.218 177.384 200.581 177.384 199.815C177.384 199.048 178.007 198.411 178.758 198.411C179.509 198.411 180.131 199.048 180.131 199.815C180.131 200.581 179.509 201.218 178.758 201.218ZM178.758 207.046C178.007 207.046 177.384 206.416 177.384 205.642C177.384 204.876 178.007 204.246 178.758 204.246C179.509 204.246 180.131 204.876 180.131 205.642C180.131 206.416 179.509 207.046 178.758 207.046ZM187.975 221.218C187.224 221.218 186.602 220.581 186.602 219.815C186.602 219.048 187.224 218.411 187.975 218.411C188.726 218.411 189.348 219.048 189.348 219.815C189.348 220.581 188.726 221.218 187.975 221.218ZM187.975 227.046C187.224 227.046 186.602 226.416 186.602 225.642C186.602 224.876 187.224 224.246 187.975 224.246C188.726 224.246 189.348 224.876 189.348 225.642C189.348 226.416 188.726 227.046 187.975 227.046Z" fill="white"/>
<path d="M207.493 221.991H206.112V217.051H207.493V221.991ZM218.623 224.646V223.577H216.096V222.431H219.973V224.76C219.973 226.816 218.425 228.228 216.217 228.228C213.645 228.228 212.158 226.498 212.158 223.501V221.551C212.158 218.554 213.645 216.824 216.217 216.824C218.494 216.824 219.92 218.212 219.973 220.481H218.623C218.562 219.054 217.591 218.091 216.195 218.091C214.427 218.091 213.509 219.282 213.509 221.551V223.501C213.509 225.769 214.434 226.961 216.202 226.961C217.697 226.961 218.623 226.08 218.623 224.646ZM228.644 226.771V228H222.18V217.051H228.644V218.28H223.523V221.831H228.363V223.007H223.523V226.771H228.644ZM235.122 228H233.787V218.28H230.479V217.051H238.43V218.28H235.122V228ZM244.362 221.991H242.981V217.051H244.362V221.991Z" fill="#FD4B28"/>
<path d="M252.198 230.519H250.977L251.918 225.587H253.625L252.198 230.519Z" fill="white"/>
<path d="M99.1717 250.768V259H97.9349V257.551H97.8287C97.3886 258.575 96.4478 259.152 95.1959 259.152C93.4052 259.152 92.434 258.082 92.434 256.109V250.768H93.7239V255.783C93.7239 257.27 94.3309 257.968 95.6132 257.968C96.9713 257.968 97.8818 257.02 97.8818 255.616V250.768H99.1717ZM104.694 255.313V257.968H107.243V259H101.773V257.968H103.434V251.8H101.606V250.768H104.679V252.869H104.846C105.149 251.344 106.173 250.555 107.759 250.555C108.23 250.555 108.677 250.623 108.95 250.737V252.186C108.571 252.05 108.04 251.959 107.592 251.959C105.771 251.959 104.694 253.218 104.694 255.313ZM117.834 259H111.013V257.93H113.828V248.605H111.035V247.535H115.117V257.93H117.834V259Z" fill="#EEEEEE"/>
<path d="M123.454 253.218C122.703 253.218 122.081 252.581 122.081 251.815C122.081 251.048 122.703 250.411 123.454 250.411C124.206 250.411 124.828 251.048 124.828 251.815C124.828 252.581 124.206 253.218 123.454 253.218ZM123.454 259.046C122.703 259.046 122.081 258.416 122.081 257.642C122.081 256.876 122.703 256.246 123.454 256.246C124.206 256.246 124.828 256.876 124.828 257.642C124.828 258.416 124.206 259.046 123.454 259.046Z" fill="white"/>
<path d="M179.493 232.991H178.112V228.051H179.493V232.991ZM184.644 239V227.535H185.888V232.224H185.994C186.427 231.2 187.375 230.623 188.635 230.623C190.425 230.623 191.396 231.701 191.396 233.666V239H190.107V233.992C190.107 232.513 189.5 231.807 188.21 231.807C186.852 231.807 185.934 232.756 185.934 234.159V239H184.644ZM195.834 228.56H197.108V230.79H200.447V231.891H197.123V236.534C197.123 237.429 197.753 237.915 198.914 237.915C199.377 237.915 200.204 237.892 200.424 237.869V238.962C200.219 239 199.218 239.038 198.823 239.038C196.782 239.038 195.834 238.264 195.834 236.549V231.891H193.641V230.79H195.834V228.56ZM205.051 228.56H206.326V230.79H209.664V231.891H206.341V236.534C206.341 237.429 206.97 237.915 208.131 237.915C208.594 237.915 209.421 237.892 209.641 237.869V238.962C209.436 239 208.435 239.038 208.04 239.038C205.999 239.038 205.051 238.264 205.051 236.549V231.891H202.858V230.79H205.051V228.56ZM216.188 230.631C218.092 230.631 219.336 232.004 219.336 234.121V235.654C219.336 237.763 218.092 239.137 216.188 239.137C214.996 239.137 214.124 238.628 213.767 237.725H213.623V241.777H212.31V230.768H213.585V232.027H213.722C214.154 231.117 215.012 230.631 216.188 230.631ZM215.816 231.815C214.458 231.815 213.593 232.786 213.593 234.303V235.487C213.593 237.012 214.458 237.983 215.816 237.983C217.174 237.983 218.039 237.005 218.039 235.487V234.303C218.039 232.786 217.174 231.815 215.816 231.815ZM221.892 232.991C221.892 231.564 223.106 230.608 224.919 230.608C226.634 230.608 227.795 231.466 227.947 232.839H226.702C226.551 232.118 225.86 231.678 224.897 231.678C223.849 231.678 223.174 232.164 223.174 232.915C223.174 233.545 223.599 233.901 224.631 234.129L225.792 234.394C227.393 234.759 228.121 235.457 228.121 236.648C228.121 238.165 226.854 239.152 224.904 239.152C223.038 239.152 221.801 238.279 221.657 236.868H222.969C223.159 237.627 223.887 238.067 224.95 238.067C226.073 238.067 226.786 237.558 226.786 236.769C226.786 236.117 226.384 235.768 225.337 235.533L224.115 235.252C222.628 234.91 221.892 234.159 221.892 232.991ZM234.106 233.218C233.355 233.218 232.733 232.581 232.733 231.815C232.733 231.048 233.355 230.411 234.106 230.411C234.857 230.411 235.479 231.048 235.479 231.815C235.479 232.581 234.857 233.218 234.106 233.218ZM234.106 239.046C233.355 239.046 232.733 238.416 232.733 237.642C232.733 236.876 233.355 236.246 234.106 236.246C234.857 236.246 235.479 236.876 235.479 237.642C235.479 238.416 234.857 239.046 234.106 239.046ZM241.282 240.039H240.023L245.357 227.012H246.624L241.282 240.039ZM250.5 240.039H249.24L254.574 227.012H255.841L250.5 240.039ZM260.923 239.144C259.353 239.144 258.306 238.158 258.306 236.663C258.306 235.206 259.353 234.341 261.227 234.243L263.488 234.129V233.385C263.488 232.353 262.858 231.784 261.712 231.784C260.764 231.784 260.096 232.186 259.884 232.892H258.617C258.768 231.572 260.043 230.669 261.727 230.669C263.662 230.669 264.77 231.655 264.77 233.37V239.008H263.541V237.771H263.412C263.017 238.651 262.122 239.144 260.923 239.144ZM261.295 238.014C262.539 238.014 263.488 237.187 263.488 236.086V235.115L261.371 235.214C260.218 235.267 259.611 235.76 259.611 236.618C259.611 237.483 260.255 238.014 261.295 238.014ZM271.491 230.631C273.395 230.631 274.64 232.004 274.64 234.121V235.654C274.64 237.763 273.395 239.137 271.491 239.137C270.3 239.137 269.427 238.628 269.071 237.725H268.926V241.777H267.614V230.768H268.888V232.027H269.025C269.458 231.117 270.315 230.631 271.491 230.631ZM271.119 231.815C269.761 231.815 268.896 232.786 268.896 234.303V235.487C268.896 237.012 269.761 237.983 271.119 237.983C272.477 237.983 273.342 237.005 273.342 235.487V234.303C273.342 232.786 272.477 231.815 271.119 231.815ZM280.336 228.749C279.729 228.749 279.267 228.294 279.267 227.687C279.267 227.088 279.729 226.632 280.336 226.632C280.943 226.632 281.406 227.088 281.406 227.687C281.406 228.294 280.943 228.749 280.336 228.749ZM283.789 239H276.968V237.93H279.79V231.837H276.99V230.768H281.065V237.93H283.789V239ZM289.409 239.046C288.658 239.046 288.036 238.416 288.036 237.642C288.036 236.876 288.658 236.246 289.409 236.246C290.161 236.246 290.783 236.876 290.783 237.642C290.783 238.416 290.161 239.046 289.409 239.046ZM302.056 233.332H300.781C300.622 232.369 299.818 231.762 298.756 231.762C297.322 231.762 296.525 232.74 296.525 234.508V235.252C296.525 237.02 297.322 237.991 298.756 237.991C299.818 237.991 300.622 237.391 300.781 236.451H302.056C301.851 238.127 300.599 239.152 298.778 239.152C296.54 239.152 295.235 237.778 295.235 235.419V234.341C295.235 231.982 296.54 230.608 298.778 230.608C300.599 230.608 301.844 231.64 302.056 233.332ZM304.467 239V227.535H305.712V232.224H305.818C306.251 231.2 307.199 230.623 308.458 230.623C310.249 230.623 311.22 231.701 311.22 233.666V239H309.93V233.992C309.93 232.513 309.323 231.807 308.034 231.807C306.675 231.807 305.757 232.756 305.757 234.159V239H304.467ZM319.284 236.876H320.536C320.286 238.234 318.981 239.152 317.251 239.152C314.99 239.152 313.677 237.794 313.677 235.449V234.212C313.677 232.042 315.066 230.616 317.16 230.616C319.299 230.616 320.559 232.035 320.559 234.417V235.221H314.952V235.555C314.952 237.065 315.847 238.036 317.251 238.036C318.29 238.036 319.057 237.596 319.284 236.876ZM317.152 231.724C315.779 231.724 314.952 232.664 314.952 234.243H319.284C319.284 232.672 318.48 231.724 317.152 231.724ZM329.708 233.332H328.433C328.274 232.369 327.47 231.762 326.407 231.762C324.973 231.762 324.177 232.74 324.177 234.508V235.252C324.177 237.02 324.973 237.991 326.407 237.991C327.47 237.991 328.274 237.391 328.433 236.451H329.708C329.503 238.127 328.251 239.152 326.43 239.152C324.192 239.152 322.887 237.778 322.887 235.419V234.341C322.887 231.982 324.192 230.608 326.43 230.608C328.251 230.608 329.495 231.64 329.708 233.332ZM334.122 234.463L337.711 230.768H339.274L336.08 234.03L339.502 239H337.969L335.162 234.91L334.024 236.003V239H332.734V227.535H334.024V234.463H334.122ZM348.309 239H341.488V237.93H344.303V228.605H341.511V227.535H345.593V237.93H348.309V239ZM351.623 241.929C351.434 241.929 351.183 241.921 351.069 241.906V240.775C351.168 240.798 351.403 240.806 351.525 240.806C352.299 240.806 352.724 240.457 353.065 239.501L353.209 239.053L350.182 230.768H351.585L353.892 237.657H353.991L356.29 230.768H357.663L354.56 239.303C353.839 241.329 353.148 241.929 351.623 241.929ZM359.771 239V227.535H361.015V232.224H361.121C361.554 231.2 362.502 230.623 363.762 230.623C365.552 230.623 366.524 231.701 366.524 233.666V239H365.234V233.992C365.234 232.513 364.627 231.807 363.337 231.807C361.979 231.807 361.061 232.756 361.061 234.159V239H359.771ZM371.848 230.631C373.024 230.631 373.882 231.117 374.314 232.027H374.451V230.768H375.726V241.777H374.413V237.725H374.269C373.912 238.628 373.04 239.137 371.848 239.137C369.944 239.137 368.7 237.763 368.7 235.654V234.121C368.7 232.004 369.944 230.631 371.848 230.631ZM372.22 231.815C370.862 231.815 369.997 232.786 369.997 234.303V235.487C369.997 237.005 370.862 237.983 372.22 237.983C373.578 237.983 374.443 237.012 374.443 235.487V234.303C374.443 232.786 373.578 231.815 372.22 231.815ZM381.582 239.046C380.83 239.046 380.208 238.416 380.208 237.642C380.208 236.876 380.83 236.246 381.582 236.246C382.333 236.246 382.955 236.876 382.955 237.642C382.955 238.416 382.333 239.046 381.582 239.046ZM394.228 233.332H392.954C392.794 232.369 391.99 231.762 390.928 231.762C389.494 231.762 388.697 232.74 388.697 234.508V235.252C388.697 237.02 389.494 237.991 390.928 237.991C391.99 237.991 392.794 237.391 392.954 236.451H394.228C394.023 238.127 392.772 239.152 390.951 239.152C388.712 239.152 387.407 237.778 387.407 235.419V234.341C387.407 231.982 388.712 230.608 390.951 230.608C392.772 230.608 394.016 231.64 394.228 233.332ZM400.016 239.152C397.838 239.152 396.45 237.733 396.45 235.51V234.265C396.45 232.042 397.838 230.623 400.016 230.623C402.194 230.623 403.582 232.042 403.582 234.265V235.51C403.582 237.733 402.194 239.152 400.016 239.152ZM400.016 231.762C398.605 231.762 397.725 232.763 397.725 234.379V235.388C397.725 237.012 398.605 238.006 400.016 238.006C401.427 238.006 402.307 237.012 402.307 235.388V234.379C402.307 232.763 401.427 231.762 400.016 231.762ZM413.201 232.938V239H412.041V233.317C412.041 232.315 411.676 231.792 410.986 231.792C410.265 231.792 409.825 232.422 409.825 233.446V239H408.672V233.309C408.672 232.315 408.308 231.792 407.61 231.792C406.881 231.792 406.426 232.422 406.426 233.446V239H405.265V230.768H406.418V231.929H406.555C406.76 231.101 407.352 230.616 408.125 230.616C408.899 230.616 409.446 231.094 409.62 231.906H409.757C409.969 231.117 410.629 230.616 411.456 230.616C412.602 230.616 413.201 231.413 413.201 232.938ZM416.409 240.039H415.15L420.484 227.012H421.751L416.409 240.039ZM428.184 230.631C430.088 230.631 431.332 232.004 431.332 234.121V235.654C431.332 237.763 430.088 239.137 428.184 239.137C426.992 239.137 426.12 238.628 425.763 237.725H425.619V241.777H424.306V230.768H425.581V232.027H425.718C426.15 231.117 427.008 230.631 428.184 230.631ZM427.812 231.815C426.454 231.815 425.589 232.786 425.589 234.303V235.487C425.589 237.012 426.454 237.983 427.812 237.983C429.17 237.983 430.035 237.005 430.035 235.487V234.303C430.035 232.786 429.17 231.815 427.812 231.815ZM440.254 230.768V239H439.017V237.551H438.911C438.471 238.575 437.53 239.152 436.278 239.152C434.487 239.152 433.516 238.082 433.516 236.109V230.768H434.806V235.783C434.806 237.27 435.413 237.968 436.695 237.968C438.053 237.968 438.964 237.02 438.964 235.616V230.768H440.254ZM446.618 239.137C445.442 239.137 444.577 238.651 444.152 237.74H444.008V239H442.741V227.535H444.053V232.042H444.19C444.554 231.139 445.427 230.631 446.618 230.631C448.522 230.631 449.767 232.004 449.767 234.114V235.646C449.767 237.763 448.522 239.137 446.618 239.137ZM446.239 237.961C447.604 237.961 448.469 236.982 448.469 235.464V234.281C448.469 232.763 447.604 231.792 446.239 231.792C444.888 231.792 444.023 232.763 444.023 234.281V235.464C444.023 236.989 444.888 237.961 446.239 237.961ZM458.916 239H452.095V237.93H454.91V228.605H452.117V227.535H456.199V237.93H458.916V239ZM464.681 228.749C464.074 228.749 463.611 228.294 463.611 227.687C463.611 227.088 464.074 226.632 464.681 226.632C465.288 226.632 465.751 227.088 465.751 227.687C465.751 228.294 465.288 228.749 464.681 228.749ZM468.133 239H461.312V237.93H464.134V231.837H461.335V230.768H465.409V237.93H468.133V239ZM477.183 233.332H475.909C475.749 232.369 474.945 231.762 473.883 231.762C472.449 231.762 471.652 232.74 471.652 234.508V235.252C471.652 237.02 472.449 237.991 473.883 237.991C474.945 237.991 475.749 237.391 475.909 236.451H477.183C476.978 238.127 475.726 239.152 473.905 239.152C471.667 239.152 470.362 237.778 470.362 235.419V234.341C470.362 231.982 471.667 230.608 473.905 230.608C475.726 230.608 476.971 231.64 477.183 233.332ZM486.985 234.743H478.957V233.545H486.985V234.743ZM175.806 252.991C175.806 251.564 177.02 250.608 178.833 250.608C180.548 250.608 181.709 251.466 181.861 252.839H180.616C180.464 252.118 179.774 251.678 178.81 251.678C177.763 251.678 177.088 252.164 177.088 252.915C177.088 253.545 177.513 253.901 178.545 254.129L179.706 254.394C181.307 254.759 182.035 255.457 182.035 256.648C182.035 258.165 180.768 259.152 178.818 259.152C176.952 259.152 175.715 258.279 175.571 256.868H176.883C177.073 257.627 177.801 258.067 178.864 258.067C179.986 258.067 180.7 257.558 180.7 256.769C180.7 256.117 180.298 255.768 179.251 255.533L178.029 255.252C176.542 254.91 175.806 254.159 175.806 252.991ZM186.616 248.56H187.891V250.79H191.23V251.891H187.906V256.534C187.906 257.429 188.536 257.915 189.697 257.915C190.16 257.915 190.987 257.892 191.207 257.869V258.962C191.002 259 190 259.038 189.606 259.038C187.565 259.038 186.616 258.264 186.616 256.549V251.891H184.424V250.79H186.616V248.56ZM196.403 259.144C194.832 259.144 193.785 258.158 193.785 256.663C193.785 255.206 194.832 254.341 196.706 254.243L198.967 254.129V253.385C198.967 252.353 198.337 251.784 197.192 251.784C196.243 251.784 195.576 252.186 195.363 252.892H194.096C194.248 251.572 195.523 250.669 197.207 250.669C199.142 250.669 200.249 251.655 200.249 253.37V259.008H199.02V257.771H198.891C198.497 258.651 197.601 259.144 196.403 259.144ZM196.774 258.014C198.019 258.014 198.967 257.187 198.967 256.086V255.115L196.85 255.214C195.697 255.267 195.09 255.76 195.09 256.618C195.09 257.483 195.735 258.014 196.774 258.014ZM205.051 248.56H206.326V250.79H209.664V251.891H206.341V256.534C206.341 257.429 206.97 257.915 208.131 257.915C208.594 257.915 209.421 257.892 209.641 257.869V258.962C209.436 259 208.435 259.038 208.04 259.038C205.999 259.038 205.051 258.264 205.051 256.549V251.891H202.858V250.79H205.051V248.56ZM212.675 252.991C212.675 251.564 213.889 250.608 215.702 250.608C217.417 250.608 218.578 251.466 218.729 252.839H217.485C217.333 252.118 216.643 251.678 215.679 251.678C214.632 251.678 213.957 252.164 213.957 252.915C213.957 253.545 214.382 253.901 215.414 254.129L216.575 254.394C218.176 254.759 218.904 255.457 218.904 256.648C218.904 258.165 217.637 259.152 215.687 259.152C213.82 259.152 212.584 258.279 212.439 256.868H213.752C213.942 257.627 214.67 258.067 215.732 258.067C216.855 258.067 217.569 257.558 217.569 256.769C217.569 256.117 217.166 255.768 216.119 255.533L214.898 255.252C213.411 254.91 212.675 254.159 212.675 252.991ZM225.579 252.991H224.198V248.051H225.579V252.991Z" fill="#FD4B28"/>
<path d="M233.416 261.519H232.194L233.135 256.587H234.842L233.416 261.519Z" fill="white"/>
<path d="M131.837 259.144C130.266 259.144 129.219 258.158 129.219 256.663C129.219 255.206 130.266 254.341 132.141 254.243L134.402 254.129V253.385C134.402 252.353 133.772 251.784 132.626 251.784C131.678 251.784 131.01 252.186 130.798 252.892H129.531C129.682 251.572 130.957 250.669 132.641 250.669C134.576 250.669 135.684 251.655 135.684 253.37V259.008H134.455V257.771H134.326C133.931 258.651 133.036 259.144 131.837 259.144ZM132.209 258.014C133.453 258.014 134.402 257.187 134.402 256.086V255.115L132.285 255.214C131.131 255.267 130.524 255.76 130.524 256.618C130.524 257.483 131.169 258.014 132.209 258.014ZM138.892 252.991C138.892 251.564 140.106 250.608 141.919 250.608C143.634 250.608 144.795 251.466 144.947 252.839H143.702C143.551 252.118 142.86 251.678 141.897 251.678C140.849 251.678 140.174 252.164 140.174 252.915C140.174 253.545 140.599 253.901 141.631 254.129L142.792 254.394C144.393 254.759 145.121 255.457 145.121 256.648C145.121 258.165 143.854 259.152 141.904 259.152C140.038 259.152 138.801 258.279 138.657 256.868H139.969C140.159 257.627 140.887 258.067 141.95 258.067C143.073 258.067 143.786 257.558 143.786 256.769C143.786 256.117 143.384 255.768 142.337 255.533L141.115 255.252C139.628 254.91 138.892 254.159 138.892 252.991ZM148.109 252.991C148.109 251.564 149.323 250.608 151.136 250.608C152.851 250.608 154.012 251.466 154.164 252.839H152.92C152.768 252.118 152.077 251.678 151.114 251.678C150.067 251.678 149.391 252.164 149.391 252.915C149.391 253.545 149.816 253.901 150.848 254.129L152.009 254.394C153.61 254.759 154.338 255.457 154.338 256.648C154.338 258.165 153.071 259.152 151.121 259.152C149.255 259.152 148.018 258.279 147.874 256.868H149.187C149.376 257.627 150.105 258.067 151.167 258.067C152.29 258.067 153.003 257.558 153.003 256.769C153.003 256.117 152.601 255.768 151.554 255.533L150.332 255.252C148.845 254.91 148.109 254.159 148.109 252.991ZM162.546 256.876H163.798C163.548 258.234 162.243 259.152 160.513 259.152C158.252 259.152 156.939 257.794 156.939 255.449V254.212C156.939 252.042 158.328 250.616 160.422 250.616C162.562 250.616 163.821 252.035 163.821 254.417V255.221H158.214V255.555C158.214 257.065 159.109 258.036 160.513 258.036C161.553 258.036 162.319 257.596 162.546 256.876ZM160.414 251.724C159.041 251.724 158.214 252.664 158.214 254.243H162.546C162.546 252.672 161.742 251.724 160.414 251.724ZM169.214 255.313V257.968H171.764V259H166.293V257.968H167.955V251.8H166.126V250.768H169.199V252.869H169.366C169.67 251.344 170.694 250.555 172.28 250.555C172.75 250.555 173.198 250.623 173.471 250.737V252.186C173.091 252.05 172.56 251.959 172.113 251.959C170.292 251.959 169.214 253.218 169.214 255.313ZM177.354 248.56H178.629V250.79H181.967V251.891H178.644V256.534C178.644 257.429 179.274 257.915 180.435 257.915C180.897 257.915 181.724 257.892 181.945 257.869V258.962C181.74 259 180.738 259.038 180.344 259.038C178.303 259.038 177.354 258.264 177.354 256.549V251.891H175.161V250.79H177.354V248.56ZM188.119 248.749C187.512 248.749 187.049 248.294 187.049 247.687C187.049 247.088 187.512 246.632 188.119 246.632C188.726 246.632 189.189 247.088 189.189 247.687C189.189 248.294 188.726 248.749 188.119 248.749ZM191.571 259H184.75V257.93H187.573V251.837H184.773V250.768H188.848V257.93H191.571V259ZM197.192 259.152C195.015 259.152 193.626 257.733 193.626 255.51V254.265C193.626 252.042 195.015 250.623 197.192 250.623C199.37 250.623 200.758 252.042 200.758 254.265V255.51C200.758 257.733 199.37 259.152 197.192 259.152ZM197.192 251.762C195.781 251.762 194.901 252.763 194.901 254.379V255.388C194.901 257.012 195.781 258.006 197.192 258.006C198.603 258.006 199.484 257.012 199.484 255.388V254.379C199.484 252.763 198.603 251.762 197.192 251.762ZM203.041 259V250.768H204.277V252.217H204.384C204.824 251.193 205.764 250.616 207.016 250.616C208.807 250.616 209.778 251.686 209.778 253.658V259H208.488V253.985C208.488 252.498 207.881 251.8 206.599 251.8C205.241 251.8 204.33 252.748 204.33 254.152V259H203.041ZM212.63 252.991C212.63 251.564 213.844 250.608 215.657 250.608C217.372 250.608 218.533 251.466 218.684 252.839H217.44C217.288 252.118 216.598 251.678 215.634 251.678C214.587 251.678 213.912 252.164 213.912 252.915C213.912 253.545 214.337 253.901 215.369 254.129L216.53 254.394C218.13 254.759 218.859 255.457 218.859 256.648C218.859 258.165 217.592 259.152 215.642 259.152C213.775 259.152 212.539 258.279 212.394 256.868H213.707C213.897 257.627 214.625 258.067 215.687 258.067C216.81 258.067 217.524 257.558 217.524 256.769C217.524 256.117 217.121 255.768 216.074 255.533L214.853 255.252C213.366 254.91 212.63 254.159 212.63 252.991ZM93.8301 267.012H97.8287V268.051H95.082V279H97.8439V280.039H93.8301V267.012Z" fill="#EEEEEE"/>
<path d="M224.844 253.218C224.093 253.218 223.471 252.581 223.471 251.815C223.471 251.048 224.093 250.411 224.844 250.411C225.595 250.411 226.217 251.048 226.217 251.815C226.217 252.581 225.595 253.218 224.844 253.218ZM224.844 259.046C224.093 259.046 223.471 258.416 223.471 257.642C223.471 256.876 224.093 256.246 224.844 256.246C225.595 256.246 226.217 256.876 226.217 257.642C226.217 258.416 225.595 259.046 224.844 259.046Z" fill="white"/>
<path d="M153.633 280L152.685 276.859H148.876L147.92 280H146.561L150.09 269.051H151.516L155.044 280H153.633ZM150.765 270.66L149.225 275.713H152.336L150.803 270.66H150.765ZM157.023 273.991C157.023 272.564 158.237 271.608 160.05 271.608C161.765 271.608 162.926 272.466 163.078 273.839H161.833C161.682 273.118 160.991 272.678 160.028 272.678C158.981 272.678 158.305 273.164 158.305 273.915C158.305 274.545 158.73 274.901 159.762 275.129L160.923 275.394C162.524 275.759 163.252 276.457 163.252 277.648C163.252 279.165 161.985 280.152 160.035 280.152C158.169 280.152 156.932 279.279 156.788 277.868H158.1C158.29 278.627 159.019 279.067 160.081 279.067C161.204 279.067 161.917 278.558 161.917 277.769C161.917 277.117 161.515 276.768 160.468 276.533L159.246 276.252C157.759 275.91 157.023 275.159 157.023 273.991ZM166.24 273.991C166.24 272.564 167.454 271.608 169.268 271.608C170.982 271.608 172.143 272.466 172.295 273.839H171.051C170.899 273.118 170.208 272.678 169.245 272.678C168.198 272.678 167.523 273.164 167.523 273.915C167.523 274.545 167.947 274.901 168.979 275.129L170.14 275.394C171.741 275.759 172.47 276.457 172.47 277.648C172.47 279.165 171.202 280.152 169.252 280.152C167.386 280.152 166.149 279.279 166.005 277.868H167.318C167.507 278.627 168.236 279.067 169.298 279.067C170.421 279.067 171.134 278.558 171.134 277.769C171.134 277.117 170.732 276.768 169.685 276.533L168.463 276.252C166.976 275.91 166.24 275.159 166.24 273.991ZM180.678 277.876H181.93C181.679 279.234 180.374 280.152 178.644 280.152C176.383 280.152 175.07 278.794 175.07 276.449V275.212C175.07 273.042 176.459 271.616 178.553 271.616C180.693 271.616 181.952 273.035 181.952 275.417V276.221H176.345V276.555C176.345 278.065 177.241 279.036 178.644 279.036C179.684 279.036 180.45 278.596 180.678 277.876ZM178.546 272.724C177.172 272.724 176.345 273.664 176.345 275.243H180.678C180.678 273.672 179.873 272.724 178.546 272.724ZM187.345 276.313V278.968H189.895V280H184.424V278.968H186.086V272.8H184.257V271.768H187.33V273.869H187.497C187.801 272.344 188.825 271.555 190.411 271.555C190.881 271.555 191.329 271.623 191.602 271.737V273.186C191.223 273.05 190.692 272.959 190.244 272.959C188.423 272.959 187.345 274.218 187.345 276.313ZM195.485 269.56H196.76V271.79H200.098V272.891H196.775V277.534C196.775 278.429 197.405 278.915 198.566 278.915C199.029 278.915 199.856 278.892 200.076 278.869V279.962C199.871 280 198.869 280.038 198.475 280.038C196.434 280.038 195.485 279.264 195.485 277.549V272.891H193.292V271.79H195.485V269.56ZM206.25 269.749C205.643 269.749 205.18 269.294 205.18 268.687C205.18 268.088 205.643 267.632 206.25 267.632C206.857 267.632 207.32 268.088 207.32 268.687C207.32 269.294 206.857 269.749 206.25 269.749ZM209.703 280H202.881V278.93H205.704V272.837H202.904V271.768H206.979V278.93H209.703V280ZM215.323 280.152C213.146 280.152 211.757 278.733 211.757 276.51V275.265C211.757 273.042 213.146 271.623 215.323 271.623C217.501 271.623 218.889 273.042 218.889 275.265V276.51C218.889 278.733 217.501 280.152 215.323 280.152ZM215.323 272.762C213.912 272.762 213.032 273.763 213.032 275.379V276.388C213.032 278.012 213.912 279.006 215.323 279.006C216.735 279.006 217.615 278.012 217.615 276.388V275.379C217.615 273.763 216.735 272.762 215.323 272.762ZM221.172 280V271.768H222.409V273.217H222.515C222.955 272.193 223.896 271.616 225.148 271.616C226.938 271.616 227.909 272.686 227.909 274.658V280H226.62V274.985C226.62 273.498 226.013 272.8 224.73 272.8C223.372 272.8 222.462 273.748 222.462 275.152V280H221.172ZM233.963 280H230.381V269.051H233.925C235.943 269.051 237.157 270.06 237.157 271.76C237.157 272.966 236.375 273.96 235.275 274.15V274.264C236.747 274.408 237.711 275.478 237.711 276.942C237.711 278.862 236.315 280 233.963 280ZM231.709 270.205V273.778H233.416C234.972 273.778 235.806 273.149 235.806 271.995C235.806 270.85 235.017 270.205 233.621 270.205H231.709ZM231.709 278.839H233.674C235.412 278.839 236.322 278.156 236.322 276.851C236.322 275.561 235.404 274.894 233.629 274.894H231.709V278.839ZM246.344 271.768V280H245.107V278.551H245.001C244.561 279.575 243.62 280.152 242.368 280.152C240.577 280.152 239.606 279.082 239.606 277.109V271.768H240.896V276.783C240.896 278.27 241.503 278.968 242.785 278.968C244.143 278.968 245.054 278.02 245.054 276.616V271.768H246.344ZM252.336 269.749C251.729 269.749 251.267 269.294 251.267 268.687C251.267 268.088 251.729 267.632 252.336 267.632C252.943 267.632 253.406 268.088 253.406 268.687C253.406 269.294 252.943 269.749 252.336 269.749ZM255.789 280H248.968V278.93H251.79V272.837H248.99V271.768H253.065V278.93H255.789V280ZM265.006 280H258.185V278.93H261V269.605H258.208V268.535H262.29V278.93H265.006V280ZM270.111 280.137C268.206 280.137 266.962 278.763 266.962 276.646V275.114C266.962 273.004 268.206 271.631 270.111 271.631C271.302 271.631 272.182 272.139 272.539 273.042H272.675V268.535H273.988V280H272.721V278.74H272.577C272.152 279.651 271.287 280.137 270.111 280.137ZM270.49 278.961C271.841 278.961 272.713 277.989 272.713 276.464V275.281C272.713 273.763 271.841 272.792 270.49 272.792C269.132 272.792 268.259 273.763 268.259 275.281V276.464C268.259 277.982 269.132 278.961 270.49 278.961ZM282.067 277.876H283.319C283.069 279.234 281.763 280.152 280.034 280.152C277.772 280.152 276.46 278.794 276.46 276.449V275.212C276.46 273.042 277.848 271.616 279.942 271.616C282.082 271.616 283.342 273.035 283.342 275.417V276.221H277.735V276.555C277.735 278.065 278.63 279.036 280.034 279.036C281.073 279.036 281.839 278.596 282.067 277.876ZM279.935 272.724C278.562 272.724 277.735 273.664 277.735 275.243H282.067C282.067 273.672 281.263 272.724 279.935 272.724ZM288.735 276.313V278.968H291.284V280H285.814V278.968H287.475V272.8H285.647V271.768H288.72V273.869H288.887C289.19 272.344 290.214 271.555 291.8 271.555C292.271 271.555 292.718 271.623 292.991 271.737V273.186C292.612 273.05 292.081 272.959 291.633 272.959C289.812 272.959 288.735 274.218 288.735 276.313ZM298.278 280.046C297.527 280.046 296.905 279.416 296.905 278.642C296.905 277.876 297.527 277.246 298.278 277.246C299.029 277.246 299.652 277.876 299.652 278.642C299.652 279.416 299.029 280.046 298.278 280.046ZM304.498 273.991C304.498 272.564 305.712 271.608 307.526 271.608C309.241 271.608 310.401 272.466 310.553 273.839H309.309C309.157 273.118 308.467 272.678 307.503 272.678C306.456 272.678 305.781 273.164 305.781 273.915C305.781 274.545 306.206 274.901 307.238 275.129L308.398 275.394C309.999 275.759 310.728 276.457 310.728 277.648C310.728 279.165 309.461 280.152 307.511 280.152C305.644 280.152 304.407 279.279 304.263 277.868H305.576C305.766 278.627 306.494 279.067 307.556 279.067C308.679 279.067 309.392 278.558 309.392 277.769C309.392 277.117 308.99 276.768 307.943 276.533L306.722 276.252C305.234 275.91 304.498 275.159 304.498 273.991ZM315.309 269.56H316.584V271.79H319.922V272.891H316.599V277.534C316.599 278.429 317.229 278.915 318.39 278.915C318.852 278.915 319.679 278.892 319.899 278.869V279.962C319.695 280 318.693 280.038 318.299 280.038C316.257 280.038 315.309 279.264 315.309 277.549V272.891H313.116V271.79H315.309V269.56ZM325.095 280.144C323.525 280.144 322.478 279.158 322.478 277.663C322.478 276.206 323.525 275.341 325.399 275.243L327.66 275.129V274.385C327.66 273.353 327.03 272.784 325.884 272.784C324.936 272.784 324.268 273.186 324.056 273.892H322.789C322.94 272.572 324.215 271.669 325.9 271.669C327.834 271.669 328.942 272.655 328.942 274.37V280.008H327.713V278.771H327.584C327.189 279.651 326.294 280.144 325.095 280.144ZM325.467 279.014C326.711 279.014 327.66 278.187 327.66 277.086V276.115L325.543 276.214C324.39 276.267 323.783 276.76 323.783 277.618C323.783 278.483 324.428 279.014 325.467 279.014ZM333.743 269.56H335.018V271.79H338.357V272.891H335.033V277.534C335.033 278.429 335.663 278.915 336.824 278.915C337.287 278.915 338.114 278.892 338.334 278.869V279.962C338.129 280 337.127 280.038 336.733 280.038C334.692 280.038 333.743 279.264 333.743 277.549V272.891H331.551V271.79H333.743V269.56ZM347.733 271.768V280H346.496V278.551H346.39C345.95 279.575 345.009 280.152 343.757 280.152C341.967 280.152 340.996 279.082 340.996 277.109V271.768H342.285V276.783C342.285 278.27 342.892 278.968 344.175 278.968C345.533 278.968 346.443 278.02 346.443 276.616V271.768H347.733ZM350.585 273.991C350.585 272.564 351.799 271.608 353.612 271.608C355.327 271.608 356.488 272.466 356.639 273.839H355.395C355.243 273.118 354.553 272.678 353.589 272.678C352.542 272.678 351.867 273.164 351.867 273.915C351.867 274.545 352.292 274.901 353.324 275.129L354.484 275.394C356.085 275.759 356.814 276.457 356.814 277.648C356.814 279.165 355.547 280.152 353.597 280.152C351.73 280.152 350.493 279.279 350.349 277.868H351.662C351.852 278.627 352.58 279.067 353.642 279.067C354.765 279.067 355.478 278.558 355.478 277.769C355.478 277.117 355.076 276.768 354.029 276.533L352.808 276.252C351.321 275.91 350.585 275.159 350.585 273.991ZM363.049 278.961C364.506 278.961 365.432 278.088 365.47 276.677H366.82C366.82 278.794 365.287 280.228 363.049 280.228C360.477 280.228 358.982 278.49 358.982 275.501V273.551C358.982 270.561 360.477 268.824 363.049 268.824C365.356 268.824 366.782 270.227 366.828 272.564H365.47C365.424 271.085 364.445 270.091 363.042 270.091C361.274 270.091 360.348 271.282 360.348 273.551V275.501C360.348 277.769 361.274 278.961 363.049 278.961ZM372.016 280.152C369.838 280.152 368.45 278.733 368.45 276.51V275.265C368.45 273.042 369.838 271.623 372.016 271.623C374.194 271.623 375.582 273.042 375.582 275.265V276.51C375.582 278.733 374.194 280.152 372.016 280.152ZM372.016 272.762C370.605 272.762 369.725 273.763 369.725 275.379V276.388C369.725 278.012 370.605 279.006 372.016 279.006C373.427 279.006 374.307 278.012 374.307 276.388V275.379C374.307 273.763 373.427 272.762 372.016 272.762ZM380.717 280.137C378.813 280.137 377.568 278.763 377.568 276.646V275.114C377.568 273.004 378.813 271.631 380.717 271.631C381.909 271.631 382.789 272.139 383.145 273.042H383.282V268.535H384.594V280H383.327V278.74H383.183C382.758 279.651 381.893 280.137 380.717 280.137ZM381.097 278.961C382.447 278.961 383.32 277.989 383.32 276.464V275.281C383.32 273.763 382.447 272.792 381.097 272.792C379.738 272.792 378.866 273.763 378.866 275.281V276.464C378.866 277.982 379.738 278.961 381.097 278.961ZM392.674 277.876H393.925C393.675 279.234 392.37 280.152 390.64 280.152C388.379 280.152 387.066 278.794 387.066 276.449V275.212C387.066 273.042 388.455 271.616 390.549 271.616C392.689 271.616 393.948 273.035 393.948 275.417V276.221H388.341V276.555C388.341 278.065 389.236 279.036 390.64 279.036C391.68 279.036 392.446 278.596 392.674 277.876ZM390.541 272.724C389.168 272.724 388.341 273.664 388.341 275.243H392.674C392.674 273.672 391.869 272.724 390.541 272.724ZM418.102 280.046C417.351 280.046 416.729 279.416 416.729 278.642C416.729 277.876 417.351 277.246 418.102 277.246C418.853 277.246 419.475 277.876 419.475 278.642C419.475 279.416 418.853 280.046 418.102 280.046ZM429.542 277.876H430.794C430.544 279.234 429.239 280.152 427.509 280.152C425.248 280.152 423.935 278.794 423.935 276.449V275.212C423.935 273.042 425.324 271.616 427.418 271.616C429.558 271.616 430.817 273.035 430.817 275.417V276.221H425.21V276.555C425.21 278.065 426.105 279.036 427.509 279.036C428.548 279.036 429.315 278.596 429.542 277.876ZM427.41 272.724C426.037 272.724 425.21 273.664 425.21 275.243H429.542C429.542 273.672 428.738 272.724 427.41 272.724ZM436.021 271.631C437.197 271.631 438.054 272.117 438.486 273.027H438.623V271.768H439.898V282.777H438.585V278.725H438.441C438.084 279.628 437.212 280.137 436.021 280.137C434.116 280.137 432.872 278.763 432.872 276.654V275.121C432.872 273.004 434.116 271.631 436.021 271.631ZM436.392 272.815C435.034 272.815 434.169 273.786 434.169 275.303V276.487C434.169 278.005 435.034 278.983 436.392 278.983C437.751 278.983 438.615 278.012 438.615 276.487V275.303C438.615 273.786 437.751 272.815 436.392 272.815ZM449.123 271.768V280H447.886V278.551H447.78C447.34 279.575 446.399 280.152 445.147 280.152C443.356 280.152 442.385 279.082 442.385 277.109V271.768H443.675V276.783C443.675 278.27 444.282 278.968 445.564 278.968C446.922 278.968 447.833 278.02 447.833 276.616V271.768H449.123ZM454.136 280.144C452.566 280.144 451.519 279.158 451.519 277.663C451.519 276.206 452.566 275.341 454.44 275.243L456.701 275.129V274.385C456.701 273.353 456.071 272.784 454.925 272.784C453.977 272.784 453.309 273.186 453.097 273.892H451.83C451.981 272.572 453.256 271.669 454.941 271.669C456.875 271.669 457.983 272.655 457.983 274.37V280.008H456.754V278.771H456.625C456.23 279.651 455.335 280.144 454.136 280.144ZM454.508 279.014C455.752 279.014 456.701 278.187 456.701 277.086V276.115L454.584 276.214C453.431 276.267 452.824 276.76 452.824 277.618C452.824 278.483 453.469 279.014 454.508 279.014ZM467.785 280H460.964V278.93H463.778V269.605H460.986V268.535H465.068V278.93H467.785V280ZM470.408 273.991C470.408 272.564 471.622 271.608 473.436 271.608C475.15 271.608 476.311 272.466 476.463 273.839H475.219C475.067 273.118 474.377 272.678 473.413 272.678C472.366 272.678 471.691 273.164 471.691 273.915C471.691 274.545 472.116 274.901 473.147 275.129L474.308 275.394C475.909 275.759 476.638 276.457 476.638 277.648C476.638 279.165 475.371 280.152 473.421 280.152C471.554 280.152 470.317 279.279 470.173 277.868H471.486C471.675 278.627 472.404 279.067 473.466 279.067C474.589 279.067 475.302 278.558 475.302 277.769C475.302 277.117 474.9 276.768 473.853 276.533L472.631 276.252C471.144 275.91 470.408 275.159 470.408 273.991ZM488.35 272.132C488.35 270.205 489.776 268.824 491.772 268.824C493.782 268.824 495.163 270.068 495.163 271.897C495.163 273.035 494.647 273.945 492.902 275.85L490.322 278.657V278.786H495.338V280H488.41V279.074L492.113 274.954C493.501 273.399 493.835 272.815 493.835 271.95C493.835 270.774 493.008 270 491.734 270C490.474 270 489.639 270.842 489.639 272.132V272.177H488.35V272.132ZM150.81 300.25C148.428 300.25 147.115 298.217 147.115 294.529C147.115 290.842 148.428 288.809 150.81 288.809C153.185 288.809 154.506 290.842 154.506 294.529C154.506 298.217 153.185 300.25 150.81 300.25ZM148.443 294.529C148.443 294.962 148.466 295.364 148.496 295.736L152.912 292.048C152.556 290.69 151.842 289.992 150.81 289.992C149.263 289.992 148.443 291.555 148.443 294.529ZM150.81 299.067C152.358 299.067 153.17 297.496 153.17 294.529C153.17 294.089 153.155 293.687 153.117 293.308L148.716 297.026C149.073 298.369 149.779 299.067 150.81 299.067ZM160.028 300.25C157.645 300.25 156.333 298.217 156.333 294.529C156.333 290.842 157.645 288.809 160.028 288.809C162.403 288.809 163.723 290.842 163.723 294.529C163.723 298.217 162.403 300.25 160.028 300.25ZM157.66 294.529C157.66 294.962 157.683 295.364 157.713 295.736L162.129 292.048C161.773 290.69 161.06 289.992 160.028 289.992C158.48 289.992 157.66 291.555 157.66 294.529ZM160.028 299.067C161.575 299.067 162.387 297.496 162.387 294.529C162.387 294.089 162.372 293.687 162.334 293.308L157.934 297.026C158.29 298.369 158.996 299.067 160.028 299.067Z" fill="#00B51D"/>
<path d="M398.014 274.522C398.014 271.95 398.788 269.711 400.297 267.997H401.58C400.009 270.205 399.349 272.139 399.349 274.522C399.349 276.904 400.009 278.839 401.58 281.047H400.297C398.788 279.332 398.014 277.102 398.014 274.522ZM410.539 274.522C410.539 277.102 409.765 279.332 408.255 281.047H406.973C408.543 278.839 409.204 276.904 409.204 274.522C409.204 272.139 408.543 270.205 406.973 267.997H408.255C409.765 269.711 410.539 271.95 410.539 274.522ZM480.969 274.522C480.969 271.95 481.742 269.711 483.252 267.997H484.535C482.964 270.205 482.304 272.139 482.304 274.522C482.304 276.904 482.964 278.839 484.535 281.047H483.252C481.742 279.332 480.969 277.102 480.969 274.522ZM170.891 294.522C170.891 297.102 170.117 299.332 168.608 301.047H167.325C168.896 298.839 169.556 296.904 169.556 294.522C169.556 292.139 168.896 290.205 167.325 287.997H168.608C170.117 289.711 170.891 291.95 170.891 294.522Z" fill="#EEEEEE"/>
<path d="M134.713 299.012V312.039H130.699V311H133.453V300.051H130.714V299.012H134.713ZM111.278 333.039V332H112.105C113.243 332 113.463 331.734 113.463 330.414V328.388C113.463 327.326 114.26 326.621 115.8 326.59V326.469C114.26 326.431 113.463 325.725 113.463 324.663V322.637C113.463 321.317 113.243 321.051 112.105 321.051H111.278V320.012H112.31C114.154 320.012 114.738 320.596 114.738 322.47V324.17C114.738 325.346 115.421 326.021 117.196 325.839V327.212C115.421 327.03 114.738 327.713 114.738 328.882V330.581C114.738 332.455 114.154 333.039 112.31 333.039H111.278ZM92.8437 353.039V352H93.6708C94.8089 352 95.0289 351.734 95.0289 350.414V348.388C95.0289 347.326 95.8256 346.621 97.3659 346.59V346.469C95.8256 346.431 95.0289 345.725 95.0289 344.663V342.637C95.0289 341.317 94.8089 341.051 93.6708 341.051H92.8437V340.012H93.8756C95.7194 340.012 96.3036 340.596 96.3036 342.47V344.17C96.3036 345.346 96.9865 346.021 98.7619 345.839V347.212C96.9865 347.03 96.3036 347.713 96.3036 348.882V350.581C96.3036 352.455 95.7194 353.039 93.8756 353.039H92.8437ZM106.674 346.522C106.674 349.102 105.9 351.332 104.39 353.047H103.108C104.679 350.839 105.339 348.904 105.339 346.522C105.339 344.139 104.679 342.205 103.108 339.997H104.39C105.9 341.711 106.674 343.95 106.674 346.522Z" fill="#EEEEEE"/>
<path d="M141.198 313.519H139.977L140.918 308.587H142.625L141.198 313.519Z" fill="white"/>
</g>
<defs>
<filter id="filter0_d_801_16148" x="0.970814" y="0.873733" width="649.058" height="455.058" filterUnits="userSpaceOnUse" color-interpolation-filters="sRGB">
<feFlood flood-opacity="0" result="BackgroundImageFix"/>
<feColorMatrix in="SourceAlpha" type="matrix" values="0 0 0 0 0 0 0 0 0 0 0 0 0 0 0 0 0 0 127 0" result="hardAlpha"/>
<feOffset dy="5.90292"/>
<feGaussianBlur stdDeviation="29.5146"/>
<feColorMatrix type="matrix" values="0 0 0 0 0 0 0 0 0 0 0 0 0 0 0 0 0 0 0.05 0"/>
<feBlend mode="normal" in2="BackgroundImageFix" result="effect1_dropShadow_801_16148"/>
<feBlend mode="normal" in="SourceGraphic" in2="effect1_dropShadow_801_16148" result="shape"/>
</filter>
</defs>
</svg>
