<svg width="94" height="93" viewBox="0 0 94 93" fill="none" xmlns="http://www.w3.org/2000/svg">
<rect width="94" height="93" rx="24" fill="url(#paint0_linear_801_15661)"/>
<path fill-rule="evenodd" clip-rule="evenodd" d="M47.9816 20.1998C47.3351 20.0669 46.6684 20.0669 46.022 20.1998C45.2747 20.3535 44.6069 20.7276 44.0759 21.025L43.9312 21.1058L25.9357 31.1033C25.8859 31.131 25.8346 31.1592 25.7821 31.1881C25.22 31.4977 24.5133 31.887 23.9706 32.4759C23.5014 32.9851 23.1463 33.5886 22.9291 34.246C22.6778 35.0065 22.6807 35.8133 22.6831 36.455C22.6833 36.515 22.6835 36.5735 22.6835 36.6304V56.3698C22.6835 56.4267 22.6833 56.4852 22.6831 56.5452C22.6807 57.1869 22.6778 57.9937 22.9291 58.7542C23.1463 59.4116 23.5014 60.0151 23.9706 60.5243C24.5133 61.1132 25.22 61.5025 25.7821 61.812C25.8346 61.841 25.8859 61.8692 25.9357 61.8969L43.9312 71.8944L44.0759 71.9752C44.6069 72.2726 45.2748 72.6467 46.022 72.8004C46.6684 72.9333 47.3351 72.9333 47.9816 72.8004C48.7288 72.6467 49.3967 72.2726 49.9276 71.9752L50.0724 71.8944L68.0679 61.8969C68.0899 61.8846 68.1121 61.8723 68.1347 61.8598C68.1632 61.8441 68.1921 61.8282 68.2214 61.8121C68.7835 61.5025 69.4902 61.1132 70.0329 60.5243C70.5022 60.0151 70.8573 59.4116 71.0745 58.7542C71.3257 57.9937 71.3228 57.1869 71.3204 56.5452C71.3202 56.4852 71.32 56.4267 71.32 56.3698V36.6304C71.32 36.5735 71.3202 36.515 71.3204 36.455C71.3228 35.8133 71.3257 35.0065 71.0745 34.246C70.8573 33.5886 70.5022 32.9851 70.0329 32.4759C69.4902 31.887 68.7835 31.4977 68.2214 31.1881L68.2194 31.187C68.1676 31.1585 68.117 31.1306 68.0679 31.1033L50.0724 21.1058L49.9276 21.025C49.3967 20.7276 48.7288 20.3535 47.9816 20.1998ZM46.2932 25.3574C46.6617 25.1527 46.8498 25.0492 46.9901 24.9815L47.0018 24.976L47.0134 24.9815C47.1537 25.0492 47.3418 25.1527 47.7104 25.3574L63.8807 34.3409L47.0017 43.7181L30.1228 34.341L46.2932 25.3574ZM27.5472 38.4739L44.5699 47.9309L44.5699 66.6854L28.2977 57.6453C27.9087 57.4292 27.7101 57.3177 27.5708 57.2289L27.559 57.2214L27.5581 57.2074C27.5482 57.0425 27.5472 56.8148 27.5472 56.3698V38.4739Z" fill="white"/>
<defs>
<linearGradient id="paint0_linear_801_15661" x1="54.8753" y1="131.708" x2="-38.1194" y2="37.7138" gradientUnits="userSpaceOnUse">
<stop stop-color="#FB432C"/>
<stop offset="1" stop-color="#FF591E"/>
</linearGradient>
</defs>
</svg>
