<svg width="509" height="291" viewBox="0 0 509 291" fill="none" xmlns="http://www.w3.org/2000/svg">
<g filter="url(#filter0_d_801_16022)">
<rect x="36" y="40" width="437" height="319" rx="14" fill="#0D0D0D"/>
</g>
<path d="M76.484 170V159.092H74.81V157.22H78.554V170H76.484ZM83.785 157.382C84.409 157.046 85.165 156.878 86.053 156.878C86.941 156.878 87.697 157.046 88.321 157.382C88.945 157.706 89.425 158.174 89.761 158.786C90.109 159.398 90.355 160.082 90.499 160.838C90.655 161.582 90.733 162.44 90.733 163.412C90.733 164.384 90.655 165.248 90.499 166.004C90.355 166.748 90.109 167.432 89.761 168.056C89.425 168.668 88.945 169.142 88.321 169.478C87.697 169.802 86.941 169.964 86.053 169.964C85.165 169.964 84.409 169.802 83.785 169.478C83.161 169.142 82.675 168.668 82.327 168.056C81.991 167.432 81.745 166.748 81.589 166.004C81.445 165.248 81.373 164.384 81.373 163.412C81.373 162.44 81.445 161.582 81.589 160.838C81.745 160.082 81.991 159.398 82.327 158.786C82.675 158.174 83.161 157.706 83.785 157.382ZM86.053 158.75C85.477 158.75 85.003 158.876 84.631 159.128C84.259 159.368 83.989 159.728 83.821 160.208C83.533 161.036 83.389 162.104 83.389 163.412C83.389 164.732 83.533 165.806 83.821 166.634C84.157 167.606 84.901 168.092 86.053 168.092C87.205 168.092 87.949 167.606 88.285 166.634C88.573 165.806 88.717 164.732 88.717 163.412C88.717 162.104 88.573 161.036 88.285 160.208C87.949 159.236 87.205 158.75 86.053 158.75ZM95.2262 170H93.1742V156.68H95.2262V164.42L98.8262 160.082H101.67L97.0982 165.05L101.67 170H98.8982L95.2262 165.734V170Z" fill="#383838"/>
<path d="M82.478 222.698C82.478 221.894 82.262 221.252 81.83 220.772C81.41 220.28 80.81 220.034 80.03 220.034C79.25 220.034 78.602 220.256 78.086 220.7C77.582 221.132 77.33 221.762 77.33 222.59C77.33 223.418 77.564 224.078 78.032 224.57C78.512 225.05 79.154 225.29 79.958 225.29C80.762 225.29 81.38 225.056 81.812 224.588C82.256 224.12 82.478 223.49 82.478 222.698ZM79.958 215.264C79.01 215.264 78.302 215.63 77.834 216.362C77.366 217.082 77.12 218.282 77.096 219.962C77.408 219.434 77.864 219.026 78.464 218.738C79.064 218.45 79.712 218.306 80.408 218.306C81.608 218.306 82.58 218.69 83.324 219.458C84.068 220.226 84.44 221.27 84.44 222.59C84.44 223.898 84.062 224.96 83.306 225.776C82.55 226.592 81.494 227 80.138 227C78.278 227 77 226.376 76.304 225.128C75.944 224.504 75.692 223.796 75.548 223.004C75.404 222.2 75.332 221.246 75.332 220.142C75.332 215.75 76.88 213.554 79.976 213.554C81.176 213.554 82.118 213.878 82.802 214.526C83.498 215.174 83.906 215.972 84.026 216.92H82.136C81.872 215.816 81.146 215.264 79.958 215.264ZM88.9508 227H86.8988V213.68H88.9508V221.42L92.5508 217.082H95.3948L90.8228 222.05L95.3948 227H92.6228L88.9508 222.734V227Z" fill="#383838"/>
<path d="M75.62 270.842H83.54V272.642H77.51V276.224C77.762 275.888 78.134 275.606 78.626 275.378C79.13 275.15 79.712 275.036 80.372 275.036C81.044 275.036 81.662 275.168 82.226 275.432C82.802 275.696 83.24 276.05 83.54 276.494C84.14 277.358 84.44 278.33 84.44 279.41C84.44 280.778 84.05 281.888 83.27 282.74C82.49 283.58 81.404 284 80.012 284C78.632 284 77.546 283.676 76.754 283.028C75.962 282.38 75.488 281.522 75.332 280.454H77.33C77.462 281.018 77.756 281.468 78.212 281.804C78.668 282.128 79.28 282.29 80.048 282.29C80.816 282.29 81.41 282.032 81.83 281.516C82.262 281 82.478 280.316 82.478 279.464C82.478 278.6 82.262 277.94 81.83 277.484C81.398 277.016 80.762 276.782 79.922 276.782C79.334 276.782 78.836 276.932 78.428 277.232C78.032 277.52 77.744 277.916 77.564 278.42H75.62V270.842ZM88.8981 284H86.8461V270.68H88.8981V278.42L92.4981 274.082H95.3421L90.7701 279.05L95.3421 284H92.5701L88.8981 279.734V284Z" fill="#383838"/>
<path d="M71.624 91.888C73.164 91.888 74.418 91.382 75.386 90.37C76.3687 89.3433 76.86 88.0013 76.86 86.344C76.86 84.672 76.3687 83.33 75.386 82.318C74.418 81.306 73.164 80.8 71.624 80.8C70.084 80.8 68.8227 81.306 67.84 82.318C66.872 83.33 66.388 84.672 66.388 86.344C66.388 88.0013 66.872 89.3433 67.84 90.37C68.8227 91.382 70.084 91.888 71.624 91.888ZM71.624 94.154C69.4387 94.154 67.5907 93.4207 66.08 91.954C64.5693 90.4727 63.814 88.6027 63.814 86.344C63.814 84.0707 64.5693 82.2007 66.08 80.734C67.5907 79.2527 69.4387 78.512 71.624 78.512C73.824 78.512 75.672 79.2527 77.168 80.734C78.6787 82.2007 79.434 84.0707 79.434 86.344C79.434 88.6027 78.6787 90.4727 77.168 91.954C75.672 93.4207 73.824 94.154 71.624 94.154ZM80.472 81.878H83.156L86.588 91.756L90.02 81.878H92.726L88.106 94H85.07L80.472 81.878ZM99.6817 94.198C97.9217 94.198 96.4917 93.626 95.3917 92.482C94.2917 91.338 93.7417 89.82 93.7417 87.928C93.7417 86.036 94.2991 84.5253 95.4137 83.396C96.5284 82.252 97.9657 81.68 99.7257 81.68C101.5 81.68 102.938 82.23 104.038 83.33C105.138 84.4153 105.688 85.838 105.688 87.598C105.688 88.0233 105.658 88.4193 105.6 88.786H96.3157C96.3744 89.798 96.7117 90.6047 97.3277 91.206C97.9584 91.7927 98.7431 92.086 99.6817 92.086C101.046 92.086 102.006 91.5213 102.564 90.392H105.27C104.903 91.5067 104.236 92.4233 103.268 93.142C102.3 93.846 101.104 94.198 99.6817 94.198ZM103.07 87.07C103.055 86.0727 102.725 85.2807 102.08 84.694C101.434 84.0927 100.65 83.792 99.7257 83.792C98.8017 83.792 98.0244 84.0927 97.3937 84.694C96.7777 85.2807 96.4257 86.0727 96.3377 87.07H103.07ZM110.664 81.878V83.99C111.441 82.45 112.651 81.68 114.294 81.68V84.276H113.656C112.673 84.276 111.925 84.5253 111.412 85.024C110.913 85.5227 110.664 86.388 110.664 87.62V94H108.156V81.878H110.664ZM115.169 81.878H117.853L121.285 91.756L124.717 81.878H127.423L122.803 94H119.767L115.169 81.878ZM132.135 78.666C132.135 79.1207 131.981 79.502 131.673 79.81C131.365 80.118 130.984 80.272 130.529 80.272C130.089 80.272 129.715 80.118 129.407 79.81C129.099 79.502 128.945 79.1207 128.945 78.666C128.945 78.2113 129.099 77.83 129.407 77.522C129.715 77.214 130.089 77.06 130.529 77.06C130.984 77.06 131.365 77.214 131.673 77.522C131.981 77.83 132.135 78.2113 132.135 78.666ZM129.275 94V81.878H131.783V94H129.275ZM140.18 94.198C138.42 94.198 136.99 93.626 135.89 92.482C134.79 91.338 134.24 89.82 134.24 87.928C134.24 86.036 134.797 84.5253 135.912 83.396C137.026 82.252 138.464 81.68 140.224 81.68C141.998 81.68 143.436 82.23 144.536 83.33C145.636 84.4153 146.186 85.838 146.186 87.598C146.186 88.0233 146.156 88.4193 146.098 88.786H136.814C136.872 89.798 137.21 90.6047 137.826 91.206C138.456 91.7927 139.241 92.086 140.18 92.086C141.544 92.086 142.504 91.5213 143.062 90.392H145.768C145.401 91.5067 144.734 92.4233 143.766 93.142C142.798 93.846 141.602 94.198 140.18 94.198ZM143.568 87.07C143.553 86.0727 143.223 85.2807 142.578 84.694C141.932 84.0927 141.148 83.792 140.224 83.792C139.3 83.792 138.522 84.0927 137.892 84.694C137.276 85.2807 136.924 86.0727 136.836 87.07H143.568ZM162.47 81.878H164.934L161.172 94H158.532L156.09 85.046L153.648 94H151.008L147.224 81.878H149.776L152.306 91.624L154.88 81.878H157.498L159.962 91.58L162.47 81.878Z" fill="white"/>
<rect x="342" y="71" width="103" height="33" rx="16.5" fill="url(#paint0_linear_801_16022)"/>
<path d="M376.298 82.27V92H374.702V85.336L371.734 92H370.628L367.646 85.336V92H366.05V82.27H367.772L371.188 89.9L374.59 82.27H376.298ZM383.408 90.082C383.874 89.6153 384.108 88.9667 384.108 88.136C384.108 87.3053 383.879 86.6613 383.422 86.204C382.974 85.7373 382.428 85.504 381.784 85.504C381.14 85.504 380.598 85.7373 380.16 86.204C379.721 86.6613 379.502 87.31 379.502 88.15C379.502 88.9807 379.716 89.6293 380.146 90.096C380.575 90.5533 381.107 90.782 381.742 90.782C382.386 90.782 382.941 90.5487 383.408 90.082ZM381.742 92.126C380.622 92.126 379.698 91.762 378.97 91.034C378.242 90.2967 377.878 89.3353 377.878 88.15C377.878 86.9553 378.251 85.994 378.998 85.266C379.754 84.5287 380.692 84.16 381.812 84.16C382.932 84.16 383.865 84.5287 384.612 85.266C385.368 85.994 385.746 86.9507 385.746 88.136C385.746 89.3213 385.358 90.2827 384.584 91.02C383.818 91.7573 382.871 92.126 381.742 92.126ZM388.919 84.286V85.504C389.433 84.608 390.254 84.16 391.383 84.16C392.251 84.16 392.965 84.4493 393.525 85.028C394.095 85.6067 394.379 86.414 394.379 87.45V92H392.797V87.688C392.797 86.9973 392.625 86.47 392.279 86.106C391.934 85.7327 391.463 85.546 390.865 85.546C390.268 85.546 389.792 85.7327 389.437 86.106C389.092 86.47 388.919 86.9973 388.919 87.688V92H387.323V84.286H388.919ZM400.153 85.588H398.277V89.858C398.277 90.1473 398.343 90.3573 398.473 90.488C398.613 90.6093 398.847 90.67 399.173 90.67H400.153V92H398.893C397.409 92 396.667 91.286 396.667 89.858V85.588H395.757V84.286H396.667V82.368H398.277V84.286H400.153V85.588ZM403.22 81.64V85.504C403.734 84.608 404.555 84.16 405.684 84.16C406.552 84.16 407.266 84.4493 407.826 85.028C408.396 85.6067 408.68 86.414 408.68 87.45V92H407.098V87.688C407.098 86.9973 406.926 86.47 406.58 86.106C406.235 85.7327 405.764 85.546 405.166 85.546C404.569 85.546 404.093 85.7327 403.738 86.106C403.393 86.47 403.22 86.9973 403.22 87.688V92H401.624V81.64H403.22ZM410.716 92V81.64H412.312V92H410.716ZM416.535 91.874L413.497 84.286H415.275L417.445 90.166L419.699 84.286H421.351L416.619 95.626H414.967L416.535 91.874Z" fill="white"/>
<path d="M137 149V311.5" stroke="#282828" stroke-width="3" stroke-linecap="round" stroke-linejoin="round"/>
<path d="M209 149V311.5" stroke="#282828" stroke-width="3" stroke-linecap="round" stroke-linejoin="round"/>
<path d="M281 149V311.5" stroke="#282828" stroke-width="3" stroke-linecap="round" stroke-linejoin="round"/>
<path d="M353 149V311.5" stroke="#282828" stroke-width="3" stroke-linecap="round" stroke-linejoin="round"/>
<path d="M425 149V311.5" stroke="#282828" stroke-width="3" stroke-linecap="round" stroke-linejoin="round"/>
<path d="M176.5 301.5C159.3 317.5 134.333 290.833 124 275.5V340H447V167.5C431.5 182 393 263.5 369 245C348.248 229.004 339.5 212.5 330.5 210.5C303 204.5 292.5 255 282 275C271.5 295 234.5 263 217 263.5C199.5 264 198 281.5 176.5 301.5Z" fill="#131313"/>
<path d="M124 275.5C134.333 290.833 159.3 317.5 176.5 301.5C198 281.5 199.5 264 217 263.5C234.5 263 271.5 295 282 275C292.5 255 303 204.5 330.5 210.5C339.5 212.5 348.248 229.004 369 245C393 263.5 431.5 182 447 167.5" stroke="white" stroke-width="3" stroke-linecap="round" stroke-linejoin="round"/>
<path d="M292.643 164.304H299.683V165.904H294.323V169.088C294.547 168.789 294.878 168.539 295.315 168.336C295.763 168.133 296.28 168.032 296.867 168.032C297.464 168.032 298.014 168.149 298.515 168.384C299.027 168.619 299.416 168.933 299.683 169.328C300.216 170.096 300.483 170.96 300.483 171.92C300.483 173.136 300.136 174.123 299.443 174.88C298.75 175.627 297.784 176 296.547 176C295.32 176 294.355 175.712 293.651 175.136C292.947 174.56 292.526 173.797 292.387 172.848H294.163C294.28 173.349 294.542 173.749 294.947 174.048C295.352 174.336 295.896 174.48 296.579 174.48C297.262 174.48 297.79 174.251 298.163 173.792C298.547 173.333 298.739 172.725 298.739 171.968C298.739 171.2 298.547 170.613 298.163 170.208C297.779 169.792 297.214 169.584 296.467 169.584C295.944 169.584 295.502 169.717 295.139 169.984C294.787 170.24 294.531 170.592 294.371 171.04H292.643V164.304ZM301.998 174.752H303.726C304.142 176.331 304.067 177.408 303.502 177.984C303.193 178.315 302.739 178.48 302.142 178.48V177.68C302.409 177.68 302.601 177.616 302.718 177.488C302.846 177.36 302.91 177.147 302.91 176.848V176.512H301.998V174.752ZM306.096 164.304H313.136V165.904H307.776V169.088C308 168.789 308.331 168.539 308.768 168.336C309.216 168.133 309.734 168.032 310.32 168.032C310.918 168.032 311.467 168.149 311.968 168.384C312.48 168.619 312.87 168.933 313.136 169.328C313.67 170.096 313.936 170.96 313.936 171.92C313.936 173.136 313.59 174.123 312.896 174.88C312.203 175.627 311.238 176 310 176C308.774 176 307.808 175.712 307.104 175.136C306.4 174.56 305.979 173.797 305.84 172.848H307.616C307.734 173.349 307.995 173.749 308.4 174.048C308.806 174.336 309.35 174.48 310.032 174.48C310.715 174.48 311.243 174.251 311.616 173.792C312 173.333 312.192 172.725 312.192 171.968C312.192 171.2 312 170.613 311.616 170.208C311.232 169.792 310.667 169.584 309.92 169.584C309.398 169.584 308.955 169.717 308.592 169.984C308.24 170.24 307.984 170.592 307.824 171.04H306.096V164.304ZM322.411 172.176C322.411 171.461 322.219 170.891 321.835 170.464C321.462 170.027 320.928 169.808 320.235 169.808C319.542 169.808 318.966 170.005 318.507 170.4C318.059 170.784 317.835 171.344 317.835 172.08C317.835 172.816 318.043 173.403 318.459 173.84C318.886 174.267 319.456 174.48 320.171 174.48C320.886 174.48 321.435 174.272 321.819 173.856C322.214 173.44 322.411 172.88 322.411 172.176ZM320.171 165.568C319.328 165.568 318.699 165.893 318.283 166.544C317.867 167.184 317.648 168.251 317.627 169.744C317.904 169.275 318.31 168.912 318.843 168.656C319.376 168.4 319.952 168.272 320.571 168.272C321.638 168.272 322.502 168.613 323.163 169.296C323.824 169.979 324.155 170.907 324.155 172.08C324.155 173.243 323.819 174.187 323.147 174.912C322.475 175.637 321.536 176 320.331 176C318.678 176 317.542 175.445 316.923 174.336C316.603 173.781 316.379 173.152 316.251 172.448C316.123 171.733 316.059 170.885 316.059 169.904C316.059 166 317.435 164.048 320.187 164.048C321.254 164.048 322.091 164.336 322.699 164.912C323.318 165.488 323.68 166.197 323.787 167.04H322.107C321.872 166.059 321.227 165.568 320.171 165.568ZM328.245 164.784C328.799 164.485 329.471 164.336 330.261 164.336C331.05 164.336 331.722 164.485 332.277 164.784C332.831 165.072 333.258 165.488 333.557 166.032C333.866 166.576 334.085 167.184 334.213 167.856C334.351 168.517 334.421 169.28 334.421 170.144C334.421 171.008 334.351 171.776 334.213 172.448C334.085 173.109 333.866 173.717 333.557 174.272C333.258 174.816 332.831 175.237 332.277 175.536C331.722 175.824 331.05 175.968 330.261 175.968C329.471 175.968 328.799 175.824 328.245 175.536C327.69 175.237 327.258 174.816 326.949 174.272C326.65 173.717 326.431 173.109 326.293 172.448C326.165 171.776 326.101 171.008 326.101 170.144C326.101 169.28 326.165 168.517 326.293 167.856C326.431 167.184 326.65 166.576 326.949 166.032C327.258 165.488 327.69 165.072 328.245 164.784ZM330.261 166C329.749 166 329.327 166.112 328.997 166.336C328.666 166.549 328.426 166.869 328.277 167.296C328.021 168.032 327.893 168.981 327.893 170.144C327.893 171.317 328.021 172.272 328.277 173.008C328.575 173.872 329.237 174.304 330.261 174.304C331.285 174.304 331.946 173.872 332.245 173.008C332.501 172.272 332.629 171.317 332.629 170.144C332.629 168.981 332.501 168.032 332.245 167.296C331.946 166.432 331.285 166 330.261 166ZM344.095 172.832C344.095 173.653 343.791 174.379 343.183 175.008C342.575 175.637 341.743 176 340.687 176.096V177.392H339.775V176.096C338.751 176.021 337.924 175.717 337.295 175.184C336.665 174.64 336.351 173.925 336.351 173.04H338.303C338.377 173.947 338.868 174.469 339.775 174.608V171.088C338.804 170.864 338.121 170.635 337.727 170.4C337.247 170.123 336.916 169.824 336.735 169.504C336.479 169.056 336.351 168.544 336.351 167.968C336.351 167.061 336.665 166.32 337.295 165.744C337.924 165.168 338.751 164.837 339.775 164.752V163.456H340.687V164.752C341.647 164.827 342.415 165.12 342.991 165.632C343.577 166.133 343.908 166.832 343.983 167.728H342.031C341.999 167.387 341.86 167.083 341.615 166.816C341.38 166.549 341.071 166.373 340.687 166.288V169.744C341.7 169.979 342.377 170.197 342.719 170.4C343.22 170.709 343.535 170.981 343.663 171.216C343.951 171.717 344.095 172.256 344.095 172.832ZM339.775 166.24C339.295 166.304 338.911 166.475 338.623 166.752C338.345 167.019 338.207 167.387 338.207 167.856C338.207 168.315 338.34 168.667 338.607 168.912C338.884 169.157 339.273 169.355 339.775 169.504V166.24ZM340.687 174.608C341.177 174.533 341.561 174.347 341.839 174.048C342.116 173.739 342.255 173.371 342.255 172.944C342.255 172.507 342.116 172.165 341.839 171.92C341.572 171.675 341.188 171.477 340.687 171.328V174.608Z" fill="white"/>
<path d="M297.428 188.616V192H296.06V183.66H298.94C299.884 183.66 300.612 183.896 301.124 184.368C301.636 184.832 301.892 185.424 301.892 186.144C301.892 186.704 301.72 187.208 301.376 187.656C301.04 188.104 300.52 188.396 299.816 188.532L302.024 192H300.356L298.268 188.616H297.428ZM297.428 184.728V187.548H298.94C299.46 187.548 299.848 187.424 300.104 187.176C300.36 186.928 300.488 186.584 300.488 186.144C300.488 185.696 300.36 185.348 300.104 185.1C299.848 184.852 299.46 184.728 298.94 184.728H297.428ZM307.998 190.32C308.398 189.912 308.598 189.368 308.598 188.688C308.598 188.008 308.398 187.468 307.998 187.068C307.606 186.668 307.138 186.468 306.594 186.468C306.05 186.468 305.578 186.664 305.178 187.056C304.786 187.448 304.59 187.984 304.59 188.664C304.59 189.344 304.786 189.892 305.178 190.308C305.578 190.716 306.05 190.92 306.594 190.92C307.138 190.92 307.606 190.72 307.998 190.32ZM306.306 192.108C305.426 192.108 304.686 191.788 304.086 191.148C303.486 190.5 303.186 189.676 303.186 188.676C303.186 187.668 303.482 186.852 304.074 186.228C304.674 185.596 305.418 185.28 306.306 185.28C306.826 185.28 307.282 185.4 307.674 185.64C308.074 185.872 308.382 186.18 308.598 186.564V185.388H309.978V192H308.598V190.764C308.374 191.172 308.066 191.5 307.674 191.748C307.282 191.988 306.826 192.108 306.306 192.108ZM314.979 186.504H313.371V190.164C313.371 190.412 313.427 190.592 313.539 190.704C313.659 190.808 313.859 190.86 314.139 190.86H314.979V192H313.899C312.627 192 311.991 191.388 311.991 190.164V186.504H311.211V185.388H311.991V183.744H313.371V185.388H314.979V186.504ZM317.8 183.636C317.8 183.884 317.716 184.092 317.548 184.26C317.38 184.428 317.172 184.512 316.924 184.512C316.684 184.512 316.48 184.428 316.312 184.26C316.144 184.092 316.06 183.884 316.06 183.636C316.06 183.388 316.144 183.18 316.312 183.012C316.48 182.844 316.684 182.76 316.924 182.76C317.172 182.76 317.38 182.844 317.548 183.012C317.716 183.18 317.8 183.388 317.8 183.636ZM316.24 192V185.388H317.608V192H316.24ZM320.772 185.388V186.432C321.212 185.664 321.916 185.28 322.884 185.28C323.628 185.28 324.24 185.528 324.72 186.024C325.208 186.52 325.452 187.212 325.452 188.1V192H324.096V188.304C324.096 187.712 323.948 187.26 323.652 186.948C323.356 186.628 322.952 186.468 322.44 186.468C321.928 186.468 321.52 186.628 321.216 186.948C320.92 187.26 320.772 187.712 320.772 188.304V192H319.404V185.388H320.772ZM329.861 192.108C328.981 192.108 328.241 191.788 327.641 191.148C327.041 190.5 326.741 189.676 326.741 188.676C326.741 187.668 327.037 186.852 327.629 186.228C328.229 185.596 328.973 185.28 329.861 185.28C330.381 185.28 330.837 185.4 331.229 185.64C331.629 185.872 331.937 186.18 332.153 186.564V185.388H333.533V192.108C333.533 193.036 333.245 193.792 332.669 194.376C332.101 194.968 331.341 195.264 330.389 195.264C329.437 195.264 328.665 195.052 328.073 194.628C327.481 194.212 327.145 193.644 327.065 192.924H328.421C328.525 193.268 328.745 193.544 329.081 193.752C329.425 193.968 329.853 194.076 330.365 194.076C330.877 194.076 331.301 193.908 331.637 193.572C331.981 193.236 332.153 192.748 332.153 192.108V190.764C331.929 191.172 331.621 191.5 331.229 191.748C330.837 191.988 330.381 192.108 329.861 192.108ZM331.553 190.32C331.953 189.912 332.153 189.368 332.153 188.688C332.153 188.008 331.953 187.468 331.553 187.068C331.161 186.668 330.693 186.468 330.149 186.468C329.605 186.468 329.133 186.664 328.733 187.056C328.341 187.448 328.145 187.984 328.145 188.664C328.145 189.344 328.341 189.892 328.733 190.308C329.133 190.716 329.605 190.92 330.149 190.92C330.693 190.92 331.161 190.72 331.553 190.32ZM335.03 187.284C335.03 186.724 335.266 186.252 335.738 185.868C336.21 185.476 336.83 185.28 337.598 185.28C338.366 185.28 338.974 185.472 339.422 185.856C339.878 186.232 340.122 186.748 340.154 187.404H338.75C338.726 187.076 338.61 186.82 338.402 186.636C338.202 186.452 337.918 186.36 337.55 186.36C337.182 186.36 336.894 186.444 336.686 186.612C336.478 186.772 336.374 186.988 336.374 187.26C336.374 187.524 336.506 187.732 336.77 187.884C337.034 188.036 337.354 188.148 337.73 188.22C338.114 188.292 338.494 188.38 338.87 188.484C339.254 188.588 339.578 188.78 339.842 189.06C340.106 189.332 340.238 189.7 340.238 190.164C340.238 190.74 339.994 191.208 339.506 191.568C339.026 191.928 338.406 192.108 337.646 192.108C336.886 192.108 336.27 191.924 335.798 191.556C335.326 191.188 335.066 190.664 335.018 189.984H336.434C336.458 190.312 336.578 190.568 336.794 190.752C337.01 190.936 337.302 191.028 337.67 191.028C338.046 191.028 338.342 190.948 338.558 190.788C338.782 190.62 338.894 190.4 338.894 190.128C338.894 189.856 338.762 189.644 338.498 189.492C338.234 189.34 337.91 189.228 337.526 189.156C337.15 189.076 336.77 188.988 336.386 188.892C336.01 188.788 335.69 188.604 335.426 188.34C335.162 188.076 335.03 187.724 335.03 187.284Z" fill="white"/>
<circle cx="356" cy="230" r="10" fill="url(#paint1_linear_801_16022)"/>
<circle cx="356" cy="230" r="5" fill="white"/>
<defs>
<filter id="filter0_d_801_16022" x="0" y="0" width="509" height="391" filterUnits="userSpaceOnUse" color-interpolation-filters="sRGB">
<feFlood flood-opacity="0" result="BackgroundImageFix"/>
<feColorMatrix in="SourceAlpha" type="matrix" values="0 0 0 0 0 0 0 0 0 0 0 0 0 0 0 0 0 0 127 0" result="hardAlpha"/>
<feOffset dy="-4"/>
<feGaussianBlur stdDeviation="18"/>
<feComposite in2="hardAlpha" operator="out"/>
<feColorMatrix type="matrix" values="0 0 0 0 0 0 0 0 0 0 0 0 0 0 0 0 0 0 0.05 0"/>
<feBlend mode="normal" in2="BackgroundImageFix" result="effect1_dropShadow_801_16022"/>
<feBlend mode="normal" in="SourceGraphic" in2="effect1_dropShadow_801_16022" result="shape"/>
</filter>
<linearGradient id="paint0_linear_801_16022" x1="402.129" y1="117.735" x2="382.952" y2="57.8794" gradientUnits="userSpaceOnUse">
<stop stop-color="#FB432C"/>
<stop offset="1" stop-color="#FF591E"/>
</linearGradient>
<linearGradient id="paint1_linear_801_16022" x1="357.676" y1="248.324" x2="337.676" y2="228.324" gradientUnits="userSpaceOnUse">
<stop stop-color="#FB432C"/>
<stop offset="1" stop-color="#FF591E"/>
</linearGradient>
</defs>
</svg>
