<svg width="547" height="250" viewBox="0 0 547 250" fill="none" xmlns="http://www.w3.org/2000/svg">
<g filter="url(#filter0_d_801_16049)">
<rect x="36" y="40" width="475" height="243" rx="16.5174" fill="#0D0D0D"/>
</g>
<path d="M254.532 226.773C245.897 203.065 226.599 218.038 217.315 228.512V253.223H472.156V173.243C468.907 171.814 461.768 172.405 459.54 182.689C451.971 212.288 436.832 211.029 431.771 193.367C427.594 157.659 433.164 124.808 419.238 121.951C402.527 117.667 406.705 97.6703 405.313 81.959C401.135 59.1061 380.246 63.391 380.246 86.2439C380.246 109.097 380.246 131.95 369.106 137.663C345.432 149.089 360.292 202.628 349.151 209.769C324.085 222.624 333.43 173.243 319.504 173.243C308.363 173.243 305.047 163.372 305.047 157.659C300.87 110.525 278.589 153.374 278.589 196.223C278.589 239.072 264.625 254.483 254.532 226.773Z" fill="#131313"/>
<rect x="82" y="81" width="129" height="42" rx="21" fill="url(#paint0_linear_801_16049)"/>
<path d="M109.787 96.5039H111.67V108H109.787L104.122 99.4274V108H102.239V96.5039H104.122L109.787 105.06V96.5039ZM117.975 108.149C116.654 108.149 115.58 107.719 114.754 106.86C113.928 106.001 113.515 104.862 113.515 103.441C113.515 102.021 113.934 100.886 114.771 100.039C115.608 99.1797 116.687 98.7502 118.008 98.7502C119.34 98.7502 120.42 99.1632 121.245 99.989C122.071 100.804 122.484 101.872 122.484 103.193C122.484 103.513 122.462 103.81 122.418 104.085H115.448C115.492 104.845 115.745 105.451 116.208 105.902C116.681 106.343 117.27 106.563 117.975 106.563C118.999 106.563 119.72 106.139 120.139 105.291H122.17C121.895 106.128 121.394 106.816 120.667 107.356C119.941 107.884 119.043 108.149 117.975 108.149ZM120.519 102.797C120.508 102.048 120.26 101.454 119.775 101.013C119.291 100.562 118.702 100.336 118.008 100.336C117.314 100.336 116.731 100.562 116.257 101.013C115.795 101.454 115.53 102.048 115.464 102.797H120.519ZM134.71 98.8989H136.56L133.736 108H131.754L129.92 101.277L128.087 108H126.105L123.264 98.8989H125.18L127.079 106.216L129.012 98.8989H130.977L132.827 106.183L134.71 98.8989ZM142.919 96.5204H144.802V106.563H148.684V108H142.919V96.5204ZM154.091 108.149C152.769 108.149 151.696 107.719 150.87 106.86C150.044 106.001 149.631 104.862 149.631 103.441C149.631 102.021 150.05 100.886 150.886 100.039C151.723 99.1797 152.802 98.7502 154.124 98.7502C155.456 98.7502 156.535 99.1632 157.361 99.989C158.187 100.804 158.6 101.872 158.6 103.193C158.6 103.513 158.578 103.81 158.534 104.085H151.564C151.608 104.845 151.861 105.451 152.323 105.902C152.797 106.343 153.386 106.563 154.091 106.563C155.115 106.563 155.836 106.139 156.255 105.291H158.286C158.011 106.128 157.51 106.816 156.783 107.356C156.056 107.884 155.159 108.149 154.091 108.149ZM156.635 102.797C156.623 102.048 156.376 101.454 155.891 101.013C155.407 100.562 154.818 100.336 154.124 100.336C153.43 100.336 152.847 100.562 152.373 101.013C151.911 101.454 151.646 102.048 151.58 102.797H156.635ZM166.449 105.688C167 105.126 167.275 104.377 167.275 103.441C167.275 102.505 167 101.762 166.449 101.211C165.909 100.661 165.265 100.385 164.516 100.385C163.768 100.385 163.118 100.655 162.567 101.195C162.028 101.734 161.758 102.472 161.758 103.408C161.758 104.344 162.028 105.098 162.567 105.671C163.118 106.233 163.768 106.513 164.516 106.513C165.265 106.513 165.909 106.238 166.449 105.688ZM164.12 108.149C162.909 108.149 161.89 107.708 161.064 106.827C160.238 105.935 159.825 104.801 159.825 103.425C159.825 102.037 160.233 100.914 161.048 100.055C161.874 99.1852 162.898 98.7502 164.12 98.7502C164.836 98.7502 165.463 98.9154 166.003 99.2458C166.554 99.5651 166.978 99.989 167.275 100.518V98.8989H169.174V108H167.275V106.299C166.967 106.86 166.543 107.312 166.003 107.653C165.463 107.983 164.836 108.149 164.12 108.149ZM177.643 105.688C178.194 105.126 178.469 104.377 178.469 103.441C178.469 102.505 178.194 101.762 177.643 101.211C177.104 100.661 176.46 100.385 175.711 100.385C174.962 100.385 174.312 100.655 173.762 101.195C173.222 101.734 172.952 102.472 172.952 103.408C172.952 104.344 173.222 105.098 173.762 105.671C174.312 106.233 174.962 106.513 175.711 106.513C176.46 106.513 177.104 106.238 177.643 105.688ZM175.314 108.149C174.103 108.149 173.085 107.708 172.259 106.827C171.433 105.935 171.02 104.801 171.02 103.425C171.02 102.037 171.427 100.914 172.242 100.055C173.068 99.1852 174.092 98.7502 175.314 98.7502C176.03 98.7502 176.658 98.9154 177.197 99.2458C177.748 99.5651 178.172 99.989 178.469 100.518V95.7771H180.369V108H178.469V106.299C178.161 106.86 177.737 107.312 177.197 107.653C176.658 107.983 176.03 108.149 175.314 108.149ZM182.429 101.509C182.429 100.738 182.754 100.088 183.404 99.5596C184.053 99.02 184.907 98.7502 185.964 98.7502C187.021 98.7502 187.858 99.0145 188.474 99.5431C189.102 100.061 189.438 100.771 189.482 101.674H187.549C187.516 101.222 187.357 100.87 187.07 100.617C186.795 100.363 186.404 100.237 185.898 100.237C185.391 100.237 184.995 100.352 184.708 100.584C184.422 100.804 184.279 101.101 184.279 101.476C184.279 101.839 184.461 102.125 184.824 102.335C185.187 102.544 185.628 102.698 186.146 102.797C186.674 102.896 187.197 103.017 187.715 103.16C188.243 103.304 188.689 103.568 189.053 103.953C189.416 104.328 189.598 104.834 189.598 105.473C189.598 106.266 189.262 106.91 188.59 107.405C187.929 107.901 187.076 108.149 186.03 108.149C184.984 108.149 184.136 107.895 183.486 107.389C182.837 106.882 182.479 106.161 182.413 105.225H184.362C184.395 105.677 184.56 106.029 184.857 106.282C185.154 106.535 185.556 106.662 186.063 106.662C186.58 106.662 186.988 106.552 187.285 106.332C187.594 106.1 187.748 105.798 187.748 105.423C187.748 105.049 187.566 104.757 187.203 104.548C186.839 104.339 186.393 104.184 185.865 104.085C185.347 103.975 184.824 103.854 184.296 103.722C183.778 103.579 183.338 103.326 182.974 102.962C182.611 102.599 182.429 102.114 182.429 101.509Z" fill="white"/>
<path d="M84.0529 166.568C84.1945 164.374 85.0321 162.663 86.5659 161.436C88.1233 160.209 90.1171 159.596 92.5476 159.596C95.0016 159.596 96.9247 160.233 98.3169 161.507C99.7327 162.758 100.441 164.362 100.441 166.321C100.441 167.784 100.051 169.034 99.2725 170.072C98.4939 171.111 97.5618 171.807 96.4764 172.161V172.302C97.8686 172.727 98.954 173.506 99.7327 174.638C100.511 175.747 100.901 177.269 100.901 179.204C100.901 181.139 100.169 182.779 98.7062 184.124C97.2668 185.469 95.2494 186.142 92.6538 186.142C90.0818 186.142 87.9699 185.493 86.3181 184.195C84.69 182.873 83.8169 180.986 83.6989 178.532H87.5923C87.6867 179.782 88.1704 180.809 89.0435 181.611C89.9166 182.39 91.0846 182.779 92.5476 182.779C94.0105 182.779 95.1314 182.39 95.9101 181.611C96.6887 180.809 97.0781 179.782 97.0781 178.532C97.0781 176.88 96.5472 175.712 95.4853 175.028C94.4471 174.32 92.8425 173.966 90.6717 173.966H89.7514V170.639H90.7071C94.6241 170.592 96.5825 169.306 96.5825 166.781C96.5825 165.648 96.2168 164.751 95.4853 164.091C94.7538 163.406 93.7156 163.064 92.3706 163.064C91.0492 163.064 90.0228 163.406 89.2913 164.091C88.5598 164.751 88.1233 165.577 87.9817 166.568H84.0529ZM104.29 183.239H108.112C109.033 186.731 108.867 189.115 107.617 190.389C106.933 191.12 105.93 191.486 104.608 191.486V189.716C105.198 189.716 105.623 189.575 105.882 189.292C106.166 189.009 106.307 188.537 106.307 187.876V187.133H104.29V183.239ZM111.586 160.304H128.646V163.312L118.807 186H114.382L124.682 163.666H111.586V160.304ZM131.781 185.646V182.708C132.371 182.189 133.232 181.446 134.365 180.478C135.498 179.511 136.359 178.768 136.949 178.249C137.562 177.706 138.317 177.022 139.214 176.196C140.111 175.346 140.807 174.627 141.302 174.037C141.798 173.423 142.305 172.739 142.824 171.984C143.792 170.615 144.276 169.247 144.276 167.878C144.276 164.952 142.883 163.489 140.099 163.489C138.707 163.489 137.621 163.937 136.843 164.834C136.088 165.707 135.687 166.887 135.639 168.374H131.746C131.817 165.684 132.619 163.631 134.153 162.215C135.71 160.775 137.728 160.056 140.205 160.056C142.683 160.056 144.641 160.752 146.081 162.144C147.544 163.536 148.275 165.377 148.275 167.666C148.275 169.388 147.815 171.028 146.895 172.585C146.399 173.388 145.927 174.107 145.479 174.745C145.031 175.358 144.405 176.066 143.603 176.868C142.801 177.67 142.164 178.296 141.692 178.744C141.22 179.192 140.524 179.818 139.603 180.62C138.707 181.422 138.093 181.977 137.763 182.284H148.983V185.646H131.781ZM156.987 167.984C156.987 169.447 157.4 170.651 158.226 171.594C159.076 172.515 160.279 172.975 161.837 172.975C163.394 172.975 164.574 172.538 165.376 171.665C166.202 170.769 166.615 169.553 166.615 168.02C166.615 166.462 166.178 165.235 165.305 164.339C164.456 163.418 163.288 162.958 161.801 162.958C160.315 162.958 159.135 163.43 158.262 164.374C157.412 165.294 156.987 166.498 156.987 167.984ZM162.226 182.602C163.901 182.602 165.128 181.941 165.907 180.62C166.686 179.299 167.075 177.045 167.075 173.86C166.509 174.662 165.706 175.287 164.668 175.736C163.653 176.16 162.544 176.373 161.341 176.373C158.958 176.373 156.987 175.653 155.43 174.214C153.896 172.774 153.129 170.757 153.129 168.161C153.129 165.542 153.885 163.465 155.395 161.932C156.928 160.374 159.029 159.596 161.695 159.596C164.904 159.596 167.181 160.669 168.526 162.817C169.895 164.94 170.579 168.256 170.579 172.762C170.579 177.269 169.954 180.596 168.703 182.744C167.452 184.891 165.211 185.965 161.978 185.965C159.453 185.965 157.507 185.304 156.138 183.983C154.769 182.661 154.003 180.998 153.837 178.992H157.554C158.026 181.399 159.583 182.602 162.226 182.602Z" fill="white"/>
<path d="M82.8495 213.582H93.0856V215.387L87.1818 229H84.5272L90.7071 215.6H82.8495V213.582ZM98.0034 214.113C98.7396 213.717 99.6315 213.518 100.679 213.518C101.727 213.518 102.619 213.717 103.355 214.113C104.091 214.495 104.658 215.047 105.054 215.77C105.465 216.492 105.755 217.299 105.925 218.191C106.109 219.068 106.201 220.081 106.201 221.227C106.201 222.374 106.109 223.394 105.925 224.285C105.755 225.163 105.465 225.97 105.054 226.706C104.658 227.428 104.091 227.988 103.355 228.384C102.619 228.766 101.727 228.958 100.679 228.958C99.6315 228.958 98.7396 228.766 98.0034 228.384C97.2672 227.988 96.6938 227.428 96.2832 226.706C95.8868 225.97 95.5965 225.163 95.4125 224.285C95.2426 223.394 95.1576 222.374 95.1576 221.227C95.1576 220.081 95.2426 219.068 95.4125 218.191C95.5965 217.299 95.8868 216.492 96.2832 215.77C96.6938 215.047 97.2672 214.495 98.0034 214.113ZM100.679 215.727C99.9996 215.727 99.4404 215.876 99.0015 216.173C98.5626 216.456 98.244 216.881 98.0458 217.447C97.706 218.424 97.5362 219.684 97.5362 221.227C97.5362 222.785 97.706 224.052 98.0458 225.029C98.4423 226.176 99.32 226.749 100.679 226.749C102.038 226.749 102.916 226.176 103.313 225.029C103.652 224.052 103.822 222.785 103.822 221.227C103.822 219.684 103.652 218.424 103.313 217.447C102.916 216.3 102.038 215.727 100.679 215.727ZM111.014 228.597C110.73 228.866 110.383 229 109.973 229C109.562 229 109.215 228.858 108.932 228.575C108.663 228.292 108.529 227.952 108.529 227.556C108.529 227.145 108.663 226.798 108.932 226.515C109.215 226.232 109.562 226.091 109.973 226.091C110.383 226.091 110.73 226.232 111.014 226.515C111.297 226.798 111.438 227.145 111.438 227.556C111.438 227.966 111.297 228.313 111.014 228.597ZM116.606 214.113C117.342 213.717 118.234 213.518 119.282 213.518C120.33 213.518 121.222 213.717 121.958 214.113C122.694 214.495 123.26 215.047 123.657 215.77C124.067 216.492 124.358 217.299 124.528 218.191C124.712 219.068 124.804 220.081 124.804 221.227C124.804 222.374 124.712 223.394 124.528 224.285C124.358 225.163 124.067 225.97 123.657 226.706C123.26 227.428 122.694 227.988 121.958 228.384C121.222 228.766 120.33 228.958 119.282 228.958C118.234 228.958 117.342 228.766 116.606 228.384C115.87 227.988 115.297 227.428 114.886 226.706C114.49 225.97 114.199 225.163 114.015 224.285C113.845 223.394 113.761 222.374 113.761 221.227C113.761 220.081 113.845 219.068 114.015 218.191C114.199 217.299 114.49 216.492 114.886 215.77C115.297 215.047 115.87 214.495 116.606 214.113ZM119.282 215.727C118.602 215.727 118.043 215.876 117.604 216.173C117.165 216.456 116.847 216.881 116.649 217.447C116.309 218.424 116.139 219.684 116.139 221.227C116.139 222.785 116.309 224.052 116.649 225.029C117.045 226.176 117.923 226.749 119.282 226.749C120.641 226.749 121.519 226.176 121.915 225.029C122.255 224.052 122.425 222.785 122.425 221.227C122.425 219.684 122.255 218.424 121.915 217.447C121.519 216.3 120.641 215.727 119.282 215.727ZM138.663 225.942C138.663 224.753 138.217 224.158 137.325 224.158C136.433 224.158 135.987 224.753 135.987 225.942C135.987 227.131 136.433 227.726 137.325 227.726C138.217 227.726 138.663 227.131 138.663 225.942ZM135.011 228.342C134.416 227.747 134.119 226.947 134.119 225.942C134.119 224.937 134.416 224.144 135.011 223.563C135.619 222.983 136.391 222.693 137.325 222.693C138.274 222.693 139.045 222.983 139.64 223.563C140.249 224.144 140.553 224.937 140.553 225.942C140.553 226.947 140.249 227.747 139.64 228.342C139.045 228.922 138.274 229.212 137.325 229.212C136.391 229.212 135.619 228.922 135.011 228.342ZM128.321 229L136.794 214.219H139.173L130.699 229H128.321ZM131.528 217.277C131.528 216.074 131.082 215.472 130.19 215.472C129.298 215.472 128.852 216.074 128.852 217.277C128.852 218.467 129.298 219.061 130.19 219.061C131.082 219.061 131.528 218.467 131.528 217.277ZM127.854 219.656C127.259 219.061 126.962 218.261 126.962 217.256C126.962 216.251 127.259 215.458 127.854 214.878C128.463 214.297 129.241 214.007 130.19 214.007C131.138 214.007 131.91 214.297 132.505 214.878C133.113 215.458 133.418 216.251 133.418 217.256C133.418 218.261 133.113 219.061 132.505 219.656C131.91 220.236 131.138 220.527 130.19 220.527C129.241 220.527 128.463 220.236 127.854 219.656Z" fill="white"/>
<path d="M218.496 227.567C227.737 217.281 248.159 202.599 255.921 226.165C265.624 255.621 279.486 235.983 279.486 193.903C279.486 151.822 301.664 109.741 305.822 156.03C305.822 161.641 308.594 172.862 319.683 172.862C333.544 172.862 325.228 221.956 350.178 209.332C361.267 202.319 346.02 147.614 369.584 136.392C380.673 130.782 380.673 108.338 380.673 85.8954C380.673 63.4524 401.465 59.2443 405.623 81.6874C407.009 97.1169 402.851 116.755 419.484 120.963C433.345 123.768 427.801 156.03 431.959 191.097C436.118 212.138 452.751 210.735 459.682 181.278C461.9 171.179 468.923 171.46 472.157 172.862" stroke="white" stroke-width="3.53945" stroke-linecap="round"/>
<defs>
<filter id="filter0_d_801_16049" x="0" y="0" width="547" height="315" filterUnits="userSpaceOnUse" color-interpolation-filters="sRGB">
<feFlood flood-opacity="0" result="BackgroundImageFix"/>
<feColorMatrix in="SourceAlpha" type="matrix" values="0 0 0 0 0 0 0 0 0 0 0 0 0 0 0 0 0 0 127 0" result="hardAlpha"/>
<feOffset dy="-4"/>
<feGaussianBlur stdDeviation="18"/>
<feComposite in2="hardAlpha" operator="out"/>
<feColorMatrix type="matrix" values="0 0 0 0 0 0 0 0 0 0 0 0 0 0 0 0 0 0 0.05 0"/>
<feBlend mode="normal" in2="BackgroundImageFix" result="effect1_dropShadow_801_16049"/>
<feBlend mode="normal" in="SourceGraphic" in2="effect1_dropShadow_801_16049" result="shape"/>
</filter>
<linearGradient id="paint0_linear_801_16049" x1="157.308" y1="140.481" x2="132.58" y2="64.5321" gradientUnits="userSpaceOnUse">
<stop stop-color="#FB432C"/>
<stop offset="1" stop-color="#FF591E"/>
</linearGradient>
</defs>
</svg>
